<svg xmlns="http://www.w3.org/2000/svg" xmlns:xlink="http://www.w3.org/1999/xlink" width="168" height="140" viewBox="0 0 168 140">
    <defs>
        <path id="a" d="M.268.64h22.74v33.568H.268z"/>
        <path id="c" d="M.334.269h76.813V134H.334z"/>
        <path id="e" d="M0 .368h74.975v52.13H0z"/>
    </defs>
    <g fill="none" fill-rule="evenodd">
        <g fill="#8D4DB0">
            <path d="M43.972 7.363c-.07-.312-.182-.557-.348-.696 0 0 .126.262.348.696M73.598 116.939a8.218 8.218 0 0 0-.062-.948c-.012-.1-.028-.197-.043-.293a5.305 5.305 0 0 0-.12-.546c-.027-.1-.049-.204-.08-.296a3.658 3.658 0 0 0-.25-.564 3.223 3.223 0 0 0-.35-.511c-.726-.885-1.895-1.309-3.604-1.299l-32.315.19-1.362.008-1.804.01-.015-2.614c-.016-2.738.73-2.991 3.215-3.753l16.9-5.453C65.762 97.064 73.074 91.294 73 78.72l-.022-3.87-.019-3.197-.01-1.956-.017-2.679a32.295 32.295 0 0 0-.138-2.714 26.381 26.381 0 0 0-.235-1.913c-.025-.16-.062-.315-.09-.474l-.014-.062a22.62 22.62 0 0 0-.27-1.27 21.528 21.528 0 0 0-.205-.796c-.11-.39-.234-.77-.363-1.143-.084-.246-.164-.494-.257-.732-.023-.057-.049-.108-.072-.164-.027-.067-.059-.13-.086-.198l-.025-.056c-.089-.212-.18-.423-.275-.629-.042-.094-.079-.193-.124-.284-.1-.208-.203-.41-.31-.61l-.004-.007c-.05-.095-.108-.184-.16-.278-.073-.13-.149-.26-.226-.389-.042-.074-.083-.15-.128-.224-.188-.305-.38-.603-.585-.893-.067-.093-.137-.182-.205-.274l-.027-.035-.099-.134c-.309-.407-.633-.8-.978-1.174-.07-.077-.144-.15-.216-.227a16.053 16.053 0 0 0-1.307-1.219c-.065-.054-.129-.108-.195-.16a16.513 16.513 0 0 0-1.556-1.114c-.044-.028-.086-.057-.13-.084a18.105 18.105 0 0 0-1.873-1.016 21.607 21.607 0 0 0-3.832-1.35h-.002c-2.398-.612-5.072-.933-8.045-.915l-5.64.033-3.805.023c-.033-.59 2.577-2.434 2.78-2.602.845-.705 1.536-1.572 1.775-2.673a4.208 4.208 0 0 0 .03-1.603c1.515-.456 3.04-1.205 4.512-2.316 7.86-5.93 1.056-15.652 1.056-15.652l.111 2.245c-.147-1.949-.713-6.158-2.877-8.83-2.23-2.757-4.12-6.276-4.869-7.743.302 1.341-.15 3.928-.235 4.758-.229 2.23-.382 4.308-1.217 6.424-.599 1.518-2.276 3.172-2.386 4.792.001-.012.393-5.889-2.633-8.309 0 0 .03 4.88-2.389 8.626-2.418 3.746-4.408 7.203-3.092 11.214.906 2.763 5.626 5.707 11.044 5.335-.038 1.011-1.004 1.604-1.725 2.103-.994.686-2.019 1.353-2.576 2.472a3.696 3.696 0 0 0-.37 1.776l-24.22.142c-3.113.02-4.473 1.396-4.455 4.51l.085 14.565c.001.128.013.242.018.363.01.203.022.403.045.591.012.106.03.205.047.306.022.133.045.264.075.387.012.052.03.098.042.147.018.068.026.146.046.212.012.036.03.063.043.1l.036.1c.026.07.06.134.09.202l.004.01c.045.1.087.205.14.298.055.1.125.183.19.274.033.05.071.094.108.14.112.14.231.273.366.39.058.05.124.094.187.141.131.097.265.192.417.271.093.048.2.086.3.128.022.01.043.02.066.028.122.047.24.1.372.137.151.043.321.07.486.101.132.024.254.057.396.073.321.04.664.06 1.034.056l27.016-.158a8.938 8.938 0 0 1 .973.05c.148.016.283.04.415.066.141.03.274.064.397.105a2.179 2.179 0 0 1 .519.233l.09.061c.288.203.51.47.664.82.21.472.317 1.077.321 1.882.016 2.738-.725 3.74-3.335 4.502l-16.65 5.326a97.149 97.149 0 0 0-1.659.533c-.36.12-.719.243-1.073.367l-.24.083c-.435.155-.862.313-1.284.475l-.15.06c-.378.146-.749.297-1.115.452l-.215.091c-.83.357-1.633.738-2.404 1.15l-.122.065c-.377.203-.747.414-1.108.633l-.025.016a20.928 20.928 0 0 0-2.239 1.566 18.077 18.077 0 0 0-1.954 1.815l-.01.011a17.859 17.859 0 0 0-2.483 3.435 20.739 20.739 0 0 0-1.292 2.793v.001c-1.318 3.487-2.035 7.925-2.013 13.691v.142l.125 21.413c.018 3.112 1.395 4.473 4.51 4.455l16.881-.099 26.074-.153 16.302-.095c3.112-.019 4.475-1.396 4.456-4.509l-.085-14.565z"/>
        </g>
        <path fill="#7A529F" d="M36.308 42.036c1.896.377 1.106 3.273-.78 2.897-2.218-.44-3.053-2.9-2.098-4.822.557-1.119 1.582-1.786 2.576-2.473.751-.519 1.78-1.136 1.735-2.228-.04-.992-1.18-1.866-1.879-2.424-1.509-1.207.614-3.329 2.108-2.134 1.686 1.348 3.203 3.458 2.706 5.743-.239 1.101-.93 1.967-1.776 2.672-.23.193-3.6 2.568-2.592 2.77"/>
        <g transform="translate(26 1.36)">
            <mask id="b" fill="#fff">
                <use xlink:href="#a"/>
            </mask>
            <path fill="#F9C500" d="M6.169 9s.028 4.88-2.39 8.627C1.36 21.374-.628 24.83.688 28.84c1.314 4.012 10.67 8.406 18.53 2.475 7.86-5.931 1.056-15.651 1.056-15.651l.164 3.3s-.038-6.316-2.93-9.887C14.618 5.506 12.293.64 12.293.64c.88.737.217 4.43.112 5.454-.228 2.229-.381 4.308-1.216 6.425-.6 1.517-2.277 3.17-2.387 4.792 0-.013.393-5.89-2.632-8.31" mask="url(#b)"/>
        </g>
        <path fill="#F9C500" d="M34.383 19.489s.017 2.918-1.429 5.158-2.635 4.307-1.849 6.705c.787 2.399 6.381 5.027 11.081 1.48 4.699-3.546.631-9.36.631-9.36l.098 1.975s-.022-3.777-1.751-5.912c-1.73-2.136-3.119-5.046-3.119-5.046.526.44.13 2.649.066 3.26-.137 1.334-.228 2.578-.728 3.843-.357.907-1.36 1.897-1.426 2.866.001-.008.235-3.522-1.574-4.97"/>
        <path fill="#F9C500" d="M35.829 24.28s.01 1.804-.884 3.19c-.894 1.385-1.63 2.663-1.144 4.147.487 1.483 3.947 3.11 6.854.915 2.906-2.193.39-5.789.39-5.789l.06 1.221s-.013-2.335-1.083-3.657c-1.07-1.32-1.928-3.12-1.928-3.12.325.273.08 1.638.04 2.017-.083.825-.141 1.594-.45 2.376-.22.561-.841 1.173-.881 1.772 0-.004.144-2.178-.974-3.073"/>
        <path fill="#9C3" d="M4.635 131.693c-3.113.018-4.49-1.343-4.509-4.456l-.125-21.413c-.114-19.297 7.953-23.826 19.385-27.379l16.652-5.326c2.61-.762 3.351-1.763 3.335-4.502-.014-2.49-.89-3.23-3.38-3.217l-27.015.16c-3.113.017-4.49-1.345-4.508-4.457l-.085-14.566c-.019-3.112 1.342-4.49 4.455-4.508l36.726-.215c14.191-.084 21.953 7.092 22.032 20.537l.068 11.702c.074 12.575-7.237 18.345-19.29 22.15l-16.9 5.453c-2.487.761-3.233 1.015-3.216 3.754l.015 2.614 35.481-.208c3.112-.019 4.49 1.343 4.508 4.455l.086 14.566c.018 3.112-1.344 4.49-4.456 4.508l-59.259.348z"/>
        <path fill="#9C3" d="M4.635 131.693c-3.113.018-4.49-1.343-4.509-4.456l-.125-21.413c-.114-19.297 7.953-23.826 19.385-27.379l16.652-5.326c2.61-.762 3.351-1.763 3.335-4.502-.014-2.49-.89-3.23-3.38-3.217l-27.015.16c-3.113.017-4.49-1.345-4.508-4.457l-.085-14.566c-.019-3.112 1.342-4.49 4.455-4.508l36.726-.215c14.191-.084 21.953 7.092 22.032 20.537l.068 11.702c.074 12.575-7.237 18.345-19.29 22.15l-16.9 5.453c-2.487.761-3.233 1.015-3.216 3.754l.015 2.614 35.481-.208c3.112-.019 4.49 1.343 4.508 4.455l.086 14.566c.018 3.112-1.344 4.49-4.456 4.508l-59.259.348z"/>
        <g fill="#9C3">
            <path d="M8.978 65.56l24.918-.147c.011-.202.022-.399.021-.625-.014-2.378-.85-3.087-3.229-3.073l-25.81.152c-.129 0-.236-.016-.359-.02.232 2.574 1.613 3.73 4.46 3.712M67.436 59.436a27.534 27.534 0 0 0-.302-2.186c-.079-.436-.173-.86-.273-1.279-.056-.233-.106-.47-.167-.698a20.618 20.618 0 0 0-.524-1.649c-.092-.254-.2-.494-.303-.739a18.796 18.796 0 0 0-.423-.97 17.72 17.72 0 0 0-.432-.82 17.794 17.794 0 0 0-.939-1.522c-.119-.172-.248-.335-.373-.5a15.915 15.915 0 0 0-2.71-2.793c-.063-.05-.123-.105-.188-.156a16.76 16.76 0 0 0-1.323-.925c-1.702-1.08-3.659-1.909-5.868-2.472 4.717 3.24 7.227 8.65 7.271 16.074l.066 11.18c.07 12.014-6.914 17.526-18.43 21.162l-16.146 5.21c-2.375.727-3.087.97-3.072 3.585.004.717.023 1.435.048 2.153l-.036.003.002.342h.048c.074 1.961.188 3.928.2 5.901l6.52-.038-.002-.286-1.805.011-.015-2.614c-.016-2.74.73-2.993 3.215-3.754l16.9-5.453c12.054-3.806 19.365-9.576 19.291-22.15l-.068-11.702a32.627 32.627 0 0 0-.096-2.225c-.017-.234-.044-.46-.066-.69M63.757 107.816l-2.23.013.075 12.58c.017 2.974-1.284 4.29-4.258 4.308l-56.614.332c-.222.002-.413-.02-.616-.033l.012 2.222c.02 3.112 1.396 4.474 4.51 4.455l59.258-.348c3.113-.018 4.474-1.395 4.456-4.508l-.085-14.565c-.019-3.112-1.397-4.474-4.508-4.456"/>
        </g>
        <path fill="#9C3" d="M8.84 42.03c-3.112.017-4.474 1.395-4.455 4.507l.081 13.92 35.46-18.61-31.086.182zM39.374 68.618c.016 2.739-.726 3.739-3.335 4.5l-16.652 5.328C11.413 80.924 5.08 83.884 2.015 91.992L67.23 57.765c-1.052-6.551-4.39-11.161-9.787-13.686L16.6 65.515l19.393-.114c2.49-.014 3.366.727 3.38 3.217M31.441 108.006l-3.166.019-.015-2.615c-.016-2.74.73-2.992 3.215-3.754l16.901-5.452c12.053-3.806 19.364-9.576 19.291-22.15l-.023-3.871-67.642 35.5v.14L.11 124.45l31.331-16.443zM68.344 125.84l-.08-13.568c-.013-2.175-.707-3.478-2.176-4.07l-44.57 23.392 36.27-.212 10.556-5.541z"/>
        <path fill="#9C3" d="M11.369 57.877c.218-.021.434-.048.646-.085l.007 1.113c.02 3.437 1.938 5.634 4.393 6.61l6.3-.036c2.439-1.005 4.327-3.223 4.307-6.662v-.045a8.134 8.134 0 0 0 3.99-1.572l.004.594c.055 9.308 14.003 9.569 14.945.903.186.008.372.015.56.006 2.272-.116 4.34-1.147 5.72-2.768a6.598 6.598 0 0 0 2.769.71c.005 1.003.01 2.005.017 3.008.024 3.923 3.495 7.66 7.544 7.455a8.099 8.099 0 0 0 5.043-2.077l-.015-2.68c-.08-13.445-7.841-20.62-22.033-20.537l-36.726.215c-3.112.018-4.473 1.396-4.455 4.509l.086 14.566c.006 1.134.199 2.029.585 2.716 3.128-.545 5.705-2.825 6.313-5.943"/>
        <path fill="#9C3" d="M11.369 57.877c.218-.021.434-.048.646-.085l.007 1.113c.02 3.437 1.938 5.634 4.393 6.61l6.3-.036c2.439-1.005 4.327-3.223 4.307-6.662v-.045a8.134 8.134 0 0 0 3.99-1.572l.004.594c.055 9.308 14.003 9.569 14.945.903.186.008.372.015.56.006 2.272-.116 4.34-1.147 5.72-2.768a6.598 6.598 0 0 0 2.769.71c.005 1.003.01 2.005.017 3.008.024 3.923 3.495 7.66 7.544 7.455a8.099 8.099 0 0 0 5.043-2.077l-.015-2.68c-.08-13.445-7.841-20.62-22.033-20.537l-36.726.215c-3.112.018-4.473 1.396-4.455 4.509l.086 14.566c.006 1.134.199 2.029.585 2.716 3.128-.545 5.705-2.825 6.313-5.943"/>
        <path fill="#9C3" d="M4.74 63.05l.003.06c.011.034.03.06.041.094-.017-.049-.028-.104-.044-.155M12.022 58.905l-.007-1.113a8.147 8.147 0 0 1-.646.085c-.609 3.118-3.185 5.399-6.314 5.944-.032-.056-.054-.123-.083-.182.364.733.93 1.246 1.718 1.553 2.484-.891 4.423-2.922 4.94-5.566.148-.014.295-.037.442-.058-.018-.221-.049-.432-.05-.663M31.016 57.793l-.003-.594a8.135 8.135 0 0 1-3.991 1.573v.044c.02 3.44-1.868 5.657-4.307 6.662l2.8-.017c1.085-1.188 1.779-2.814 1.767-4.896v-.045a8.12 8.12 0 0 0 3.84-1.475 8.326 8.326 0 0 1-.106-1.252M12.295 60.916c.07 1.953.762 3.488 1.815 4.612l2.305-.013c-1.933-.769-3.517-2.306-4.12-4.599M55.292 61.474c.065 3.896 3.516 7.587 7.54 7.383a8.117 8.117 0 0 0 4.793-1.87l-.011-1.956a8.104 8.104 0 0 1-5.043 2.077c-3.412.173-6.405-2.456-7.28-5.634M55.01 56.645a6.602 6.602 0 0 1-2.77-.71c-1.378 1.621-3.448 2.652-5.718 2.768a6.167 6.167 0 0 1-.561-.006c-.865 7.964-12.709 8.382-14.664 1.173.11 2.567 1.295 4.415 2.963 5.541l1.733-.011c1.686-.009 2.62.344 3.058 1.335 3.401-.111 6.727-2.211 7.17-6.289.186.007.373.014.56.005 2.273-.115 4.34-1.147 5.72-2.768a6.61 6.61 0 0 0 2.519.689c-.004-.576-.008-1.151-.01-1.727"/>
        <path fill="#9C3" d="M30.003 55.55L30 54.954a8.135 8.135 0 0 1-3.991 1.573v.044c.02 3.44-1.868 5.657-4.307 6.662l-6.3.037c-1.231-.49-2.326-1.286-3.115-2.392.595 2.312 2.185 3.863 4.128 4.636l6.3-.037c2.439-1.005 4.327-3.222 4.307-6.66v-.046a8.171 8.171 0 0 0 3.273-1.104 8.006 8.006 0 0 1-.292-2.119M11.009 56.66l-.007-1.112a8.147 8.147 0 0 1-.646.085c-.579 2.966-2.946 5.156-5.868 5.833.043.96.225 1.745.567 2.355 2.947-.513 5.381-2.576 6.165-5.416a8.055 8.055 0 0 1-.211-1.744M53.996 54.401a6.598 6.598 0 0 1-2.768-.71c-1.38 1.62-3.448 2.652-5.72 2.767-.19.01-.374.002-.56-.005-.77 7.082-10.225 8.198-13.685 3.288 1.85 7.342 13.828 6.967 14.698-1.044.186.007.372.015.56.005 2.272-.115 4.34-1.147 5.72-2.768a6.719 6.719 0 0 0 1.768.592l-.013-2.125M65.133 51.306c.94 2.542 1.433 5.48 1.452 8.801l.016 2.68a8.105 8.105 0 0 1-5.044 2.077c-2.569.13-4.9-1.329-6.272-3.412.868 3.188 3.867 5.83 7.286 5.656a8.102 8.102 0 0 0 5.043-2.077l-.016-2.68c-.026-4.354-.87-8.04-2.465-11.045"/>
        <g fill="#9C3">
            <path d="M3.427 105.546l.103 17.5c.01 1.93 3.01 1.916 3-.018-.035-5.833-.07-11.667-.103-17.5-.011-1.93-3.011-1.916-3 .018M6.14 99.28l-.011-2c-.005-.785-.7-1.532-1.51-1.49-.812.04-1.495.667-1.49 1.508.004.667.008 1.333.01 2 .006.784.7 1.532 1.51 1.491.813-.04 1.496-.668 1.49-1.509M41.455 67.573c.008 1.417.017 2.833.024 4.25.012 1.93 3.012 1.916 3-.018-.007-1.417-.016-2.833-.024-4.25-.012-1.93-3.012-1.916-3 .018M8.374 93.089c4.193-7.78 12.668-10.245 20.644-12.397 1.862-.503 1.054-3.393-.814-2.89-8.746 2.36-17.857 5.306-22.43 13.788-.916 1.7 1.683 3.2 2.6 1.499M34.157 78.501l2.026-.345c.8-.136 1.24-1.13 1.036-1.85-.238-.849-1.05-1.175-1.85-1.038l-2.026.345c-.8.136-1.24 1.131-1.037 1.851.238.85 1.05 1.174 1.851 1.037"/>
        </g>
        <path fill="#FFF" d="M6.51 48.245v5.333c0 1.93 3 1.934 3 0v-5.333c0-1.93-3-1.934-3 0M14.51 58.578v1.333c0 .785.69 1.537 1.5 1.5.813-.036 1.5-.659 1.5-1.5v-1.333c0-.785-.69-1.536-1.5-1.5-.813.037-1.5.66-1.5 1.5M32.177 52.245v6.333c0 1.93 3 1.934 3 0v-6.333c0-1.93-3-1.934-3 0M35.343 63.745c1.931 0 1.934-3 0-3-1.93 0-1.934 3 0 3M55.843 52.912v6c0 1.93 3 1.934 3 0v-6c0-1.931-3-1.934-3 0M57.843 62.578v1c0 .785.69 1.536 1.5 1.5.813-.037 1.5-.659 1.5-1.5v-1c0-.785-.689-1.536-1.5-1.5-.813.037-1.5.66-1.5 1.5"/>
        <g>
            <path fill="#8D4DB0" d="M131.15 5.365c-.069-.312-.179-.558-.344-.698 0 0 .124.263.343.698"/>
            <g transform="translate(90 5.096)">
                <mask id="d" fill="#fff">
                    <use xlink:href="#c"/>
                </mask>
                <path fill="#8D4DB0" d="M49.634 107.607c0 2.615-1.743 4.606-10.831 4.606-2.152 0-3.894-.118-5.311-.328a19.966 19.966 0 0 1-.613-.104c-.098-.018-.196-.035-.29-.054a17.733 17.733 0 0 1-.547-.118 42.398 42.398 0 0 1-.243-.062 9.622 9.622 0 0 1-1.464-.492c-.067-.03-.136-.058-.2-.09-.081-.037-.155-.077-.23-.116a5.26 5.26 0 0 1-.335-.19c-.057-.035-.116-.071-.17-.107a4.19 4.19 0 0 1-.4-.301l-.042-.04a3.713 3.713 0 0 1-.313-.314c-.032-.037-.061-.075-.091-.112a3.244 3.244 0 0 1-.193-.27c-.023-.036-.048-.072-.07-.11a3.159 3.159 0 0 1-.193-.386l-.001-.002a3.498 3.498 0 0 1-.13-.407c-.01-.041-.018-.083-.027-.124a3.725 3.725 0 0 1-.055-.316c-.005-.042-.011-.083-.015-.126a4.484 4.484 0 0 1-.023-.437v-6.598c0-2.49 1.992-4.482 10.956-4.482a55.597 55.597 0 0 1 1.738.028c.44.014.86.033 1.26.059l.22.015c.357.025.697.053 1.022.086l.185.018a22.737 22.737 0 0 1 2.085.326l.122.029c.233.052.452.109.66.167.069.02.139.039.204.059.218.065.423.135.615.208.06.023.118.048.177.072.15.062.294.126.429.192l.139.067a5.078 5.078 0 0 1 .576.354c1.074.765 1.399 1.738 1.399 2.802V107.607zm-9.87-30.644a32.33 32.33 0 0 1-.961.018c-2.546 0-4.272-.27-5.446-.733a4.413 4.413 0 0 1-1.208-.694l-.06-.051a3.117 3.117 0 0 1-.354-.365l-.05-.058a3.075 3.075 0 0 1-.5-.95c-.006-.021-.01-.044-.017-.065a4.05 4.05 0 0 1-.13-.582 6.011 6.011 0 0 1-.05-.41c-.002-.047-.008-.095-.011-.145a9.103 9.103 0 0 1-.017-.553v-5.478c0-2.49.87-4.481 7.843-4.481a30.287 30.287 0 0 1 2.329.087c.05.004.097.01.148.015.257.024.5.05.734.082l.213.028c.249.038.484.079.704.125.07.014.134.03.2.045.165.038.32.078.469.12.064.018.13.036.193.055.17.054.33.112.48.172.07.028.138.058.204.087a4.397 4.397 0 0 1 .537.285 3.515 3.515 0 0 1 .393.28c.045.039.087.079.128.118.094.088.18.177.257.27l.074.094c.048.064.094.129.136.195.433.697.52 1.527.52 2.423v5.478a10.796 10.796 0 0 1-.03.785 5.583 5.583 0 0 1-.093.686c-.344 1.66-1.62 2.858-5.971 3.089-.214.012-.437.02-.663.028zm37.322 21.325c-.012-.211-.034-.412-.05-.62a28.382 28.382 0 0 0-.121-1.247c-.03-.235-.063-.464-.097-.695a25.607 25.607 0 0 0-.181-1.064 20.579 20.579 0 0 0-.382-1.665c-.058-.217-.113-.438-.177-.648a20.414 20.414 0 0 0-.33-.98 19.702 19.702 0 0 0-.355-.923c-.124-.298-.247-.597-.382-.88-.117-.245-.245-.477-.371-.711-.097-.182-.193-.365-.295-.54-.142-.245-.292-.48-.444-.713a15.703 15.703 0 0 0-.807-1.13c-.08-.101-.163-.2-.246-.298a14.178 14.178 0 0 0-.63-.723l-.038-.038c-.043-.045-.088-.087-.132-.132-.024-.026-.05-.05-.075-.075a14.757 14.757 0 0 0-1.278-1.154l-.104-.086a14.74 14.74 0 0 0-2.074-1.355l-.054-.03a15.335 15.335 0 0 0-.84-.422c-.123-.057-.248-.108-.373-.161a15.172 15.172 0 0 0-1.22-.465c-.146-.05-.29-.102-.438-.147a17.447 17.447 0 0 0-1.641-.421c.39-.17.756-.351 1.109-.544.109-.058.21-.122.317-.183.132-.077.27-.152.397-.232.105-.066.203-.137.305-.206.097-.066.194-.132.288-.201.062-.044.126-.087.186-.132.14-.106.273-.217.407-.33.06-.05.127-.097.187-.148l.129-.117a11.359 11.359 0 0 0 .635-.621l.117-.12.023-.022c.065-.072.125-.15.188-.224.088-.102.172-.206.256-.311.087-.111.176-.221.259-.334.02-.03.04-.057.06-.084.07-.1.137-.203.205-.306.087-.131.175-.261.256-.395l.102-.177c.037-.065.07-.13.107-.195l.004-.007c.073-.133.149-.264.217-.401.064-.128.12-.261.18-.392a34.34 34.34 0 0 0 .096-.21c.078-.181.152-.365.222-.552.062-.164.125-.327.182-.495.045-.135.084-.274.126-.412.05-.165.1-.33.144-.498.038-.143.07-.287.105-.432a16.58 16.58 0 0 0 .288-1.52c.02-.146.042-.292.06-.44.026-.201.047-.406.066-.611.014-.14.028-.28.04-.421.018-.234.03-.473.043-.712.005-.12.014-.236.019-.357.013-.363.02-.73.02-1.104v-7.221c0-.164-.006-.322-.01-.484v-.001c-.003-.217-.003-.435-.012-.65a2.124 2.124 0 0 0-.005-.082c-.005-.124-.015-.245-.022-.37-.012-.22-.023-.441-.041-.66-.004-.052-.011-.104-.016-.158-.013-.138-.03-.273-.044-.41-.018-.171-.033-.344-.055-.513-.007-.053-.018-.106-.025-.16-.004-.027-.01-.054-.013-.08l-.062-.401-.006-.04c-.021-.123-.038-.25-.06-.372l-.02-.093c-.015-.081-.034-.16-.05-.24l-.076-.364c-.024-.11-.046-.22-.072-.33l-.011-.037c-.025-.105-.056-.207-.083-.311a13.72 13.72 0 0 0-.027-.1v-.001l-.078-.29c-.016-.052-.028-.106-.043-.157v-.001c-.035-.114-.074-.223-.11-.335l-.022-.066a12.908 12.908 0 0 0-.117-.348c-.015-.04-.027-.082-.041-.122a14.638 14.638 0 0 0-1.477-2.986c-.021-.034-.045-.066-.067-.1-.057-.086-.114-.172-.173-.257-.021-.03-.041-.063-.063-.093a13.011 13.011 0 0 0-.337-.455l-.095-.122-.135-.172a14.154 14.154 0 0 0-1.087-1.198c-.07-.07-.141-.137-.212-.205l-.056-.053-.046-.045a13.631 13.631 0 0 0-.397-.358c-.074-.065-.15-.126-.226-.19-.18-.15-.36-.301-.55-.446-.061-.047-.127-.092-.19-.138a18.778 18.778 0 0 0-2.141-1.372c-.102-.056-.201-.115-.305-.17-.201-.107-.412-.21-.621-.311a17.063 17.063 0 0 0-1.051-.486 39.609 39.609 0 0 0-.5-.212 35.226 35.226 0 0 0-1.198-.455 24.892 24.892 0 0 0-1.277-.423c-.22-.068-.44-.136-.667-.202-.23-.065-.468-.128-.704-.191-.22-.06-.438-.118-.664-.175-.29-.071-.591-.138-.891-.205-.185-.042-.364-.086-.553-.126-.483-.101-.98-.197-1.488-.288-.202-.036-.413-.067-.618-.102-.331-.054-.662-.11-1.002-.16-.234-.035-.476-.065-.714-.097a53.453 53.453 0 0 0-.992-.128c-.252-.031-.51-.058-.767-.086a63.654 63.654 0 0 0-1.825-.173c-.362-.03-.73-.058-1.101-.083-.215-.015-.426-.031-.644-.045l-.036-.002-.13-.006a86.9 86.9 0 0 0-1.196-.062c-.266-.012-.53-.026-.8-.036-.246-.01-.497-.017-.747-.025l-.496-.013-.14-.003c-.232-.005-.46-.014-.697-.018-.477-.01-.967-.012-1.458-.015-.083-.484-.41-.907-1.052-1.04-1.007-.206 2.376-2.561 2.607-2.752.85-.701 1.547-1.562 1.792-2.662a4.193 4.193 0 0 0 .04-1.603c1.517-.448 3.046-1.188 4.524-2.29 7.895-5.884 1.149-15.645 1.149-15.645l.098 2.246c-.137-1.95-.677-6.163-2.826-8.848-2.215-2.77-4.084-6.3-4.823-7.771.294 1.343-.173 3.927-.264 4.757-.241 2.227-.406 4.306-1.253 6.417-.608 1.514-2.295 3.158-2.415 4.778 0-.012.428-5.887-2.584-8.325 0 0 0 4.88-2.44 8.612s-4.45 7.177-3.157 11.196c.889 2.767 5.592 5.739 11.012 5.399-.043 1.012-1.013 1.599-1.737 2.093-.998.68-2.027 1.342-2.59 2.457a3.633 3.633 0 0 0-.125 3.027C13.73 41.316 6.517 48.332 6.2 59.514c-.007.26-.015.52-.015.784v7.221c0 3.34.525 6.227 1.812 8.562l.029.052c.15.27.314.535.486.79l.066.097c.163.236.336.466.519.689l.109.133c.174.204.358.403.549.595.052.054.103.108.157.16.184.178.378.348.577.515.07.058.136.118.207.175.196.155.404.303.615.449.083.058.162.118.248.175.219.142.45.275.684.408.088.049.17.102.26.15.328.175.669.34 1.027.496-.45.089-.89.198-1.325.32-.156.046-.306.1-.461.149-.273.087-.548.172-.815.272-.19.07-.373.153-.56.23-.222.094-.446.186-.664.289-.203.096-.4.203-.6.308-.19.1-.38.2-.566.309-.21.124-.415.257-.62.39-.162.106-.324.213-.481.325a15.472 15.472 0 0 0-1.671 1.39c-.11.105-.216.213-.322.322-.22.224-.432.453-.64.693-.08.095-.16.195-.238.292-.22.269-.435.544-.64.832-.05.07-.096.145-.145.216a16.2 16.2 0 0 0-.65 1.018l-.022.04C1.365 91.38.334 95.317.334 100.263v12.076c0 .375.008.746.023 1.114.005.128.014.254.02.38.014.237.028.472.048.706.012.155.028.309.043.463a22.36 22.36 0 0 0 .225 1.61c.033.184.065.368.102.549.028.135.06.266.09.399.18.794.409 1.566.689 2.313.012.03.02.06.033.089.095.25.2.497.307.742l.068.155c.11.245.229.487.352.727a15.819 15.819 0 0 0 .484.874c.99 1.655 2.312 3.16 4.018 4.5l.064.049a21.327 21.327 0 0 0 2.966 1.924c.487.264.997.518 1.527.762l.205.096c1.142.515 2.384.988 3.736 1.415.1.032.206.06.308.092.573.177 1.166.344 1.778.504.14.036.279.074.422.11 1.442.362 2.989.679 4.65.95l.575.089c.657.1 1.332.195 2.024.283.226.028.449.058.678.084.466.055.943.104 1.423.152h.003a92.026 92.026 0 0 0 2.76.235c.482.034.966.067 1.462.095.28.016.566.029.85.042l.135.007.435.022c.574.025 1.16.045 1.754.062.282.009.56.02.846.027l.355.008c.98.02 1.98.034 3.01.034 30.004 0 38.346-8.715 38.346-21.663v-12.076c0-.678-.024-1.334-.062-1.974z" mask="url(#d)"/>
            </g>
            <path fill="#7A529F" d="M123.255 40.024c1.893.39 1.087 3.28-.797 2.893-2.215-.455-3.036-2.919-2.07-4.835.563-1.116 1.593-1.776 2.59-2.457.755-.515 1.787-1.125 1.748-2.218-.035-.992-1.17-1.873-1.865-2.436-1.501-1.216.635-3.325 2.122-2.12 1.677 1.357 3.182 3.476 2.672 5.758-.246 1.1-.942 1.962-1.792 2.662-.232.19-3.615 2.546-2.608 2.753"/>
            <g fill="#F9C500">
                <path d="M119.3 8.325s0 4.88-2.44 8.612c-2.44 3.733-4.45 7.177-3.157 11.196 1.292 4.019 10.622 8.468 18.516 2.584 7.894-5.885 1.148-15.646 1.148-15.646l.144 3.302s0-6.316-2.871-9.904C127.77 4.88 125.473 0 125.473 0c.876.742.19 4.43.08 5.454-.241 2.227-.407 4.306-1.254 6.417-.607 1.515-2.294 3.158-2.415 4.778 0-.012.428-5.887-2.583-8.325"/>
                <path d="M121.462 17.465s0 2.919-1.46 5.15c-1.458 2.232-2.66 4.292-1.888 6.696.773 2.402 6.352 5.063 11.072 1.544 4.72-3.52.687-9.355.687-9.355l.086 1.974s0-3.777-1.717-5.922c-1.717-2.146-3.09-5.064-3.09-5.064.524.444.115 2.65.048 3.262-.144 1.331-.243 2.573-.75 3.837-.363.904-1.372 1.889-1.443 2.858 0-.009.255-3.521-1.545-4.98"/>
                <path d="M122.88 22.265s0 1.805-.904 3.185c-.902 1.38-1.645 2.654-1.167 4.14.477 1.487 3.928 3.133 6.847.956 2.92-2.177.425-5.786.425-5.786l.053 1.221s0-2.336-1.062-3.663c-1.06-1.327-1.91-3.132-1.91-3.132.323.274.07 1.64.03 2.017-.09.824-.15 1.592-.465 2.374-.224.56-.848 1.167-.892 1.767 0-.005.157-2.178-.956-3.079"/>
            </g>
            <path fill="#F25222" d="M123.47 77.41c7.095 0 7.718-1.992 7.718-4.606v-5.478c0-2.49-.623-4.481-7.719-4.481-6.972 0-7.843 1.99-7.843 4.48v5.479c0 2.614.871 4.606 7.843 4.606zm0 35.232c9.087 0 10.83-1.991 10.83-4.606v-6.598c0-2.49-1.743-4.482-10.83-4.482-8.965 0-10.957 1.992-10.957 4.482v6.598c0 2.615 1.992 4.606 10.956 4.606zm38.344.125c0 12.948-8.342 21.663-38.345 21.663-30.004 0-38.469-8.715-38.469-21.663V100.69c0-11.703 5.726-17.803 13.196-19.297-5.478-2.366-7.345-7.096-7.345-13.446v-7.221c0-12.2 7.72-19.67 32.743-19.67 25.023 0 32.37 7.47 32.37 19.67v7.22c0 6.35-1.869 11.08-7.347 13.447 7.47 1.494 13.197 7.594 13.197 19.297v12.076z"/>
            <g fill="#F25222">
                <path d="M149.63 55.394v7.221c0 6.35-1.868 11.08-7.346 13.446 3.123.624 5.933 2.066 8.156 4.375 4.075-2.573 5.522-6.903 5.522-12.488v-7.22c0-6.964-2.399-12.382-9.104-15.754 1.965 2.896 2.771 6.4 2.771 10.42M109.292 63.69v7.551c0 3.323 1.04 5.911 8.731 6.296v-.86c-2.04-.807-2.398-2.215-2.398-3.874v-5.477c0-2.49.872-4.482 7.844-4.482 4.543 0 6.427.82 7.2 2.06l.078.002V63.69c0-3.433-.859-6.178-10.642-6.178-9.61 0-10.813 2.745-10.813 6.178M112.514 108.036v-6.598c0-2.49 1.992-4.482 10.956-4.482 5.639 0 8.447.767 9.769 1.945.792.047 1.543.106 2.228.182v-1.435c0-3.347-2.342-6.025-14.56-6.025-12.05 0-14.726 2.678-14.726 6.025v8.868c0 2.803 1.718 5.068 8.513 5.874v-1.041c-1.665-.828-2.18-1.99-2.18-3.313"/>
                <path d="M152.107 82.508c2.105 3.127 3.374 7.365 3.374 12.85v12.076c0 12.947-8.342 21.662-38.345 21.662-13.71 0-22.911-1.824-28.874-5.036 4.705 6.463 15.129 10.37 35.207 10.37 30.004 0 38.345-8.716 38.345-21.663v-12.076c0-9.796-4.02-15.654-9.707-18.183"/>
            </g>
            <g transform="translate(85 74.096)">
                <mask id="f" fill="#fff">
                    <use xlink:href="#e"/>
                </mask>
                <path fill="#F25222" d="M27.514 33.94v-6.598c0-2.49 1.992-4.482 10.956-4.482 9.088 0 10.83 1.992 10.83 4.482v2.526l25.675-13.284c-2.265-5.29-6.425-8.3-11.357-9.286 3.388-1.463 5.393-3.834 6.43-6.93L0 36.608v2.063c0 5.484 1.529 10.203 5.558 13.828L33.16 38.218c-4.486-.667-5.646-2.291-5.646-4.278" mask="url(#f)"/>
            </g>
            <path fill="#F25222" d="M90.851 64.925l44.721-23.138c-3.449-.479-7.417-.73-11.978-.73-25.024 0-32.743 7.47-32.743 19.67v4.198zM161.814 112.767v-4.714l-49.956 25.845c3.457.346 7.306.531 11.61.531 30.005 0 38.346-8.715 38.346-21.662M98.196 81.394c-6.883 1.376-12.273 6.676-13.08 16.653l39.978-20.683a29.87 29.87 0 0 1-1.625.046c-6.972 0-7.843-1.993-7.843-4.607v-5.477c0-2.49.871-4.482 7.843-4.482 7.096 0 7.72 1.991 7.72 4.482v5.477c0 .52-.029 1.013-.124 1.472l24.898-12.88v-.668c0-6.158-1.876-11.108-6.948-14.504L92.216 75.61c1.126 2.536 3.024 4.507 5.98 5.784"/>
            <g fill="#F25222">
                <path d="M87.406 96.818v19.25c0 1.931 3 1.934 3 0v-19.25c0-1.931-3-1.934-3 0M88.62 121.07c.153 1.277.713 2.29 1.8 3.009.677.447 1.66.134 2.053-.538.429-.734.139-1.604-.54-2.052-.203-.135-.006.018-.102-.09-.182-.206.222.259-.088-.104-.047-.056-.111-.198-.045-.043-.012-.028-.112-.458-.078-.181-.093-.776-.623-1.54-1.5-1.5-.732.033-1.601.666-1.5 1.5M91.641 90.817c.086-.948.813-1.712 1.711-2.104.743-.324.914-1.412.539-2.052-.449-.767-1.307-.864-2.053-.538-1.889.824-3.014 2.693-3.197 4.694-.074.808.742 1.5 1.5 1.5.873 0 1.426-.689 1.5-1.5M92.156 55.818v14.5c0 1.931 3 1.934 3 0v-14.5c0-1.931-3-1.934-3 0M95.093 77.38c.333.418.667.834 1 1.25.507.633 1.593.529 2.122 0 .625-.625.507-1.485 0-2.12l-1-1.25c-.507-.634-1.594-.529-2.122 0-.625.624-.508 1.485 0 2.12M97.66 50.568c-.018-.233-.06-.041-.039-.02l.034-.135c-.057.118-.06.131-.009.038.075-.115-.104.02.027-.026.17-.059-.105.062-.124.069.761-.276 1.274-1.022 1.047-1.846-.202-.735-1.079-1.323-1.845-1.048-1.247.45-2.189 1.586-2.092 2.968.054.78.651 1.538 1.5 1.5.766-.035 1.56-.662 1.5-1.5"/>
            </g>
            <path fill="#F25222" d="M123.594 41.057c-25.024 0-32.743 7.47-32.743 19.67v.428c1.11.6 2.385.965 3.555.913a8.31 8.31 0 0 0 1.25-.158v1.908c0 9.651 15 9.668 15 0v-5.544a6.39 6.39 0 0 0 1 .044 8.234 8.234 0 0 0 3.439-.924c1.379 1.943 3.607 3.284 6.06 3.174 3.304-.148 6.192-2.232 7.158-5.264.81.37 1.673.55 2.593.514.25-.01.5-.032.75-.063v7.563c0 9.651 15 9.668 15 0V62.11c.588.15 1.18.233 1.75.208 3.422-.154 6.39-2.389 7.246-5.6-1.615-9.806-9.908-15.66-32.058-15.66"/>
            <path fill="#F25222" d="M123.594 41.057c-25.024 0-32.743 7.47-32.743 19.67v.428c1.11.6 2.385.965 3.555.913a8.31 8.31 0 0 0 1.25-.158v1.908c0 9.651 15 9.668 15 0v-5.544a6.39 6.39 0 0 0 1 .044 8.234 8.234 0 0 0 3.439-.924c1.379 1.943 3.607 3.284 6.06 3.174 3.304-.148 6.192-2.232 7.158-5.264.81.37 1.673.55 2.593.514.25-.01.5-.032.75-.063v7.563c0 9.651 15 9.668 15 0V62.11c.588.15 1.18.233 1.75.208 3.422-.154 6.39-2.389 7.246-5.6-1.615-9.806-9.908-15.66-32.058-15.66"/>
            <path fill="#F25222" d="M155.645 56.735c-.861 3.202-3.824 5.43-7.239 5.583-.569.025-1.162-.058-1.75-.208v1.208c0 8.146-10.65 9.416-14.002 3.839 1.627 7.944 14.836 7.4 14.836-1.672v-1.209c.587.151 1.18.234 1.75.209 2.911-.131 5.481-1.777 6.714-4.242a24.19 24.19 0 0 0-.309-3.508M155.203 54.703c-.026-.093-.044-.19-.072-.281-.008-.02-.018-.036-.027-.054.034.11.067.223.099.335M131.656 55.755c-.25.03-.5.052-.75.063a5.639 5.639 0 0 1-2.593-.514c-.967 3.032-3.855 5.116-7.157 5.264-2.454.11-4.682-1.23-6.062-3.173a8.229 8.229 0 0 1-3.438.923 6.385 6.385 0 0 1-1-.043v5.544c0 8.145-10.65 9.415-14.002 3.837 1.626 7.945 14.835 7.401 14.835-1.672v-5.543a6.27 6.27 0 0 0 1 .043 8.214 8.214 0 0 0 3.438-.924c1.38 1.944 3.608 3.284 6.062 3.174 3.303-.148 6.19-2.232 7.157-5.264a5.666 5.666 0 0 0 2.51.514v-2.229zM95.656 63.818V61.91a8.326 8.326 0 0 1-1.25.158c-.875.039-1.808-.155-2.686-.507-.022.439-.036.881-.036 1.333v.427c1.11.601 2.385.966 3.555.914.147-.007.291-.023.436-.039-.006-.126-.019-.248-.019-.378"/>
            <path fill="#F25222" d="M94.156 61.985v-1.909a8.458 8.458 0 0 1-1.25.159c-.664.029-1.358-.086-2.039-.292-.008.261-.016.52-.016.784v.428c1.033.559 2.206.899 3.308.903 0-.025-.003-.048-.003-.073M151.658 48.426c1.3 1.898 2.098 4.06 2.493 6.46-.855 3.21-3.824 5.445-7.245 5.6-.569.024-1.163-.059-1.75-.21v1.21c0 7.225-8.38 9.04-12.614 5.462 3.213 5.81 14.114 4.614 14.114-3.63V62.11c.587.15 1.181.233 1.75.208 3.421-.154 6.39-2.389 7.245-5.6-.529-3.21-1.78-5.995-3.993-8.292M130.156 53.922c-.25.03-.5.052-.75.063a5.64 5.64 0 0 1-2.593-.514c-.967 3.032-3.855 5.116-7.157 5.264-2.454.11-4.682-1.231-6.062-3.175a8.23 8.23 0 0 1-3.438.925 6.384 6.384 0 0 1-1-.044v5.544c0 7.227-8.38 9.04-12.614 5.463 3.213 5.81 14.114 4.615 14.114-3.63v-5.543c.33.037.661.059 1 .044a8.229 8.229 0 0 0 3.438-.925c1.38 1.944 3.608 3.285 6.062 3.175 3.302-.149 6.19-2.233 7.157-5.265.586.267 1.2.43 1.843.49v-1.871z"/>
            <path fill="#FFF" d="M95.348 58.811c.136-1.078.53-2.104 1.069-3.04.964-1.677-1.627-3.189-2.591-1.515-.82 1.425-1.274 2.931-1.478 4.555-.101.806.762 1.5 1.5 1.5.895 0 1.399-.692 1.5-1.5M98.128 51.707l.495-.505c.567-.578.577-1.544 0-2.121-.57-.57-1.552-.58-2.12 0l-.496.505c-.567.579-.577 1.545 0 2.12.57.57 1.552.582 2.121 0M98.03 60.773c-.498 1.814-.545 3.625-.223 5.473.139.798 1.118 1.248 1.845 1.048.843-.232 1.187-1.044 1.047-1.845-.227-1.306-.125-2.606.225-3.878.512-1.864-2.381-2.659-2.893-.798M109.428 53.051c-.354.714-.438 1.38-.29 2.162.152.797 1.11 1.25 1.846 1.048.834-.23 1.199-1.047 1.048-1.845a.261.261 0 0 1-.015.207c.05-.172.05-.19 0-.057.36-.726.196-1.624-.537-2.053-.663-.388-1.691-.19-2.052.538M115.97 47.815l-.152 5.672c-.052 1.931 2.948 1.93 3 0l.151-5.672c.052-1.93-2.948-1.93-3 0"/>
            <path fill="#FFF" d="M116.722 56.486c.083.933.386 1.651.97 2.382.507.633 1.593.528 2.121 0 .625-.626.508-1.487 0-2.122.14.175-.113-.247-.017-.03-.024-.053-.094-.463-.074-.23-.069-.78-.64-1.539-1.5-1.5-.753.033-1.574.662-1.5 1.5M131.977 53.147a99.726 99.726 0 0 0 .04 9.674c.1 1.921 3.101 1.932 3 0a99.726 99.726 0 0 1-.04-9.674c.086-1.93-2.914-1.927-3 0M133.09 66.724c.302 1.126 1.44 2.058 2.645 1.907.776-.097 1.54-.62 1.5-1.5-.033-.729-.666-1.604-1.5-1.5-.177.007-.176.023.004.046a.908.908 0 0 0 .051.026c-.119-.067.164.12.192.223-.21-.782-1.067-1.262-1.845-1.048-.788.217-1.259 1.061-1.048 1.846M144.906 55.818v1.667c0 .784.69 1.536 1.5 1.5.813-.037 1.5-.659 1.5-1.5v-1.667c0-.784-.69-1.536-1.5-1.5-.813.036-1.5.659-1.5 1.5"/>
        </g>
    </g>
</svg>
