<svg xmlns="http://www.w3.org/2000/svg" width="414" height="612" viewBox="0 0 414 612">
    <g fill="none" fill-rule="evenodd" transform="translate(-219 -11)">
        <path fill="#6C63FF" d="M506.243 69.977c-35.271 24.679-81.02 23.079-121.111 10.24-40.09-12.838-76.918-35.689-115.979-51.933a376.897 376.897 0 0 0-101.9-26.545C117.469-3.953 61.874 2.98 27.19 42.883c-38.627 44.42-35.66 124.537 6.1 165.338 21.255 20.74 49.082 30.92 73.349 47.118 24.266 16.198 46.733 43.08 44.666 74.341-1.914 28.954-24.16 51.14-47.183 65.069-17.792 10.766-39.702 22.53-41.844 44.832-2.075 21.578 16.35 38.485 33.944 48.1 57.394 31.369 128.119 31.064 185.315-.762 20.408-11.42 39.137-26.553 60.529-35.406 56.166-23.262 118.06.152 177.537 8.716a355.213 355.213 0 0 0 150.998-10.987c29.452-8.686 59.018-21.974 79.708-46.729 14.925-17.852 24.22-40.443 32.945-62.752a2504.211 2504.211 0 0 0 26.837-71.873c5.147-14.477 10.219-29.25 11.553-44.74 2.41-28.085-7.748-55.842-21.582-79.538-32.846-56.261-88.166-95.828-148.077-105.878-59.91-10.05-123.292 9.562-169.758 52.535" opacity=".1"/>
        <path fill="#D4D5E0" d="M269 535.901l-2.457.099c-.16-3.952-12.521-13.398-20.19-17.236-5.34-2.66-9.438-5.54-12.574-8.808-4.998-5.198-7.157-11.072-6.432-17.479 1.526-13.276-9.233-29.98-9.347-30.147l2.06-1.33c.466.714 11.346 17.6 9.729 31.75-1.069 9.41 4.875 17.42 17.663 23.826 6.028 3.024 21.289 13.2 21.548 19.325z"/>
        <path fill="#6C63FF" d="M232.059 428.085c-10.248-17.068-30.186-23.968-44.61-15.411-14.425 8.557-17.755 29.333-7.507 46.401 9.927 16.574 29.07 23.558 43.343 16.11a10.517 10.517 0 0 1 .832 5.92c-.718 3.382 6.575-3.913 6.575-3.913a17.948 17.948 0 0 1-3.948-4.165c12.546-9.286 15.02-28.778 5.315-44.942z"/>
        <ellipse cx="461.5" cy="538" fill="#6C63FF" opacity=".1" rx="230.5" ry="17"/>
        <path fill="#53425A" d="M442 92.293V119h3V91zM500 98.848V124h4l-.889-28zM389 104l-3 2.805V131h3z"/>
        <path fill="#6C63FF" d="M400 176h-17v-49h13.077a6.663 6.663 0 0 0-.298 1.16c-.513 2.82-.352 8.136.122 14.22C397.041 156.963 400 176 400 176zM459 175.41L438 178v-63h13.286a26.3 26.3 0 0 0-.18 2.423 107.56 107.56 0 0 0 .826 14.22c.451 4.105 1.045 8.512 1.692 12.873a533.44 533.44 0 0 0 1.579 9.995 720.163 720.163 0 0 0 3.797 20.9zM516 169.256L495 171v-51h14.443c-.515 1.086-.768 2.915-.768 5.248.092 4.207.47 8.403 1.129 12.56 2.073 14.282 6.196 31.448 6.196 31.448z"/>
        <path fill="#FFC13D" d="M392.244 55s1.302 5.202-12.368 19.499c-13.67 14.297-8.24 43.12 6.29 42.253 0 0 13.595 2.282 18.484-6.996a12.35 12.35 0 0 0-.868-12.678c-4.494-6.609-13.16-20.495-11.538-27.127V55z"/>
        <path fill="#FFF" d="M389.481 74s.805 3.278-7.622 12.255c-8.426 8.978-5.103 27.139 3.917 26.595 0 0 8.569 1.44 11.493-4.596a7.939 7.939 0 0 0-.647-7.798c-2.615-3.929-7.516-11.918-7.208-16.307.045-.69.105-1.371.105-2.06L389.481 74z" opacity=".5"/>
        <path fill="#FFC13D" d="M505.247 48s1.302 5.195-12.368 19.502c-13.671 14.307-8.249 43.127 6.29 42.26 0 0 13.595 2.236 18.484-7.005a12.377 12.377 0 0 0-.868-12.68c-4.493-6.61-13.16-20.49-11.538-27.123V48z"/>
        <path fill="#FFF" d="M503.526 79s.613 2.433-5.82 9.123c-6.434 6.69-3.876 20.177 2.963 19.767 0 0 6.395 1.041 8.7-3.277a5.765 5.765 0 0 0-.413-5.93c-2.114-3.094-6.188-9.587-5.43-12.696V79z" opacity=".5"/>
        <path fill="#FFC13D" d="M447.439 30s1.572 6.288-14.93 23.592c-16.5 17.305-9.947 52.164 7.56 51.12 0 0 16.403 2.708 22.306-8.475a14.994 14.994 0 0 0-1.05-15.337c-5.42-7.99-15.874-24.788-13.924-32.816L447.439 30z"/>
        <path fill="#FFF" d="M445.675 61s.88 3.524-8.353 13.207c-9.234 9.683-5.574 29.216 4.26 28.631 0 0 9.196 1.519 12.5-4.747a8.355 8.355 0 0 0-.585-8.589c-3.038-4.473-8.9-13.883-7.807-18.37L445.675 61zM396 142.329c-4.025 4.245-9.592 11.854-13 16.671v-17.445c3.763-4.547 9.152-9.952 12.877-13.555-.548 2.846-.355 8.197.123 14.329zM452 131.235A152.766 152.766 0 0 0 438 144v-16.333A75.251 75.251 0 0 1 451.169 117c-.04 4.758.238 9.514.831 14.235z" opacity=".5"/>
        <path fill="#6C63FF" d="M455 154.177c-5.104 4.622-12.118 11.224-17 15.823v-11.887c5.097-4.869 11.294-10.454 15.44-14.113.498 3.467 1.055 6.933 1.56 10.177z"/>
        <path fill="#FFF" d="M510 138.27c-5.12 4.134-11.054 9.82-15 13.73v-16.075c4.195-4.015 9.749-7.573 13.858-9.925.095 4.11.476 8.21 1.142 12.27z" opacity=".5"/>
        <path fill="#C99398" d="M346 187h213v97H346z"/>
        <path fill="#000" d="M559 187v14.465c-4.07.753-9.407-.422-13.88-1.898a18.652 18.652 0 0 0-15.958 1.988c-12.27 7.907-21.853 6.235-28.533 2.304a24.871 24.871 0 0 0-22.242-1.694 24.642 24.642 0 0 1-9.864 1.785 20.958 20.958 0 0 0-11.194 3.012c-10.07 6.024-20.119 2.537-26.425-1.1a18.834 18.834 0 0 0-13.667-1.942 20.12 20.12 0 0 1-6.108.482c-4.66-.426-9.34.57-13.408 2.853-16.63 9.586-22.142-2.055-25.402-3.764-3.703-1.928-4.131 4.72-5.223 4.72-1.092 0-4.78-8.794-5.658-5.797-.404 1.415-3.817 3.102-7.352 4.518a14.92 14.92 0 0 1-8.086.82V187h213z" opacity=".1"/>
        <path fill="#F8F8FA" d="M354.693 167.482s-34.812 15.591-16.237 35.072a14.434 14.434 0 0 0 15.841 3.324c3.51-1.421 6.93-3.14 7.334-4.585.868-3.057 4.57 5.877 5.643 5.877 1.074 0 1.524-6.748 5.21-4.792 3.267 1.735 8.75 13.55 25.338 3.821a22.668 22.668 0 0 1 13.38-2.888c2.03.15 4.071-.02 6.048-.505a18.572 18.572 0 0 1 13.632 1.972c6.29 3.691 16.313 7.23 26.359 1.123a20.714 20.714 0 0 1 11.15-3.049 23.81 23.81 0 0 0 9.831-1.811 24.479 24.479 0 0 1 22.185 1.72c6.664 3.996 16.222 5.693 28.46-2.293a18.322 18.322 0 0 1 15.918-2.018c8.895 2.988 21.264 4.899 20.144-8.178-1.736-20.252-25.604-26.13-35.589-26.351-9.984-.222-26.473-1.957-45.132 0-18.658 1.956-56.631 1.742-56.631 1.742s-63.745-2.606-72.884 1.82z"/>
        <path fill="#000" d="M559 219.512v25.713c-1.09-.03-2.176-.13-3.253-.3-5.056-.768-10.104-2.411-15.168-1.713-8.011 1.114-14.182 7.834-21.987 9.938-15.618 4.224-30.434-10.936-46.587-10.506-11.623.307-21.338 8.502-32.03 13.056a53.943 53.943 0 0 1-34.466 2.619c-9.73-2.52-18.536-7.68-27.769-11.697-9.233-4.016-19.543-6.827-29.28-4.324-.826.208-1.635.461-2.46.692v-17.88c1.17.178 2.353.258 3.536.239 3.819-.184 6.996-1.06 10.906-.307a40.448 40.448 0 0 1 10.272 3.586c7.041 3.456 13.556 8.14 21.07 10.376 5.622 1.682 11.556 1.912 17.421 1.79 11.563-.254 23.438-1.975 33.382-7.903 6.346-3.794 12.02-9.316 19.291-10.591 15-2.619 27.38 13.824 42.608 14.308 3.819.138 7.546-.768 11.242-1.628 5.697-1.352 11.54-2.765 16.374-6.068 5.094-3.479 9.065-9.031 15.045-10.513 2.956-.73 6.11-.361 9.035.33.947.223 1.894.484 2.818.783z" opacity=".1"/>
        <path fill="#000" d="M559 217.505v25.717a26.668 26.668 0 0 1-3.253-.292c-5.056-.768-10.103-2.42-15.166-1.72-8.011 1.113-14.182 7.834-21.986 9.939-15.617 4.224-30.432-10.938-46.583-10.508-11.623.307-21.337 8.503-32.028 13.058a54.01 54.01 0 0 1-34.464 2.627c-9.775-2.497-18.55-7.681-27.782-11.714-9.233-4.033-19.542-6.829-29.279-4.325-.825.215-1.634.461-2.459.692v-17.875c1.17.182 2.353.261 3.536.239 3.818-.185 6.995-1.06 10.905-.308a41.077 41.077 0 0 1 10.286 3.595c7.041 3.464 13.555 8.142 21.07 10.377 5.62 1.683 11.554 1.913 17.419 1.79 11.562-.253 23.436-1.974 33.38-7.904 6.345-3.787 12.02-9.317 19.29-10.592 14.998-2.62 27.377 13.788 42.604 14.31 3.818.138 7.545-.768 11.241-1.629 5.697-1.351 11.539-2.757 16.373-6.068 5.094-3.48 9.065-9.025 15.044-10.515 2.955-.73 6.11-.361 9.034.33a43.6 43.6 0 0 1 2.818.776z" opacity=".1"/>
        <path fill="#6C63FF" d="M333.813 229.735c-2.444 5.085.886 12.292 6.47 12.93 2.605.283 5.148-.73 7.684-1.384 9.74-2.504 20.06.338 29.287 4.333s18.012 9.18 27.774 11.708a54 54 0 0 0 34.465-2.62c10.694-4.609 20.418-12.775 32.083-13.06 16.17-.422 30.99 14.735 46.595 10.51 7.807-2.105 13.986-8.827 21.992-9.933 5.064-.707 10.113.96 15.17 1.713 5.057.753 10.877.322 14.269-3.534 3.521-4.01 2.933-10.548-.26-14.835-3.193-4.287-8.402-6.622-13.574-7.836-2.963-.684-6.11-1.06-9.036-.33-5.981 1.49-9.93 7.03-15.048 10.517-4.843 3.303-10.694 4.717-16.377 6.069-3.697.883-7.448 1.767-11.252 1.636-15.224-.53-27.606-16.94-42.616-14.32-7.272 1.276-12.94 6.807-19.287 10.594-9.93 5.931-21.832 7.683-33.389 7.906-5.866.123-11.81-.108-17.431-1.783-7.509-2.243-14.025-6.914-21.06-10.386a41.282 41.282 0 0 0-10.289-3.603c-3.919-.769-7.089.13-10.916.315-2.91.138-5.4-.93-8.402-.062a10.759 10.759 0 0 0-6.852 5.455z"/>
        <path fill="#C99398" d="M303 285h303v119H303z"/>
        <path fill="#000" d="M559 264v20H440.556c-.206 0-.404-.045-.61-.06a16.082 16.082 0 0 0-3.01.06H346v-17.832c9.928 1.185 19.901 2.693 29.783 2.648 13.074-.052 25.964-2.723 39.091-2.003 45.82 2.498 92.403 3.241 138.055-2.085L559 264zM606 284v10.831c-3.29-.423-6.465-1.745-9.648-2.798-2.871-.945-5.97-1.683-8.887-.9-1.523.416-2.94 1.23-4.455 1.7-6.336 1.998-12.946-2.16-19.594-2.184-6.648-.023-12.481 3.975-18.908 5.435-9.946 2.253-20.105-1.699-29.624-5.38-3.853-1.477-8.323-2.891-11.917-.87-1.584.885-2.772 2.345-4.318 3.306-4.508 2.814-10.418.615-14.91-2.222-2.849-1.79-6.29-3.905-9.291-2.39-1.523.768-2.52 2.306-3.808 3.505-4.059 3.675-10.455 2.69-15.436.454-4.98-2.237-9.694-5.527-15.123-5.935-7.615-.584-14.363 4.612-21.033 8.456-6.671 3.844-15.947 6.08-21.391.615-1.805-1.807-3.138-4.428-5.605-5.05-4.082-1.023-7.15 4.074-11.263 4.965-5.072 1.107-9.192-4.343-14.278-5.38-5.263-1.108-10.152 2.582-14.797 5.311-4.645 2.73-11.423 4.259-14.75.039-1.074-1.346-1.66-3.16-3.13-4.06a6.29 6.29 0 0 0-3.617-.583 36.619 36.619 0 0 0-12.763 3.074c-4.638 2.068-9.139 5.159-14.18 5.059H303V284h303z" opacity=".1"/>
        <path fill="#F8F8FA" d="M376.422 270.41c-23.25.099-47.233-8.593-69.182-.859-7.953 2.804-15.998 9.437-15.183 17.81.763 5.865 5.627 10.344 11.55 10.637 5.066.091 9.545-2.97 14.185-5.007a36.832 36.832 0 0 1 12.768-3.04 6.33 6.33 0 0 1 3.626.586c1.463.874 2.057 2.674 3.131 4.004 3.368 4.179 10.11 2.66 14.75-.038 4.64-2.697 9.545-6.352 14.802-5.25 5.081 1.056 9.21 6.443 14.284 5.318 4.114-.881 7.184-5.918 11.268-4.9 2.468.608 3.809 3.19 5.607 4.984 5.447 5.402 14.71 3.168 21.392-.608 6.681-3.776 13.393-8.92 21.05-8.358 5.431.41 10.154 3.67 15.137 5.881 4.982 2.211 11.374 3.176 15.435-.448 1.287-1.155 2.285-2.705 3.809-3.472 3.001-1.52 6.445.592 9.294 2.363 4.495 2.803 10.407 4.976 14.917 2.195 1.523-.95 2.735-2.385 4.32-3.267 3.595-1.998 8.067-.6 11.922.859 9.523 3.624 19.693 7.537 29.635 5.318 6.43-1.443 12.326-5.394 18.916-5.371 6.59.022 13.264 4.133 19.602 2.165 1.524-.471 2.918-1.276 4.45-1.687 2.925-.76 6.025-.045 8.897.89 3.81 1.245 7.619 2.879 11.626 2.894 4.007.015 8.38-2.173 9.363-6.078.762-2.971-.693-6.079-2.484-8.548-6.483-9.049-17.735-13.676-28.82-14.945-11.084-1.269-22.253.494-33.33 1.8-45.52 5.426-92.029 4.711-137.739 2.143-13.065-.73-25.948 1.976-38.998 2.029z"/>
        <path fill="#000" d="M606 361.453v29.108c-30.941 5.526-62.583 6.803-94.05 8.096-20.386.824-40.788 1.647-61.182 1.232-15.23-.303-30.461-1.308-45.63-2.268l-48.74-3.205-45.859-3.023-7.539-.499v-25.956a29.09 29.09 0 0 1 6.092-2.97c10.446-3.574 22.012-1.52 30.56 5.427 15.369-9.177 36.593-7.423 50.216 4.172 18.772-13.999 46.964-13.817 65.553.416 12.314-14.974 37.377-17.287 52.25-4.808 14.217-13.182 38.579-13.605 53.307-.982 10.357-7.884 24.598-8.405 37.528-6.599 2.57.287 5.09.912 7.494 1.86z" opacity=".1"/>
        <path fill="#6C63FF" d="M619 388.973a401.357 401.357 0 0 1-50.932 7.493c-5.717.514-11.45.93-17.19 1.3-13.043.833-26.133 1.362-39.185 1.891-8.297.333-16.593.666-24.897.923l-5.206.143c-10.41.265-20.814.378-31.217.167-15.266-.303-30.53-1.308-45.735-2.269l-48.849-3.198-45.963-3.025-11.281-.756c-4.053-.265-7.06.597-8.701-2.987-1.947-4.295-.23-8.567 2.152-12.302a45.51 45.51 0 0 1 1.32-1.936 31.518 31.518 0 0 1 15.06-11.463c10.472-3.57 22.064-1.51 30.63 5.444 15.402-9.18 36.674-7.425 50.329 4.174 18.814-14.003 47.07-13.822 65.701.416 12.342-14.979 37.461-17.293 52.368-4.809 14.25-13.187 38.666-13.61 53.428-.983 10.38-7.886 24.653-8.408 37.613-6.6 3.817.536 7.778 1.322 10.74 3.78 4.121 3.41 5.06 8.809 6.19 14.2.694 3.682 1.58 7.372 3.625 10.397z"/>
        <path fill="#C99398" d="M282 393h336v138H282z"/>
        <path fill="#000" d="M619 388.567a398.403 398.403 0 0 1-50.932 7.553c-5.75-1-11.658-.55-17.19 1.31-.105.03-.21.066-.312.107-10.579 3.735-19.685 12.606-30.904 12.461-8.923-.091-16.7-6.013-25.31-8.475a32.1 32.1 0 0 0-7.556-1.227 33.006 33.006 0 0 0-5.206.145c-10.41.267-20.814.381-31.217.168-15.266-.305-30.53-1.319-45.735-2.287l-48.849-3.224-45.963-3.048-11.281-.762c-4.053-.267-7.06.602-8.701-3.01-1.947-4.33-.23-8.636 2.152-12.4 2.053 0 4.106.182 6.106.327 31.04 2.18 62.06 4.438 93.065 6.775l-4.77.839a521.74 521.74 0 0 1 97.979-6.052c15.265.503 30.675 1.677 45.864-.274 10.686-1.364 21.135-4.26 31.859-5.167 14.73-1.243 29.492 1.295 44.07 3.81a88.697 88.697 0 0 1 9.137 1.936c.763 3.727 1.648 7.446 3.694 10.495z" opacity=".1"/>
        <path fill="#000" d="M618 393v13.026c-4.193-.62-8.301-1.241-10.845 1.747-1.191 1.41-1.657 3.318-2.818 4.758-2.398 2.973-7.08 2.966-10.5 1.28-3.422-1.686-6.019-4.598-8.959-7.057a35.564 35.564 0 0 0-33.863-5.946c-10.585 3.754-19.696 12.666-30.922 12.528-8.966-.123-16.71-6.061-25.325-8.551a34.136 34.136 0 0 0-28.852 4.919c-6.11 4.344-11.853 11.08-19.276 10.221-3.888-.452-7.156-2.988-10.463-5.103a55.576 55.576 0 0 0-21.91-8.152c-3.4-.483-7.012-.629-10.143.766-3.956 1.785-6.507 5.739-10.172 8.053-8.516 5.363-19.567.529-28.341-4.406-8.775-4.934-19.658-9.961-28.357-4.911-2.054 1.195-3.818 2.896-5.972 3.83-12.22 5.364-24.263-15.378-36.818-10.788-2.834 1.035-5.094 3.264-7.882 4.421a9.502 9.502 0 0 1-4.582.644V393h336z" opacity=".1"/>
        <path fill="#F8F8FA" d="M391.307 385.062c-30.996-2.35-61.976-4.627-92.941-6.83-5.336-.384-10.892-.768-16.067.769-5.176 1.536-10 5.439-11.105 10.755-1.67 8.043 7.797 15.978 15.342 12.844 2.782-1.152 5.03-3.396 7.859-4.433 12.53-4.609 24.527 16.225 36.737 10.817 2.165-.96 3.918-2.658 5.96-3.841 8.69-5.086 19.535 0 28.3 4.924 8.766 4.924 19.818 9.81 28.293 4.417 3.666-2.305 6.204-6.284 10.152-8.074 3.125-1.421 6.723-1.275 10.122-.768a55.135 55.135 0 0 1 21.868 8.166c3.3 2.12 6.562 4.663 10.442 5.116 7.408.868 13.155-5.9 19.237-10.248a33.949 33.949 0 0 1 28.796-4.932c8.59 2.497 16.326 8.45 25.266 8.574 11.212.145 20.305-8.796 30.87-12.568a35.366 35.366 0 0 1 33.795 5.976c2.934 2.428 5.533 5.378 8.948 7.068 3.414 1.69 8.079 1.698 10.472-1.283 1.159-1.437 1.616-3.357 2.813-4.77 4.893-5.762 15.54 1.85 21.47-2.812a8.223 8.223 0 0 0 2.722-4.51c1.524-5.968-2.241-12.29-7.34-15.655-5.1-3.365-11.304-4.525-17.325-5.585-14.55-2.55-29.29-5.116-44.001-3.841-10.709.914-21.15 3.84-31.814 5.208-15.16 1.967-30.526.768-45.808.277a516.214 516.214 0 0 0-97.834 6.1"/>
        <path fill="#000" d="M618 443.974v24.335a30.715 30.715 0 0 1-11.754-3.55c-6.782-3.521-12.884-8.552-20.216-10.738-22.836-6.718-46.023 16.543-69.249 11.35-8.912-1.993-16.985-8.113-26.104-7.669-8.592.4-15.687 6.45-23.302 10.454a52.58 52.58 0 0 1-48.184 0c-8.6-4.54-16.26-11.627-25.883-12.954-15.016-2.063-28.702 10.607-43.84 10.17-9.218-.269-17.496-5.369-25.737-9.487-8.241-4.119-17.864-7.54-26.517-4.341-3.865 1.426-7.149 4.057-10.746 6.043A22.32 22.32 0 0 1 282 459.49v-20.024c14.792-10.92 35.05-10.476 49.353 1.081 3.727 2.999 7.042 6.726 11.456 8.49 6.27 2.5 13.427.552 19.483-2.393 6.057-2.945 11.716-6.902 18.208-8.72 15.733-4.364 31.649 4.725 46.099 12.348 8.447 4.448 17.917 8.62 27.227 6.565 4.445-.99 8.455-3.321 12.457-5.5 16.1-8.758 35.53-15.491 52.415-8.359 6.721 2.838 13.236 7.861 20.453 6.757 4.484-.69 8.234-3.666 11.869-6.389a156.447 156.447 0 0 1 24.539-15.008c4.109-2.01 8.592-3.896 13.121-3.183 6.21.959 10.57 6.404 14.84 11.044 3.872 4.172 9.057 8.236 14.48 7.776z" opacity=".1"/>
        <path fill="#000" d="M618 446.98v24.348a30.71 30.71 0 0 1-11.754-3.552c-6.782-3.521-12.884-8.554-20.216-10.74-22.836-6.72-46.023 16.547-69.249 11.354-8.912-1.995-16.985-8.117-26.104-7.672-8.592.4-15.687 6.452-23.302 10.456a52.545 52.545 0 0 1-48.184-.046c-8.6-4.534-16.26-11.622-25.883-12.949-15.016-2.063-28.702 10.61-43.84 10.172-9.218-.268-17.496-5.331-25.737-9.49-8.241-4.157-17.864-7.548-26.517-4.341-3.865 1.427-7.149 4.058-10.746 6.045A22.743 22.743 0 0 1 282 462.46v-19.992a40.337 40.337 0 0 1 49.353 1.082c3.727 3 7.042 6.728 11.456 8.492 6.27 2.501 13.427.552 19.483-2.4 6.057-2.954 11.716-6.905 18.208-8.715 15.733-4.373 31.649 4.725 46.099 12.35 8.447 4.45 17.917 8.623 27.227 6.567 4.445-.99 8.455-3.322 12.457-5.5 16.1-8.761 35.53-15.496 52.415-8.362 6.721 2.838 13.236 7.855 20.453 6.758 4.484-.69 8.234-3.667 11.869-6.39a156.44 156.44 0 0 1 24.539-15.013c4.109-2.01 8.592-3.897 13.121-3.183 6.21.959 10.57 6.405 14.84 11.046 3.872 4.181 9.057 8.232 14.48 7.78z" opacity=".1"/>
        <path fill="#6C63FF" d="M300.272 433.056a41.02 41.02 0 0 1 31.503 8.5c3.73 2.999 7.04 6.727 11.48 8.492 6.254 2.5 13.394.552 19.45-2.402 6.056-2.953 11.7-6.904 18.184-8.714 15.713-4.365 31.61 4.725 46.041 12.35 8.436 4.45 17.895 8.623 27.193 6.567 4.44-.982 8.444-3.314 12.433-5.492 16.087-8.769 35.492-15.504 52.357-8.37 6.72 2.839 13.226 7.863 20.427 6.759 4.477-.69 8.215-3.667 11.853-6.383a155.642 155.642 0 0 1 24.508-15.02c4.104-2.018 8.589-3.897 13.097-3.192 6.209.975 10.564 6.414 14.82 11.055 4.257 4.64 10.222 9.144 16.27 7.456 1.442-.406 2.792-1.15 4.28-1.32 2.555-.283 5.026 1.213 6.727 3.161 5.118 5.869 3.715 16.21-2.784 20.483-6.384 4.204-15.004 2.301-21.785-1.205-6.78-3.505-12.868-8.553-20.19-10.74-22.807-6.72-45.965 16.548-69.16 11.354-8.902-1.994-16.965-8.116-26.072-7.671-8.574.391-15.667 6.451-23.272 10.456a52.464 52.464 0 0 1-48.124-.046c-8.58-4.542-16.247-11.63-25.85-12.95-14.988-2.07-28.665 10.602-43.79 10.165-9.2-.268-17.468-5.37-25.698-9.482-8.23-4.111-17.841-7.548-26.484-4.35-3.852 1.428-7.132 4.059-10.74 6.038-3.607 1.98-7.925 3.345-11.792 1.956-2.998-1.074-6.102-5.109-4.882-8.438.939-2.624 5.34-5.47 7.277-7.395a41.472 41.472 0 0 1 22.723-11.622z"/>
        <path fill="#000" d="M618 493.517v32.693c-12.86.665-25.724 1.326-38.59 1.981-20.764 1.06-41.56 2.127-62.347 1.72-17.565-.353-35.13-1.743-52.694-2.304-36.932-1.152-73.963 1.444-110.796-1.536-11.791-.952-23.537-2.465-35.344-3.14a259.285 259.285 0 0 0-36.229.522v-30.796c1.11-.091 2.224-.117 3.337-.077a42.526 42.526 0 0 1 16.801 4.085c4.124 1.966 8.027 4.608 12.517 5.376 11.685 2.028 21.834-9.077 33.664-9.983 9.523-.707 18.076 5.23 26.255 10.198 1.528.953 3.322 1.913 5.125 1.644 1.527-.223 2.764-1.267 3.994-2.181 11.661-8.648 29.425-7.603 39.986 2.373 1.146 1.075 2.292 2.304 3.819 2.688 2.994.768 5.682-1.813 8.064-3.84 12.869-10.92 32.71-7.634 47.479.499 2.734 1.536 5.766 3.218 8.782 2.435 2.024-.53 3.59-2.09 5.209-3.426 12.578-10.375 31.494-8.447 46.21-1.466 1.421.675 2.925 1.405 4.483 1.228 1.88-.222 3.315-1.674 4.75-2.887a24.13 24.13 0 0 1 25.492-3.18c2.292 1.121 4.483 2.642 6.95 3.402 7.026 2.158 14.166-2.234 21.185-4.462A36.177 36.177 0 0 1 618 493.517z" opacity=".1"/>
        <path fill="#F8F8FA" d="M653 525.388l-73.833 3.8c-20.72 1.062-41.47 2.13-62.212 1.723-17.527-.354-35.054-1.746-52.58-2.307-36.852-1.154-73.803 1.438-110.556-1.539-11.766-.954-23.486-2.47-35.267-3.146a260.038 260.038 0 0 0-39.747.877c-2.828.27-7.179 1.7-9.907 1.138-2.949-.607-1.821-.946-.86-3.769.299-.837.553-1.69.761-2.554.808-3.454.953-6.923 1.288-10.523.427-4.577 1.097-9.607 4.846-12.723 2.95-2.454 7.034-2.946 10.86-2.823a42.303 42.303 0 0 1 16.764 4.093c4.115 1.969 8.01 4.615 12.49 5.423 11.659 2.03 21.786-9.093 33.59-10 9.503-.708 18.037 5.238 26.199 10.215 1.524.954 3.315 1.915 5.113 1.646 1.524-.223 2.759-1.27 3.985-2.184 11.637-8.662 29.361-7.616 39.9 2.376 1.143 1.077 2.286 2.308 3.81 2.693 2.988.769 5.67-1.816 8.048-3.846 12.84-10.939 32.637-7.647 47.375.5 2.728 1.538 5.753 3.223 8.763 2.438 2.02-.53 3.582-2.092 5.197-3.43 12.551-10.393 31.427-8.462 46.111-1.47 1.417.677 2.919 1.408 4.473 1.23 1.875-.222 3.307-1.676 4.74-2.891a24.004 24.004 0 0 1 25.437-3.185c2.286 1.123 4.473 2.646 6.934 3.408 7.01 2.161 14.136-2.239 21.139-4.47 19.033-6.08 39.382 4.367 45.722 23.477a35.288 35.288 0 0 1 1.417 5.823z"/>
        <g fill="#000" opacity=".1" transform="translate(279 509)">
            <ellipse cx="13.792" cy="10.485" rx="13.387" ry="10.08"/>
            <ellipse cx="63.729" cy="10.08" rx="13.387" ry="10.08"/>
            <ellipse cx="114.742" cy="10.08" rx="13.387" ry="10.08"/>
            <ellipse cx="175.34" cy="10.08" rx="13.387" ry="10.08"/>
            <ellipse cx="235.938" cy="10.08" rx="13.387" ry="10.08"/>
            <ellipse cx="288.051" cy="10.08" rx="13.387" ry="10.08"/>
            <ellipse cx="335.261" cy="10.08" rx="13.387" ry="10.08"/>
        </g>
        <ellipse cx="292.5" cy="520" fill="#6C63FF" rx="13.5" ry="10"/>
        <ellipse cx="342.5" cy="520" fill="#6C63FF" rx="13.5" ry="10"/>
        <ellipse cx="393.5" cy="520" fill="#6C63FF" rx="13.5" ry="10"/>
        <ellipse cx="454.5" cy="520" fill="#6C63FF" rx="13.5" ry="10"/>
        <ellipse cx="514.5" cy="520" fill="#6C63FF" rx="13.5" ry="10"/>
        <ellipse cx="566.5" cy="520" fill="#6C63FF" rx="13.5" ry="10"/>
        <ellipse cx="614.5" cy="520" fill="#6C63FF" rx="13.5" ry="10"/>
        <circle cx="333.5" cy="339.5" r="12.5" fill="#6C63FF" opacity=".5"/>
        <circle cx="486.5" cy="338.5" r="12.5" fill="#6C63FF" opacity=".5"/>
        <circle cx="409.5" cy="323.5" r="12.5" fill="#6C63FF" opacity=".5"/>
        <circle cx="563.5" cy="323.5" r="12.5" fill="#6C63FF" opacity=".5"/>
        <path fill="#000" d="M653 525.58l-73.833 3.67c-20.72 1.025-41.47 2.058-62.212 1.664-17.527-.342-35.054-1.686-52.58-2.229-36.852-1.114-73.803 1.39-110.556-1.486-11.766-.92-23.486-2.385-35.267-3.038a269.187 269.187 0 0 0-39.747.847c-2.828.26-7.179 1.642-9.907 1.1-2.949-.588-1.821-.915-.86-3.641.299-.808.553-1.632.761-2.467h382.746a33.133 33.133 0 0 1 1.455 5.58z" opacity=".1"/>
        <path fill="#D4D5E0" d="M258.978 520h398.067C664.2 520 670 525.946 670 533.281V535H246v-1.719c0-3.526 1.368-6.908 3.802-9.4 2.435-2.49 5.736-3.887 9.176-3.881z"/>
        <path fill="#6C63FF" d="M357.25 180.304a1.196 1.196 0 0 1 .8 1.491l-1.223 4.04a1.196 1.196 0 1 1-2.292-.69l1.222-4.041c.192-.633.86-.991 1.493-.8zM322.114 274.402c.631.189.99.854.8 1.485l-1.212 4.032a1.193 1.193 0 1 1-2.287-.685l1.212-4.032c.19-.631.856-.99 1.487-.8zM284.9 385.053c.63.19.988.854.799 1.485l-1.212 4.032a1.193 1.193 0 1 1-2.287-.685l1.212-4.032c.19-.631.856-.99 1.487-.8zM377.97 392.4a1.193 1.193 0 0 1 .8 1.486l-1.212 4.031a1.193 1.193 0 1 1-2.287-.685l1.213-4.032c.19-.631.855-.99 1.487-.8zM433.235 388.25c.63.19.989.854.8 1.485l-1.212 4.032a1.193 1.193 0 1 1-2.287-.685l1.212-4.032c.19-.631.855-.99 1.487-.8zM511.123 396.648c.631.19.99.854.8 1.485l-1.212 4.032a1.193 1.193 0 1 1-2.287-.685l1.212-4.032c.19-.63.856-.99 1.487-.8zM564.402 384.374c.631.19.99.854.8 1.485l-1.212 4.032a1.193 1.193 0 1 1-2.287-.685l1.212-4.032c.19-.631.856-.99 1.487-.8zM330.423 389.62c.63.19.99.854.8 1.485l-1.212 4.032a1.193 1.193 0 1 1-2.287-.685l1.212-4.032c.19-.631.855-.99 1.487-.8zM443.375 400.77c.631.188.99.853.8 1.484v.001l-1.212 4.031a1.193 1.193 0 1 1-2.287-.685l1.212-4.031c.19-.632.856-.99 1.487-.8zM489.981 388.252a1.193 1.193 0 0 1 .8 1.485l-1.212 4.032a1.193 1.193 0 1 1-2.287-.685l1.213-4.032c.19-.631.855-.99 1.486-.8zM588.414 384.375a1.193 1.193 0 0 1 .8 1.486l-1.212 4.03a1.193 1.193 0 1 1-2.287-.685c0 .001 0 0 0 0l1.212-4.03c.19-.632.855-.99 1.487-.801zM475.44 178.782a1.194 1.194 0 0 1 1.669-.255l3.398 2.496a1.19 1.19 0 0 1 .255 1.666c-.391.53-1.138.645-1.669.255l-3.399-2.496a1.19 1.19 0 0 1-.255-1.665l.001-.001zM446.418 176.612a1.194 1.194 0 0 1 1.668-.254l3.4 2.495c.53.39.643 1.135.254 1.665v.001c-.392.531-1.138.645-1.67.255l-3.398-2.496a1.19 1.19 0 0 1-.255-1.665v-.001zM399.29 176.619a1.194 1.194 0 0 1 1.67-.254l3.398 2.495a1.19 1.19 0 0 1 .254 1.666c-.39.531-1.137.645-1.668.255l-3.4-2.496a1.19 1.19 0 0 1-.253-1.666zM336.512 272.453a1.194 1.194 0 0 1 1.669-.255l3.399 2.496c.53.39.644 1.135.255 1.665l-.001.001c-.391.53-1.138.644-1.669.254l-3.399-2.495a1.19 1.19 0 0 1-.254-1.666zM340.088 282.134a1.194 1.194 0 0 1 1.668-.254l3.4 2.495a1.19 1.19 0 0 1 .253 1.666c-.39.531-1.137.645-1.668.255l-3.399-2.496a1.19 1.19 0 0 1-.255-1.665v-.001zM417.565 273.224a1.194 1.194 0 0 1 1.669-.254l3.399 2.496c.53.39.644 1.134.255 1.665h-.001c-.39.531-1.137.645-1.669.255l-3.398-2.496a1.19 1.19 0 0 1-.255-1.666zM386.83 399.223a1.194 1.194 0 0 1 1.669-.254l3.399 2.495a1.19 1.19 0 0 1 .254 1.667c-.391.53-1.138.644-1.669.254l-3.399-2.496a1.19 1.19 0 0 1-.255-1.665h.001zM501.47 278.215a1.194 1.194 0 0 1 1.669-.255l3.399 2.496c.53.39.644 1.135.255 1.665l-.001.001c-.39.53-1.138.645-1.669.255l-3.399-2.496a1.19 1.19 0 0 1-.254-1.666zM535.973 282.791a1.194 1.194 0 0 1 1.669-.254l3.399 2.495a1.19 1.19 0 0 1 .254 1.667c-.391.53-1.138.644-1.669.254l-3.399-2.496a1.19 1.19 0 0 1-.255-1.665l.001-.001zM525.529 385.658a1.194 1.194 0 0 1 1.668-.254l3.399 2.495c.53.39.644 1.135.255 1.665l-.001.001c-.39.531-1.137.645-1.668.255l-3.4-2.496a1.19 1.19 0 0 1-.253-1.666zM596.656 397.905a1.194 1.194 0 0 1 1.669-.254l3.399 2.496c.53.389.644 1.134.255 1.664l-.001.002c-.39.53-1.138.644-1.669.254l-3.398-2.496a1.19 1.19 0 0 1-.255-1.666zM355.436 390.886a1.194 1.194 0 0 1 1.668-.254l3.399 2.496c.53.39.644 1.134.255 1.665-.392.531-1.138.645-1.67.255l-3.398-2.496a1.19 1.19 0 0 1-.255-1.664v-.002zM303.65 386.308a1.194 1.194 0 0 1 1.669-.254l3.398 2.496a1.19 1.19 0 0 1 .254 1.666c-.39.53-1.137.644-1.668.254l-3.399-2.496a1.19 1.19 0 0 1-.255-1.665h.001zM406.414 394.323a1.194 1.194 0 0 1 1.668-.254l3.4 2.496c.53.389.644 1.134.254 1.664v.002c-.391.53-1.138.644-1.669.254l-3.399-2.496a1.19 1.19 0 0 1-.255-1.665h.001zM461.858 390.894a1.194 1.194 0 0 1 1.669-.254l3.398 2.496c.53.389.645 1.134.256 1.664l-.001.002c-.391.53-1.138.644-1.669.254l-3.399-2.496a1.19 1.19 0 0 1-.254-1.666zM537.084 181.735a1.19 1.19 0 0 1-.282 1.66l-.001.002-3.443 2.435a1.194 1.194 0 0 1-1.663-.283 1.19 1.19 0 0 1 .283-1.662l3.443-2.435a1.194 1.194 0 0 1 1.663.283zM475.943 190.717a1.19 1.19 0 0 1-.282 1.66l-.001.001-3.443 2.436a1.194 1.194 0 0 1-1.663-.284 1.19 1.19 0 0 1 .283-1.661l3.443-2.436a1.194 1.194 0 0 1 1.663.284zM374.804 279.137a1.19 1.19 0 0 1-.283 1.662l-3.443 2.435a1.194 1.194 0 0 1-1.664-.283 1.19 1.19 0 0 1 .282-1.66l.002-.002 3.442-2.435a1.194 1.194 0 0 1 1.664.283zM405.377 282.145a1.19 1.19 0 0 1-.282 1.66l-.002.001-3.442 2.436a1.194 1.194 0 0 1-1.664-.284 1.19 1.19 0 0 1 .282-1.66l.002-.001 3.442-2.436a1.194 1.194 0 0 1 1.664.284zM464.486 282.141a1.19 1.19 0 0 1-.282 1.66l-.001.001-3.443 2.436a1.194 1.194 0 0 1-1.663-.284 1.19 1.19 0 0 1 .282-1.66l.001-.001 3.443-2.436a1.194 1.194 0 0 1 1.663.284zM482.971 275.887a1.19 1.19 0 0 1-.282 1.66l-3.443 2.437a1.194 1.194 0 0 1-1.664-.284 1.19 1.19 0 0 1 .283-1.662l3.443-2.435a1.194 1.194 0 0 1 1.663.284zM526.704 278.225a1.19 1.19 0 0 1-.282 1.66l-.002.002-3.442 2.435a1.194 1.194 0 0 1-1.664-.284 1.19 1.19 0 0 1 .282-1.66h.002l3.442-2.437a1.194 1.194 0 0 1 1.664.284zM558.617 273.237a1.19 1.19 0 0 1-.284 1.661l-3.442 2.436a1.194 1.194 0 0 1-1.664-.284 1.19 1.19 0 0 1 .282-1.66l.001-.001 3.443-2.436a1.194 1.194 0 0 1 1.664.284zM601.951 275.891a1.19 1.19 0 0 1-.282 1.66v.001l-3.443 2.436a1.194 1.194 0 0 1-1.664-.284 1.19 1.19 0 0 1 .283-1.661l3.443-2.436a1.194 1.194 0 0 1 1.663.284zM467.285 173.991c.63.19.989.854.8 1.485v.001l-1.213 4.031a1.193 1.193 0 1 1-2.287-.685l1.213-4.031c.19-.632.855-.99 1.487-.8zM503.121 172.404c.631.19.99.854.8 1.485l-1.212 4.032a1.193 1.193 0 1 1-2.287-.685l1.213-4.032c.19-.631.855-.99 1.486-.8zM453.927 186.87c.631.188.99.853.8 1.484l-1.212 4.032a1.193 1.193 0 1 1-2.287-.685l1.212-4.032c.19-.631.856-.99 1.487-.8zM383.818 189.437c.63.189.989.853.8 1.484v.001l-1.212 4.031a1.193 1.193 0 1 1-2.287-.685l1.212-4.031c.19-.632.855-.99 1.487-.8zM508.618 183.66c.63.19.989.854.8 1.485l-1.213 4.032a1.193 1.193 0 1 1-2.287-.685l1.213-4.032c.19-.631.855-.99 1.487-.8zM377.964 173.997c.631.19.99.854.8 1.485l-1.212 4.032a1.193 1.193 0 1 1-2.287-.685l1.212-4.032c.19-.631.856-.99 1.487-.8zM414.79 180.458c.63.19.988.854.8 1.485l-1.213 4.032a1.193 1.193 0 1 1-2.287-.685l1.213-4.032c.19-.631.855-.99 1.486-.8zM392.297 274.398c.631.19.99.854.8 1.485v.001l-1.212 4.031a1.193 1.193 0 1 1-2.287-.685l1.213-4.031c.19-.632.855-.99 1.486-.8zM447.31 274.396c.63.189.989.854.8 1.484v.001l-1.213 4.032a1.193 1.193 0 1 1-2.287-.685l1.213-4.032c.19-.631.855-.99 1.487-.8zM575.669 279.159c.632.19.99.858.8 1.49v.001l-1.223 4.04a1.196 1.196 0 1 1-2.292-.69l1.222-4.041c.192-.633.86-.991 1.493-.8zM588.413 276.938c.63.19.989.854.8 1.485L588 282.456a1.193 1.193 0 1 1-2.287-.685l1.212-4.032c.19-.63.855-.99 1.487-.8zM429.485 189.44c.63.189.989.854.8 1.485l-1.213 4.032a1.193 1.193 0 1 1-2.287-.685l1.213-4.032c.19-.631.855-.99 1.487-.8z"/>
        <ellipse cx="333.5" cy="586.5" fill="#6C63FF" opacity=".1" rx="136.5" ry="12.5"/>
        <ellipse cx="639" cy="607" fill="#6C63FF" opacity=".1" rx="22" ry="2"/>
        <ellipse cx="577" cy="569" fill="#6C63FF" opacity=".1" rx="22" ry="2"/>
        <ellipse cx="478" cy="621" fill="#6C63FF" opacity=".1" rx="22" ry="2"/>
        <path fill="#FFD2C6" d="M412.172 324.471l-9.719 20.733s-1.435 3.891-2.359 4.596c-.923.705-5 13.02-5 13.02l-10.437 16.085-.71 1.095-4.084-1.134L377 368.144l.168-3.118v-.398s6.451-6.763 7.879-7.276c0 0 1.122.13 3.275-5.116 2.153-5.247 4.084-6.373 4.084-6.373l1.123-3.83 12.07-19.285s10.123-14.553 12.88-8.096c2.755 6.457-6.307 9.82-6.307 9.82z"/>
        <path fill="#D38884" d="M294.883 346.25a13.803 13.803 0 0 0-1.146 3.448c-.07.305-.132.617-.209.945-.681 3.44-1.146 7.773-1.379 10.282-.116 1.266-.17 2.075-.17 2.075s-24.782-1.632-20.476-5.72a8.933 8.933 0 0 0 2.269-4.05c.124-.438.232-.88.325-1.328.2-1.02.33-2.052.387-3.09v-.762a31.714 31.714 0 0 0-.248-5.05s8.055-.045 14.126.641c4.113.42 7.296 1.213 6.521 2.609z"/>
        <path fill="#FFD2C6" d="M371.96 470.896c-.026.353-.14.694-.331.993-1.126 1.634-7.533 35.08-7.533 35.08.517 2.29-.925 6.758-1.858 8.805-.933 2.047-3 12.686-3 12.686s-.508 22.913-1.85 26.487c-1.341 3.575.432 11.25.432 11.25-.131 3.529 2.005 7.256 3.277 9.165.092.123.177.245.246.352.417.588.687.924.687.924a5.449 5.449 0 0 0 1.45 1.764c.092.076.184.153.284.222a16.53 16.53 0 0 0 5.79 2.42l.201.046c.825.176 1.365.252 1.365.252l.509 2.765-5.467 1.123-10.424.71s-12.29.924-9.499-4.498c.19-.372.358-.754.501-1.146.1-.26.2-.534.286-.81 1.673-5.216.54-11.547.54-11.547l-2.375-18.506c-3.917-17.185 3.084-36.317 3.084-36.317s-.617-1.527.732-5.422c1.35-3.895 0-12.373 0-12.373s-.717-10.945-1.65-16.36a32.998 32.998 0 0 1-.378-6.873c.046-1.35.173-2.697.378-4.033l23.54-3.055s1.349 3.742 1.063 5.896z"/>
        <path fill="#000" d="M372 584.125l-5.508 1.112-10.505.704s-12.384.915-9.571-4.457c.192-.368.36-.747.505-1.135.1-.257.202-.53.287-.802 2.149.065 4.271.482 6.278 1.234 3.527 1.316 6.215-2.134 6.215-2.134l1.71-3.185.248-.462c.42.583.691.916.691.916a5.591 5.591 0 0 0 1.749 1.967l-.288.59-1.686 3.382s2.129.212 5.042.666c1.17.31 2.38-.335 2.743-1.46l.202.045c.831.174 1.375.25 1.375.25l.513 2.769z" opacity=".1"/>
        <path fill="#626696" d="M376.925 586.664c-.398 1.797-11.615 2.348-11.615 2.348s-6.232-.596-7.989.85c-1.756 1.445-6.892 1.103-7.095 1.103-.202 0-2.913-.105-3.971-4.934-1.029-4.71 1.381-5.537 1.501-5.574 2.172.028 4.32.442 6.345 1.222 3.408 1.296 6.006-2.102 6.006-2.102l1.862-3.577c.405.574.668.902.668.902.4.77.98 1.434 1.69 1.937l-1.885 3.95s2.057.201 4.872.649c2.253.365 2.74-1.49 2.846-2.191a2.818 2.818 0 0 0 0-.306s1.757.507 3.92 1.103a4.008 4.008 0 0 1 2.845 4.62z"/>
        <path fill="#FFD2C6" d="M398.554 495.768c-.275 1.624-.55 5.827-.55 5.827.956 3.52-1.531 11.89-1.531 11.89l-1.232 4.779c.55 6.07-3.375 20.993-3.375 20.993s-2.632 13.816-4.002 19.787a16.22 16.22 0 0 0 .712 9.962c.03.086.065.17.107.25.02.111.049.22.084.327.037.165.085.327.145.486a7.18 7.18 0 0 0 1.347 2.276c.235.272.49.526.765.758v.046a14.936 14.936 0 0 0 4.354 2.655c.238.099.467.19.69.266.71.264 1.436.49 2.172.675l.253.06-.551 3.195-7.239-1.836-9.703-3.126-4.675-2.724s.046-.258.145-.758v-.084l.138-.759c.765-4.195 2.602-15.932 1.676-24.567-1.156-10.697 3.336-25.47 4.43-28.99.652-2.012.932-4.125.827-6.236-1.783-2.572-2.189-12.898-2.189-12.898s-3.283-6.64-6-13.657a35.888 35.888 0 0 1-1.95-7.117 24.89 24.89 0 0 1-.39-5.205s22.007-19.916 24.425-.637c.076.653.153 1.275.23 1.89 2.111 17.654 1.147 20.902.887 22.472z"/>
        <path fill="#000" d="M398 576.716l-.545 3.284-7.164-1.888-9.603-3.214-4.688-2.785s.045-.265.144-.78v-.086l.136-.78.674-.07h.06a8.608 8.608 0 0 1 4.015.561c1.567.6 3.612 1.295 4.036.999a4.928 4.928 0 0 1 2.272-.414l1.007-2.208.144-.335c.298.86.75 1.653 1.333 2.34.232.28.486.541.757.78v.78l-.06 1.132a14.016 14.016 0 0 0 3.453 1.638c.314.079.64.079.954 0 .235.102.462.195.682.273.704.272 1.422.504 2.15.695l.243.078z" opacity=".1"/>
        <path fill="#626696" d="M394.246 583.77c-2.005-.596-6.837-1.547-7.596-.774-.76.774-7.498 0-7.498 0a4.068 4.068 0 0 1-3.457-2.073c-1.39-2.212-.266-9.36-.266-9.36l.494-.047.828-.085h.06a8.83 8.83 0 0 1 4.027.557c1.573.596 3.624 1.284 4.05.99a4.994 4.994 0 0 1 2.278-.41l1.147-2.568c.302.85.755 1.638 1.337 2.32.237.275.49.533.76.774l-.099 1.903a14.133 14.133 0 0 0 3.464 1.625 1.37 1.37 0 0 0 1.656-.542c.053-.087.094-.18.122-.278.06.116.76.348 2.834.96 2.279-.132 4.512.889 5.53 4.06 1.018 3.172-7.627 3.528-9.67 2.948z"/>
        <path fill="#000" d="M371.96 470.57l-1.256.359a19.4 19.4 0 0 1-3.038.595c-6.513.854-17.251.338-20.666.137.046-1.27.172-2.535.378-3.79L370.912 465s1.333 3.546 1.048 5.57z" opacity=".1"/>
        <path fill="#626696" d="M392 465.427s-8.54 1.34-15.488 2.875c-2.285.508-4.464 1.048-6.049 1.541-.979.306-1.984.523-3.001.648-7.74 1.094-21.483.084-21.483.084-3.771-12.386 4.57-27.979 4.57-27.979-.19-1.24 1.738-5.056 1.738-5.056l.038-.123 1.188-4.417h31.73l.388 1.896.808 3.854 4.982 23.933.579 2.744z"/>
        <path fill="#000" d="M397 473.116l-.194.082-3.777 1.61c-4.095 1.812-16.34 2.155-20.622 2.192a23.726 23.726 0 0 1-.395-5.114s22.305-19.57 24.755-.626c.078.64.155 1.252.233 1.856z" opacity=".1"/>
        <path fill="#626696" d="M398 470.746l-.763.345-3.718 1.663c-4.1 1.893-16.542 2.23-20.527 2.246h-1.045c-1.84-.054-3.68-1.786-3.68-2.238 0-.246-.19-1.464-.35-2.507l-.26-1.533s-8.184-3.557-12.367-6.432c-3.122-2.13-2.343-17.301-1.733-24.928.214-2.63.397-4.362.397-4.362l32.183 1.886 4.52.26 2.58.575.687.154s1.847 13.552 2.763 14.672c.916 1.119.313 4.929.206 7.09-.004.931-.106 1.859-.305 2.768 0 0 1.328 3.832 1.015 5.933a11.93 11.93 0 0 0 .397 4.408z"/>
        <path fill="#D38884" d="M252.568 461.997c-8.35-.28-2.191-17.448-1.234-19.8.958-2.35-1.432-7.972-1.432-7.972s-2.812-16.394-2.812-17.448a43.664 43.664 0 0 0-.95-6.638c-.414-1.517.13-5.007 1.088-6.501.958-1.495.82-7.45.82-7.45v-7.745l1.854-2.443 4.765 4.453 1.317 1.237 2.299 8.633-.828 12.365-.375 12.054 2.888 16.69s.942 20.831-7.4 20.565z"/>
        <path fill="#000" d="M255 393l-7-3.137v-1.233l1.823-2.63 4.68 4.795z" opacity=".1"/>
        <path fill="#4C4981" d="M251.861 375a33.041 33.041 0 0 0-1.985 6.987c-.37 2.303-1 4.556-1.876 6.719l8 3.294-4.139-17z"/>
        <path fill="#000" d="M251.861 375a33.041 33.041 0 0 0-1.985 6.987c-.37 2.303-1 4.556-1.876 6.719l8 3.294-4.139-17z" opacity=".05"/>
        <path fill="#D38884" d="M315 546.55l-.648 1.394s-.717 4.646-.717 4.754c0 .107-2.037 3.207-2.037 3.207l-5.14 1.095-2.182-.26a31.08 31.08 0 0 0-.58-3.828c-.083-.352-.167-.712-.266-1.08a28.47 28.47 0 0 0-3.585-8.16s-3.814-9.44-5.171-10.664c-1.358-1.225-6.537-13.673-5.995-16.673.297-1.662.06-7.181-.206-11.79-.221-3.759-.473-6.89-.473-6.89L300.966 490l1.526 2.388.9 1.417s0 .275-.054.72v.168a23.732 23.732 0 0 1-1.152 5.672s-.976 6.974 0 8.207c.977 1.233 4.043 17.676 4.73 25.263 0 .237.045.467.06.689.267 3.49 2.426 6.606 4.577 8.888.137.153.29.298.434.444.943.965 1.95 1.865 3.013 2.694z"/>
        <path fill="#000" d="M303.872 556.738l2.246.262 5.293-1.103s2.097-3.132 2.097-3.232c0-.1.738-4.79.738-4.79l.668-1.404.086-.17a30.198 30.198 0 0 1-3.644-2.946l-.37-.355s.786 4.551-3.274 6.587a128.606 128.606 0 0 1-4.712 2.268l.872 4.883z" opacity=".1"/>
        <path fill="#CEDDF9" d="M315 547.358l-.748 1.54s-.696 4.666-.696 4.774c0 .108-2.005 3.227-2.005 3.227L306.51 558l-2.896-.354c0-.6-.097-1.448-.246-2.48-.09-.631-.21-1.324-.367-2.064 1.07-.508 2.805-1.363 5.005-2.526 3.838-2.025 3.12-6.576 3.12-6.576.831.856 1.71 1.66 2.633 2.41.561.462.988.763 1.242.948z"/>
        <path fill="#000" d="M316 546.899l-.772 1.462s-.717 4.429-.717 4.531c0 .103-2.069 3.063-2.069 3.063l-5.2 1.045-2.987-.336c0-.57-.1-1.374-.255-2.354.637.023 1.27.104 1.89.241 0 0 7.108 1.462 7.44-3.88.2-3.026.864-4.21 1.389-4.671.579.439 1.019.724 1.281.899z" opacity=".1"/>
        <path fill="#CC8294" d="M314.756 546.9s-1.732-.385-2.064 5.095c-.33 5.48-7.266 4.01-7.266 4.01s-3.396-.844-3.426.565c.118 1.294.425 2.564.911 3.769 0 0 .196 3.263.836 4.04.64.776.233 3.663.233 3.663s.271 2.156 5.618 0c0 0 4.781-.98 8.742-6.927.128-.203-.475-.814 3.012-2.058 3.486-1.243 13.38-9.218 12.605-13.122a3.3 3.3 0 0 0-2.35-2.797 4.055 4.055 0 0 0-3.094.415c-.936.505-1.902.953-2.892 1.342a14.295 14.295 0 0 1-4.134.987c-1.085.09-2.158.295-3.2.61-1.19.393-2.68.71-3.531.408z"/>
        <path fill="#D38884" d="M275.652 508.498a9.585 9.585 0 0 0-1.985 2.284c-2.009 3.046-3.201 7.241-4.563 9.054-1.747 2.353-2.217 6.936-2.217 6.936-.461 3.046-6.925 19.037-8.657 21.93-1.731 2.894-4.178 10.592-4.178 10.592-1.485 1.843-1.393 4.569-1.247 5.878 0 .229.054.412.077.533l.039.214-.039.076-2.385 4.005-7.58-1.036-3.917-2.642c.325-.51.611-1.045.854-1.599 2.093-4.622 3.586-12.876 3.586-12.876s2.109-9.434 1.955-11.627c-.154-2.193.615-8.978.615-8.978s5.926-18.039 7.796-21a8.374 8.374 0 0 0 1.43-3.876 3.3 3.3 0 0 0-.038-.846l2.563-2.52s21.185 2.909 17.891 5.498z"/>
        <path fill="#000" d="M253 565.458s0 .212-.039.558v.269L250.562 570l-7.623-.96-3.939-2.452c.327-.473.614-.97.859-1.483 1.912-.494 6.3.918 6.3.918s4.736.827 6.725-.501l.116-.064z" opacity=".1"/>
        <path fill="#CEDDF9" d="M251.33 576.184L243.84 578l-6.84-5.067.352-2.847a5.24 5.24 0 0 0 1.266-1.143 4.584 4.584 0 0 0 .989-2.063c.404-2.092 6.929.202 6.929.202s4.764.904 6.622-.598a11.683 11.683 0 0 0 .322 4.088 3.064 3.064 0 0 0 1.1 1.637c1.896 1.352-3.25 3.975-3.25 3.975z"/>
        <path fill="#000" d="M251.315 576.196L243.832 578 237 572.965l.352-2.829a5.224 5.224 0 0 0 1.264-1.136h1.497c1.152.104 3.854 4.983 3.854 4.983 6.787.445 8.808-1.753 9.526-3.372.176.648.563 1.22 1.1 1.627 1.863 1.351-3.278 3.958-3.278 3.958z" opacity=".1"/>
        <path fill="#CC8294" d="M243.821 574.143s-2.75-5-3.924-5.1a25.044 25.044 0 0 0-2.964 0s-3.047 7.249-4.183 7.912c-1.135.663-2.75 4.077-2.75 4.077s8.076 7.813 15.893 6.342c2.491.032 4.94.642 7.155 1.783 3.626 1.89 18.727.457 20.571-2.858 1.38-2.485 1.92-4.299.709-5.625a3.245 3.245 0 0 0-2.842-.96c-1.897.26-6.164.206-9.905-4.39 0 0-6.857-6.31-7.451-6.318-.595-.008.457 5.853-10.309 5.137z"/>
        <path fill="#000" d="M303 495.421l-.06.066c-.454.494-3.725 4.024-4.694 4.281a46.525 46.525 0 0 0-4.791 2.1s-1.997 2.63-3.592 2.764c-.48.065-.951.189-1.401.368-.216-3.618-.462-6.632-.462-6.632L300.668 491l1.49 2.299c.335.928.708 1.783.827 2.056l.015.066z" opacity=".1"/>
        <path fill="#CEDDF9" d="M256.227 442.568s-5.01 6.513 0 15.148c5.01 8.634 10.287 12.99 10.287 12.99L283.571 506s4.465-2.431 6.064-2.568c1.6-.136 3.654-2.84 3.654-2.84a48.485 48.485 0 0 1 4.875-2.166c1.084-.273 4.836-4.461 4.836-4.461s-1.857-4.06-1.455-5.143c.401-1.083-1.221-3.787-1.221-3.787a22.41 22.41 0 0 1-1.076-4.188c0-1.083-1.767-3.651-1.767-3.651s-1.758-2.711-1.758-4.196c0-1.485-2.57-7.301-2.57-7.301L292.478 440l-36.251 2.568z"/>
        <path fill="#000" d="M303 493.969s-3.751 4.187-4.835 4.46c-1.663.63-3.29 1.35-4.873 2.157 0 0-2.031 2.711-3.653 2.84-1.157.249-2.276.651-3.327 1.196-1.455.666-2.759 1.378-2.759 1.378l-17.052-35.283a37.033 37.033 0 0 1-4.145-4.247 57.92 57.92 0 0 1-6.147-8.76 14.609 14.609 0 0 1-1.94-10.517 12.108 12.108 0 0 1 1.94-4.641l12.126-.856L292.473 440l.205 7.571.47 18.089s.401.908.886 2.104c.758 1.825 1.69 4.3 1.69 5.202 0 1.514 1.751 4.194 1.751 4.194s1.766 2.567 1.766 3.65c.224 1.43.585 2.834 1.076 4.194 0 0 1.622 2.696 1.22 3.786-.401 1.09 1.463 5.179 1.463 5.179z" opacity=".05"/>
        <path fill="#000" d="M275.649 508.61a9.773 9.773 0 0 0-2.005 2.339c-7.554.545-16.32-3.414-18.605-4.505.024-.288.01-.58-.039-.865l2.588-2.579s21.387 2.961 18.06 5.61z" opacity=".1"/>
        <path fill="#CEDDF9" d="M297 450.183s-1.1 3.808-1.538 5.437c-.439 1.63-1.239 9.657-1.239 9.657l-.477 2.285-7.815 37.02-1.708 8.05c-3.023 1.637-10.577-2.719-10.577-2.719-8.792.952-19.646-4.623-19.646-4.623s1.792-5.711 1.377-8.567c-.415-2.856 2.477-5.171 2.477-5.171-.685-2.582 1.777-13.869 1.777-13.869s.554-4.211 2.615-5.33c2.062-1.12-.277-2.72-.83-3.672-.27-.464-.07-1.523.2-2.497.269-.975.63-1.851.63-1.851-5.238-5.179-6.046-13.29-6.054-17.79a29.619 29.619 0 0 1 .146-3.283l11.354-1.972 24.77-4.288 2.523 7.7.638 1.934 1.377 3.549z"/>
        <path fill="#000" d="M294.887 346.205a13.656 13.656 0 0 0-1.105 3.375c-.068.299-.127.605-.202.926-2.323 1.494-3.735 1.494-6.724 1.494-1.03 0-1.599-1.957-2.562-2.15 0 0-1.457-5.229-1.868-.83-2.794-.575-5.23 1.613-7.187-.291v-.037-.747c.05-1.652-.03-3.305-.239-4.944 0 0 7.77-.045 13.627.627 3.937.433 7.008 1.21 6.26 2.577z" opacity=".1"/>
        <path fill="#D38884" d="M300 337.005c-.004 8.283-6.718 14.995-15 14.995a15.396 15.396 0 0 1-3.014-.302c-7.73-1.586-12.91-8.893-11.848-16.714 1.062-7.822 8.002-13.482 15.876-12.95 7.874.534 13.988 7.078 13.986 14.971z"/>
        <path fill="#000" d="M292 360.877c-.115 1.296-.17 2.123-.17 2.123s-24.607-1.67-20.331-5.855a9.22 9.22 0 0 0 2.253-4.145l10.658 1.772s3.015 2.342 5.383 4.598a9.459 9.459 0 0 0 2.207 1.507zM296 447.93a7.521 7.521 0 0 1-3.207-.254 5.617 5.617 0 0 1-1.3-.597c-2.052-1.273-8.886.294-8.886.294s-18.59 1.273-19.408 0c-.467-.732-3.735-.628-6.429-.405-1.086.095-2.089.206-2.77.286.318-1.75.985-3.411 1.96-4.876l12.244-.9L292.847 437l2.51 8.043c.299 1.654.643 2.887.643 2.887z" opacity=".1"/>
        <path fill="#4C4981" d="M284.504 356.166L271.267 354a3.912 3.912 0 0 1-2.49 2.166c-1.77.41-9.63 4.484-13.161 9.371l-3.524 4.88s-2.848 3.533-1.898 6.383c.949 2.85 2.035 12.457 2.035 12.457l1.36 10.716s2.574 7.737 1.761 11.127c-.812 3.39.403 17.647.403 17.647l-2.712 17.64s9.22-1.223 10.04 0c.82 1.224 19.25 0 19.25 0s6.782-1.52 8.817-.273a7.338 7.338 0 0 0 4.473.82s-1.625-5.57-.676-8.686c.95-3.116.676-8.824.676-8.824s1.36-8.277.676-9.774c-.683-1.497 1.519-6.916 1.519-6.916L305 374.87s-.866-6.787-4.708-9.12c-3.843-2.333-8.172-2.987-10.48-5.153-2.309-2.166-5.308-4.431-5.308-4.431z"/>
        <path fill="#D38884" d="M291 393.138v4.497l4.126 11.316 1.497 10.499s2.681 7.505 2.681 10.094c0 2.588 6.552 15.133 6.552 15.133s1.782 4.222.891 5.047c-.891.824-8.648 18.813 1.108 18.264 9.757-.55 6.687-19.356 6.687-19.356l-1.325-8.185s-1.872-20.448-1.872-21.952c0 0-2.411-8.72-2.674-10.628-.262-1.91-2.006-11.59-2.006-11.59L305.167 390 291 393.138z"/>
        <path fill="#000" d="M286 408l-14.496 8.25L267 423l5.997-6.06zM281 424s-6.597 4.406-9.701 4.406C268.194 428.406 261 436 261 436s10.194-6.759 10.993-6.56c.798.2 9.007-5.44 9.007-5.44zM264.784 426s-6.097 5.39-4.525 5.964C261.831 432.54 270 426 270 426h-5.216zM292.564 405s-4.594 7.113-3.35 6.999c1.242-.115 4.786-4.157 4.786-4.157L292.564 405zM293 412s-5.217 6.234-4.993 7.82C288.231 421.406 293 412 293 412zM294 415s-2.949 6.51-1.685 7.864C293.579 424.218 294 415 294 415zM289.503 399s-2.8 4.553-.756 4.863c2.044.309 2.253 0 2.253 0L289.503 399zM291 382a45.13 45.13 0 0 1-2.879 8 33.753 33.753 0 0 1-1.121-4.011 28.54 28.54 0 0 1 4-3.989zM297.992 329.652a6.855 6.855 0 0 1-1.015 1.57c-.69.62-1.3 1.322-1.82 2.09-.564 1.08-.466 2.37-.655 3.578-.188 1.208-.955 2.528-2.158 2.566a4.592 4.592 0 0 1-1.775-.528 1.792 1.792 0 0 0-1.768.053c-.348.358-.55.835-.564 1.335a17.72 17.72 0 0 0-.173 3.155c0 .423 0 .83.068 1.253.128 1.35.398 2.807-.24 4.007a4.787 4.787 0 0 1-2.483 2 14.779 14.779 0 0 1-3.483.982c-2.277.28-4.575.355-6.867.226a1.875 1.875 0 0 1-.609-.098.887.887 0 0 1-.263-.174 22.76 22.76 0 0 0 .406-3.834 15.047 15.047 0 0 1-3.738-15.823 14.969 14.969 0 0 1 12.815-9.954 14.947 14.947 0 0 1 14.33 7.596h-.008z" opacity=".1"/>
        <path fill="#1E1637" d="M292.635 317.019c-1.391-.147-2.705.608-4.081.909-2.828.631-5.724-.67-8.628-.655a15.735 15.735 0 0 0-7.092 2.134 17.11 17.11 0 0 0-4.738 3.335 7.795 7.795 0 0 0-2.246 5.246c0 1.14.328 2.31-.107 3.374a10.115 10.115 0 0 1-1.032 1.594 4.7 4.7 0 0 0-.482 3.937c.444 1.34 1.468 2.395 2.331 3.512 1.865 2.427 3.057 5.315 4.715 7.88a23.706 23.706 0 0 0 2.453 3.143c.147.175.326.319.528.424.198.072.408.106.619.1 3.56.1 7.252.177 10.523-1.232a4.898 4.898 0 0 0 2.522-2.042c.642-1.225.382-2.711.252-4.098a18.859 18.859 0 0 1 .1-4.498 2.05 2.05 0 0 1 .572-1.356 1.814 1.814 0 0 1 1.796-.054 4.65 4.65 0 0 0 1.796.54c1.23-.04 2.002-1.395 2.201-2.628.199-1.232.084-2.542.665-3.643a11.59 11.59 0 0 1 1.85-2.134 8.814 8.814 0 0 0 1.528-7.757c-.75-2.557-3.225-5.746-6.045-6.031z"/>
        <circle cx="363" cy="346" r="13" fill="#FFD2C6"/>
        <path fill="#FFD2C6" d="M356.757 352.046s.92 12.306-1.628 15.127c-2.548 2.82-9.129 8.161-9.129 8.161l2.039 8.357 11.51 1.309L373 370.798l-3.043-3.723s-2.343-7.86-.41-11.787c1.931-3.927-12.79-3.242-12.79-3.242z"/>
        <path fill="#000" d="M385 378.918l-.742 1.082-4.267-1.12L377 368.284l.175-3.08.878-1.204s4.706.106 4.498 4.163c-.2 3.557 1.947 9.407 2.449 10.755zM394 437.4s-3.242.705-6.955 1.18c-3.714.475-8.005.742-9.755-.29-2.953-1.699-18.94-1.216-23.53-1.038H353l1.187-4.252h31.694l.388 1.825 4.505.253 2.572.556.654 1.766z" opacity=".1"/>
        <path fill="#FFCDE5" d="M377.7 365s4.48.099 4.275 4.168c-.205 4.07 2.45 11.085 2.45 11.085l-1.02 2.338s-1.43 5.694-.304 7.114c1.125 1.42 5.195 1.427 2.852 13.12 0 0-.51 8.738.715 11.585 1.225 2.847 1.217 9.664 3.042 12.512 1.826 2.847 4.29 9.444 4.29 9.444s-13.242 2.954-16.733.919c-3.491-2.035-24.75-1.018-24.75-1.018s.1-3.56 0-3.963a3.343 3.343 0 0 1 .51-2.596c.715-.964 1.833-2.59 1.225-4.016-.609-1.428 1.521-3.516.403-5.725-1.118-2.21-2.487-2.642-2.213-3.85.273-1.206-.434-2.831-1.248-3.848-.814-1.018-6.32-11.76-6.32-11.76l-.913-5.019s-7.089-5.185-6.96-7.592c.13-2.407 2.678-5.823 2.678-5.823l6.845-6.681s3.803 4.061 7.431 2.642c3.628-1.42 11.546-8.238 11.546-8.238s2.822-1.518 3.042-2.642c.22-1.123 1.932-.099 1.932-.099s2.548-1.396 3.042-.903c.495.493 2.746.903 2.746.903l1.438-2.057z"/>
        <path fill="#FFD2C6" d="M339.192 386l-2.198 1.692s-2.236 3.961-2.753 11.079c-.517 7.118-2.792 17.157-2.792 17.157l-4.335 7.641s-7.134 14.721-8.06 18.637c-.925 3.915-5.167 10.525-5.167 10.525s-14.353 12.695-4.334 14.986c10.018 2.292 10.327-10.107 10.327-10.107s2.314-2.542 2.715-4.265c.4-1.722 13.111-23.834 13.111-23.834s4.443-5.942 3.51-9.106c0 0 5.784-13.378 5.784-16.694-.108-2.8-.418-5.59-.926-8.347l.926-7.012-5.808-2.352z"/>
        <path fill="#000" d="M368 414s-9.857 5.664-11.763 5.961c-1.907.297 8.34-1.212 8.34-1.212L368 414zM376 418s-13.232 4.225-19 3.46c-.03-.022 14.417 2.584 19-3.46zM376.943 420s-11.917 7.222-18.943 6.042c0 0 16.395 3.142 18.943 1.465l-7.293-1.955s8.106-4.146 7.293-5.552zM363.128 322.307c-3.457-.694-7.304-.274-10.08 1.907-2.05 1.61-3.411 4.066-5.729 5.271-1.222.511-2.473.95-3.748 1.312a10.781 10.781 0 0 0-6.592 11.602c.359 2.022 1.307 3.89 1.782 5.897.833 3.562.099 7.292-.811 10.84a114.161 114.161 0 0 1-11.38 28.162 2.992 2.992 0 0 0-.567 1.891c.12.457.36.873.696 1.206 4.742 5.461 12.444 7.33 19.672 7.582 2.669.084 5.453 0 7.801-1.297a11.714 11.714 0 0 0 3.824-3.478 18.387 18.387 0 0 0 3.526-11.87c-.191-3.424-1.346-6.865-.482-10.206.096-.463.31-.893.62-1.25.765-.763 2.072-.588 3.174-.718 3.013-.343 4.948-3.509 5.308-6.506.36-2.998-.39-6.011-.413-9.032a18.883 18.883 0 0 1 3.572-11.114c1.001-1.38 2.294-2.723 2.615-4.447.42-2.159-.826-3.738-1.904-5.439-1.683-2.654-2.501-5.744-5.063-7.765a13.655 13.655 0 0 0-5.82-2.548z" opacity=".1"/>
        <path fill="#985C7E" d="M363.134 322.307c-3.457-.694-7.305-.274-10.082 1.907-2.05 1.61-3.42 4.066-5.73 5.272-1.221.51-2.473.949-3.747 1.312a10.782 10.782 0 0 0-6.594 11.603c.36 2.021 1.308 3.89 1.782 5.896.834 3.563.1 7.293-.81 10.84a114.164 114.164 0 0 1-11.383 28.165c-.4.547-.6 1.215-.566 1.892.121.456.361.871.696 1.205 4.735 5.454 12.446 7.331 19.674 7.575 2.662.092 5.454 0 7.795-1.289a11.661 11.661 0 0 0 3.825-3.479 18.387 18.387 0 0 0 3.526-11.87c-.191-3.425-1.346-6.865-.482-10.206.093-.465.306-.896.62-1.252.765-.762 2.073-.587 3.174-.717 3.006-.343 4.95-3.509 5.309-6.507.36-2.998-.39-6.011-.413-9.032a18.883 18.883 0 0 1 3.572-11.115c1.002-1.38 2.295-2.723 2.616-4.447.421-2.159-.826-3.738-1.904-5.447-1.683-2.647-2.502-5.744-5.064-7.758a13.657 13.657 0 0 0-5.814-2.548z"/>
        <path fill="#000" d="M306.914 381.22c-.561 2.177 0 5.593 0 5.593-.14 1.528 0 9.82 0 9.82-4.59-1.369-16.277 1.367-16.277 1.367l-1.394-4.096a9.863 9.863 0 0 1-1.738-3.362 34.931 34.931 0 0 1-1.098-3.973 82.804 82.804 0 0 1-1.372-8.574c-.576-4.34 6-9.002 10.978-11.6 4.98-2.598 9.35 8.46 9.35 8.46s2.08 4.202 1.55 6.365z" opacity=".1"/>
        <path fill="#4C4981" d="M306.913 380.248c-.561 2.174 0 5.576 0 5.576-.14 1.526 0 9.81 0 9.81-4.592-1.365-16.287 1.366-16.287 1.366l-1.396-4.089a9.838 9.838 0 0 1-1.739-3.357 34.8 34.8 0 0 1-1.083-4.02 82.486 82.486 0 0 1-1.373-8.56c-.576-4.332 6.004-8.986 10.986-11.58 4.982-2.593 9.356 8.446 9.356 8.446s2.066 4.195 1.536 6.408z"/>
        <path fill="#000" d="M358 449s2.632 12.58 7 16l-7-16z" opacity=".1"/>
        <path fill="#000" d="M298.672 323.2a9.182 9.182 0 0 0-1.015-2.2c.077.192.138.376.192.56a8.7 8.7 0 0 1-1.538 7.716c-.704.63-1.329 1.343-1.86 2.123-.584 1.088-.469 2.406-.669 3.625-.2 1.218-.968 2.567-2.214 2.613a4.855 4.855 0 0 1-1.806-.536 1.842 1.842 0 0 0-1.807.053 2.012 2.012 0 0 0-.577 1.35 18.953 18.953 0 0 0-.1 4.475c.131 1.379.392 2.85-.253 4.076a4.871 4.871 0 0 1-2.537 2.024c-3.29 1.41-7.004 1.325-10.579 1.226a1.596 1.596 0 0 1-.63-.092 1.736 1.736 0 0 1-.523-.422 23.546 23.546 0 0 1-2.475-3.126c-1.684-2.552-2.868-5.426-4.743-7.84-.516-.667-1.084-1.303-1.538-1.992 0 .045 0 .091.038.137.454 1.334 1.476 2.384 2.345 3.495 1.876 2.414 3.075 5.288 4.744 7.84a23.063 23.063 0 0 0 2.475 3.126c.143.175.321.319.523.422.202.071.416.105.63.1 3.575.099 7.288.176 10.578-1.227a4.902 4.902 0 0 0 2.545-2.03c.646-1.22.377-2.698.246-4.078a18.96 18.96 0 0 1 .1-4.475c.017-.505.223-.986.577-1.349a1.858 1.858 0 0 1 1.814-.053c.556.3 1.169.482 1.799.536 1.245-.038 2.022-1.387 2.214-2.613.192-1.226.092-2.529.669-3.625a11.867 11.867 0 0 1 1.86-2.123 8.691 8.691 0 0 0 1.515-7.717z" opacity=".2"/>
        <g fill="#000" opacity=".1">
            <path d="M337.347 344.72c-.137-.48-.29-.96-.457-1.432.137.472.297.952.457 1.432zM374.539 334.053c.034.387.016.777-.054 1.158-.335 1.722-1.606 3.048-2.603 4.442a18.945 18.945 0 0 0-3.54 11.078c0 3.01.762 6.027.411 9.021-.35 2.995-2.283 6.149-5.282 6.5-1.096.129-2.39-.084-3.167.708a2.79 2.79 0 0 0-.609 1.25c-.86 3.314.282 6.78.48 10.201a18.397 18.397 0 0 1-3.51 11.848 11.726 11.726 0 0 1-3.805 3.482c-2.33 1.265-5.07 1.379-7.75 1.265-7.078-.244-14.607-2.065-19.334-7.315-.13.313-.173.656-.121.99.12.456.36.872.692 1.205 4.712 5.447 12.385 7.322 19.578 7.565 2.65.092 5.428 0 7.757-1.287a11.62 11.62 0 0 0 3.806-3.474 18.412 18.412 0 0 0 3.509-11.856c-.19-3.42-1.34-6.857-.48-10.194.092-.464.305-.895.617-1.25.761-.761 2.063-.586 3.159-.716 2.991-.343 4.925-3.504 5.283-6.499.357-2.994-.389-6.004-.412-9.02a18.907 18.907 0 0 1 3.555-11.102c.997-1.379 2.284-2.72 2.604-4.442a5.086 5.086 0 0 0-.784-3.558z"/>
        </g>
        <path fill="#6C63FF" d="M582.192 534s-28.822 14.472-13.91 31.542c0 0 1.4 3.755 5.456 3.44 0 0-.811-1.435 2.318-2.577a15.27 15.27 0 0 0 3.091-1.607 7.134 7.134 0 0 0 2.79-3.627s5.895-7.66 1.329-21.846c0 0 .587-4.01.07-4.657l-3.501 4.664s3.624 2.366 4.033 5.835c0 0-3.77-5.82-4.59-5.16-.162.136-1.738 2.554-1.738 2.554s6.274 4.13 6.746 9.508c0 0-3.54-7.51-7.357-8.599l-2.225 3.77s6.854 4.055 7.634 10.153c0 0-3.98-7.742-8.043-9.297l-1.608 4.003s6.607 4.085 7.217 9.162c0 0-5.532-8.494-7.518-8.26 0 0-1.244 3.754-1.082 4.918 0 0 4.675 3.004 4.76 6.008 0 0-4.312-5.294-4.976-4.942 0 0-.278 5.318 1.05 8.081 0 0-2.271-3.943-1.908-8.08a8.86 8.86 0 0 0-2.766 4.325s-1.244-2.929 2.851-5.617c0 0 .386-4.138.858-4.649 0 0-4.428 2.095-6.306 4.679 0 0 .688-3.845 6.692-5.753l1.546-4.055s-5.997 2.47-7.843 4.649c0 0 1.329-3.816 8.314-5.64l2.07-3.755s-5.33 1.742-7.927 3.755c0 0 2.017-3.282 8.57-4.784l1.684-2.336s-3.864 1.344-4.946 1.825c-1.082.48-1.298.24-1.298.24a14.1 14.1 0 0 1 6.954-3.056s3.748-4.581 3.509-4.814z"/>
    </g>
</svg>
