<svg xmlns="http://www.w3.org/2000/svg" xmlns:xlink="http://www.w3.org/1999/xlink" width="58" height="219" viewBox="0 0 58 219">
    <defs>
        <path id="a" d="M0 .328h85.697v98.347H0z"/>
    </defs>
    <g fill="none" fill-rule="evenodd">
        <path fill="#FAD9BE" d="M21.23 200.362c1.842-1.764 1.668.485 1.15 1.875-.84 2.263-2.605 3.603-4.557 4.035.395-.99.896-1.944 1.432-2.854.562-.955 1.173-2.288 1.975-3.056m7.168 14.83c-2.378.738-5.07 1.618-7.552.914-2.716-.768-3.916-3.578-3.83-6.262.008-.253.032-.504.062-.753 2.302-.186 4.538-1.232 6.116-3.15 1.407-1.709 2.514-4.233 2.08-6.514-.36-1.888-1.965-3.327-3.897-2.617-2.469.906-4.353 4.985-5.4 7.184a17.785 17.785 0 0 0-.91 2.297c-1.934-.399-3.723-1.664-4.673-3.79-2.385-5.344.717-11.237 2.884-16.058 2.37-5.271 4.808-10.516 7.102-15.823 2.041-4.721 3.406-9.484 3.278-14.689-.27-10.945-5.389-20.986-7.467-31.584-2.46-12.546-1.563-25.59 2.365-37.723.527-1.626-1.986-2.322-2.51-.706-4.322 13.35-5.019 27.814-1.857 41.513 1.612 6.98 4.3 13.651 5.834 20.652.787 3.59 1.257 7.29.956 10.972-.317 3.872-1.625 7.463-3.178 10.98-2.96 6.713-6.241 13.313-8.98 20.122-2.047 5.087-3.12 11.673.937 16.11a8.785 8.785 0 0 0 4.74 2.67c-.131 1.2-.089 2.421.187 3.641.583 2.588 2.233 4.812 4.68 5.807 3.133 1.274 6.645.323 9.725-.635 1.598-.496.917-3.059-.692-2.559"/>
        <path fill="#3FD8D4" d="M20.513 96l-5.013.305L10.488 96s-5.088 5.708-2.974 7.82c1.682 1.681 5.013 2.18 7.986 2.18 2.974 0 6.304-.499 7.986-2.18C25.6 101.709 20.513 96 20.513 96"/>
        <g transform="translate(-28)">
            <mask id="b" fill="#fff">
                <use xlink:href="#a"/>
            </mask>
            <path fill="#00BBC1" d="M85.697 49.5c0 27.159-19.184 49.175-42.848 49.175-23.665 0-42.85-22.016-42.85-49.174S19.185.328 42.85.328c23.664 0 42.848 22.015 42.848 49.173" mask="url(#b)"/>
        </g>
        <path fill="#3FD8D4" d="M9.822 34.736c-1.153 8.228-7.604 14.12-14.41 13.162-6.805-.96-11.388-8.407-10.234-16.634 1.153-8.228 7.604-14.12 14.41-13.162 6.805.959 11.387 8.406 10.234 16.634"/>
        <path fill="#0099AF" d="M38.08 8c3.755 7.25 5.91 15.696 5.91 24.715 0 26.954-19.23 48.803-42.955 48.803-8.476 0-16.378-2.79-23.035-7.605C-14.534 88.325-.74 98 15.044 98 38.768 98 58 76.15 58 49.197 58 31.874 50.055 16.661 38.08 8"/>
    </g>
</svg>
