<svg xmlns="http://www.w3.org/2000/svg" width="80" height="192" viewBox="0 0 80 192">
    <g fill="none" fill-rule="evenodd">
        <path fill="#815384" d="M44.718 89L40 89.274 35.282 89s-4.787 5.137-2.798 7.038C34.067 97.551 37.2 98 40 98c2.799 0 5.933-.449 7.516-1.962 1.99-1.9-2.798-7.038-2.798-7.038"/>
        <path fill="#724973" d="M80 45.5C80 70.63 62.091 91 40 91 17.908 91 0 70.63 0 45.5S17.908 0 40 0c22.091 0 40 20.37 40 45.5"/>
        <path fill="#815384" d="M34.837 31.62C33.776 39.3 27.84 44.8 21.58 43.906c-6.262-.895-10.477-7.846-9.417-15.525C13.224 20.7 19.16 15.2 25.42 16.095c6.262.895 10.477 7.846 9.417 15.526"/>
        <path fill="#683969" d="M61.325 7c3.52 6.766 5.542 14.65 5.542 23.068 0 25.156-18.03 45.549-40.271 45.549-7.947 0-15.355-2.605-21.596-7.098C12 81.97 24.931 91 39.729 91 61.97 91 80 70.607 80 45.45 80 29.284 72.551 15.085 61.325 7"/>
        <path fill="#FAD9BE" d="M51.974 183.342c-.313-3.566-3.294-6.707-6.932-6.506-1.902.106-2.071 3.128-.148 3.021 4.217-.234 5.212 5.087 2.35 7.543-3.095 2.654-7.373 1.514-10.329-.712-5.47-4.122-7.726-11.4-7.916-18.036-.44-15.492 8.81-28.659 12.625-43.172 2.264-8.613 2.507-17.585.872-26.333-.357-1.911-3.278-1.256-2.92.658 1.987 10.632.787 21.129-2.848 31.255-3.23 8.996-7.81 17.599-9.724 27.036-1.502 7.403-1.571 15.432 1.55 22.442 2.903 6.523 10 13.618 17.682 10.844 3.32-1.198 6.063-4.32 5.738-8.04"/>
    </g>
</svg>
