<svg xmlns="http://www.w3.org/2000/svg" xmlns:xlink="http://www.w3.org/1999/xlink" width="63" height="185" viewBox="0 0 63 185">
    <defs>
        <path id="a" d="M.09.2h24.377V115H.09z"/>
    </defs>
    <g fill="none" fill-rule="evenodd">
        <g transform="translate(12 70)">
            <mask id="b" fill="#fff">
                <use xlink:href="#a"/>
            </mask>
            <path fill="#FAD9BE" d="M4.46 97.394c1.545-.86 2.793 1.551 1.257 2.408-3.088 1.72-3.57 5.861-2.07 8.797 1.92 3.76 6.79 4.368 10.458 2.964 9.875-3.78 8.338-16.356 4.725-23.9-3.922-8.19-10.655-15.259-11.525-24.617-.917-9.87 3.658-18.997 7.486-27.813 2.25-5.184 4.342-10.537 4.839-16.2.513-5.831-.537-11.616-2.013-17.244-.444-1.69 2.246-2.258 2.688-.575 1.464 5.585 2.503 11.353 2.134 17.143-.37 5.783-2.288 11.285-4.546 16.59-4.555 10.7-11.057 22.54-6.258 34.276 4.102 10.033 12.812 18.12 12.832 29.575.016 8.544-6.302 17.457-15.892 16.056-4.232-.618-7.545-3.604-8.31-7.778-.698-3.805.697-7.733 4.195-9.682" mask="url(#b)"/>
        </g>
        <path fill="#EA5D70" d="M34.538 69L31 69.213 27.462 69s-3.59 3.996-2.1 5.474C26.55 75.651 28.902 76 31 76c2.1 0 4.45-.35 5.637-1.526C38.13 72.996 34.538 69 34.538 69"/>
        <path fill="#DE4B5E" d="M63 35.5C63 55.106 48.897 71 31.5 71S0 55.106 0 35.5 14.103 0 31.5 0 63 15.894 63 35.5"/>
        <path fill="#EA5D70" d="M26.872 24.715c-.83 5.76-5.475 9.885-10.375 9.213-4.9-.67-8.2-5.884-7.37-11.643.831-5.76 5.476-9.885 10.376-9.213 4.9.67 8.2 5.883 7.37 11.643"/>
        <path fill="#CE3457" d="M47.557 5c2.723 5.316 4.287 11.51 4.287 18.125 0 19.766-13.943 35.789-31.144 35.789-6.145 0-11.873-2.047-16.7-5.578C9.412 63.905 19.413 71 30.857 71 48.057 71 62 54.977 62 35.211 62 22.507 56.24 11.351 47.557 5"/>
    </g>
</svg>
