<svg xmlns="http://www.w3.org/2000/svg" xmlns:xlink="http://www.w3.org/1999/xlink" width="414" height="155" viewBox="0 0 414 155">
    <defs>
        <path id="a" d="M0 155h441V0H0z"/>
    </defs>
    <g fill="none" fill-rule="evenodd" transform="translate(-13)">
        <path fill="#F89712" d="M63 95c0-2.392-2.864-4.41-6.791-5.057 2.317-3.235 2.918-6.687 1.226-8.378-1.69-1.692-5.143-1.092-8.377 1.226C48.409 78.865 46.39 76 44 76c-2.392 0-4.41 2.865-5.058 6.79-3.234-2.317-6.686-2.917-8.378-1.225-1.69 1.691-1.091 5.143 1.226 8.378C27.865 90.59 25 92.608 25 95c0 2.392 2.865 4.41 6.79 5.057-2.317 3.235-2.917 6.687-1.226 8.378 1.692 1.691 5.144 1.092 8.378-1.226C39.59 111.134 41.608 114 44 114c2.391 0 4.41-2.866 5.058-6.79 3.234 2.317 6.687 2.916 8.377 1.225 1.692-1.691 1.091-5.143-1.226-8.378C60.136 99.41 63 97.392 63 95"/>
        <mask id="b" fill="#fff">
            <use xlink:href="#a"/>
        </mask>
        <path fill="#815384" d="M0 125h88V99H0z" mask="url(#b)"/>
        <path fill="#693267" d="M5 155h78v-30H5z" mask="url(#b)"/>
        <path fill="#522C62" d="M5 138h78v-13H5z" mask="url(#b)"/>
        <path fill="#FCB316" d="M34 154h21V99H34z" mask="url(#b)"/>
        <path fill="#693267" d="M55 154h9V99h-9z" mask="url(#b)"/>
        <path fill="#522C62" d="M55 155h9v-30h-9z" mask="url(#b)"/>
        <path fill="#3F2054" d="M55 138h9v-13h-9z" mask="url(#b)"/>
        <path fill="#DD375A" d="M184.731 32.904c-3.657 4.079-9.625 6.176-15.396 8.204-.89.312-1.771.623-2.64.936a139.891 139.891 0 0 1-11.773 3.694l.534-1.167c3.483-7.62 6.773-14.819 11.893-20.618 2.741-3.106 7.008-5.832 11.047-6.672 1.76-.365 3.476-.373 5.005.103 2.292.713 3.702 2.136 4.31 4.351.955 3.481-.298 8.18-2.98 11.169m-60.427 9.14c-.867-.313-1.749-.624-2.638-.936-5.771-2.028-11.74-4.125-15.397-8.204-2.683-2.99-3.936-7.688-2.98-11.169.61-2.215 2.018-3.638 4.31-4.35 1.529-.477 3.245-.469 5.004-.104 4.04.84 8.307 3.566 11.05 6.672 5.118 5.8 8.408 12.998 11.892 20.618l.533 1.167a139.98 139.98 0 0 1-11.774-3.694m73.027-22.965c-1.517-5.526-5.414-9.523-10.973-11.253-9.757-3.037-20.567 2.793-26.482 9.495-4.306 4.879-7.443 10.41-10.196 16.039-.116-.009-.232-.02-.352-.02h-8.017c-2.75-5.62-5.885-11.146-10.188-16.02-5.914-6.701-16.722-12.531-26.48-9.494-5.56 1.73-9.457 5.727-10.974 11.253-1.853 6.751.23 14.997 5.181 20.518 5.367 5.983 12.883 8.624 19.516 10.956.86.301 1.71.6 2.549.904 6.417 2.324 12.89 4.19 19.242 5.543l1.877-8.857 3.467-1.663 3.465 1.663L150.843 57c6.352-1.354 12.826-3.219 19.243-5.543.837-.304 1.69-.603 2.548-.904 6.632-2.332 14.15-4.973 19.516-10.956 4.952-5.52 7.034-13.767 5.18-20.518" mask="url(#b)"/>
        <path fill="#FCB316" d="M74 82h142V41H74z" mask="url(#b)"/>
        <path fill="#F89712" d="M83 155h125V82H83z" mask="url(#b)"/>
        <path fill="#F47920" d="M83 103h125V82H83z" mask="url(#b)"/>
        <path fill="#F89712" d="M162 155h13V41h-13z" mask="url(#b)"/>
        <path fill="#DE4B5E" d="M128 155h34V41h-34z" mask="url(#b)"/>
        <path fill="#F47920" d="M162 155h13V82h-13z" mask="url(#b)"/>
        <path fill="#F05823" d="M162 103h13V82h-13z" mask="url(#b)"/>
        <path fill="#00BBC1" d="M208 33h124V0H208z" mask="url(#b)"/>
        <path fill="#0099AF" d="M215 81h110V32H215z" mask="url(#b)"/>
        <path fill="#0088A7" d="M215 47h110V33H215z" mask="url(#b)"/>
        <path fill="#3FD8D4" d="M208 8h124V0H208zM208 25h124v-8H208z" mask="url(#b)"/>
        <path fill="#00789E" d="M216 47h109v-8H216z" mask="url(#b)"/>
        <path fill="#0088A7" d="M216 64h109v-8H216zM216 81h109v-8H216z" mask="url(#b)"/>
        <path fill="#724973" d="M199 117h167V81H199z" mask="url(#b)"/>
        <path fill="#623563" d="M206 155h153v-37H206z" mask="url(#b)"/>
        <path fill="#5C2B62" d="M206 136h153v-18H206z" mask="url(#b)"/>
        <path fill="#815384" d="M218 92.5a3.5 3.5 0 1 1-7 0 3.5 3.5 0 0 1 7 0M246 92.5a3.5 3.5 0 1 1-7 0 3.5 3.5 0 0 1 7 0M274 92.5a3.5 3.5 0 1 1-7 0 3.5 3.5 0 0 1 7 0M303 92.5a3.5 3.5 0 1 1-7 0 3.5 3.5 0 0 1 7 0M331 92.5a3.5 3.5 0 1 1-7 0 3.5 3.5 0 0 1 7 0M359 92.5a3.5 3.5 0 1 1-7 0 3.5 3.5 0 0 1 7 0M232 108.5a3.5 3.5 0 1 1-7 0 3.5 3.5 0 0 1 7 0M260 108.5a3.5 3.5 0 1 1-7 0 3.5 3.5 0 0 1 7 0M288 108.5a3.5 3.5 0 1 1-7 0 3.5 3.5 0 0 1 7 0M317 108.5a3.5 3.5 0 1 1-6.999.002A3.5 3.5 0 0 1 317 108.5M345 108.5a3.5 3.5 0 1 1-6.999.002A3.5 3.5 0 0 1 345 108.5" mask="url(#b)"/>
        <path fill="#623563" d="M216 128.5a3.5 3.5 0 1 1-7 0 3.5 3.5 0 1 1 7 0M244 128.5a3.5 3.5 0 1 1-6.999 0 3.5 3.5 0 0 1 6.999 0M273 128.5a3.5 3.5 0 1 1-6.999 0 3.5 3.5 0 0 1 6.999 0M301 128.5a3.5 3.5 0 1 1-6.999 0 3.5 3.5 0 0 1 6.999 0M329 128.5a3.5 3.5 0 1 1-6.999 0 3.5 3.5 0 0 1 6.999 0M358 128.5a3.5 3.5 0 1 1-6.999 0 3.5 3.5 0 0 1 6.999 0" mask="url(#b)"/>
        <path fill="#724973" d="M230 144.5a3.5 3.5 0 1 1-6.999.002A3.5 3.5 0 0 1 230 144.5M258 144.5a3.5 3.5 0 1 1-7 .001 3.5 3.5 0 0 1 7-.001M287 144.5a3.5 3.5 0 1 1-7 .001 3.5 3.5 0 0 1 7-.001M315 144.5a3.5 3.5 0 1 1-7 .001 3.5 3.5 0 0 1 7-.001M344 144.5a3.5 3.5 0 1 1-7 .001 3.5 3.5 0 0 1 7-.001" mask="url(#b)"/>
        <path fill="#F89712" d="M420.912 27.06c-2.23 2.53-5.867 3.83-9.384 5.087-.542.194-1.08.386-1.608.58a84.169 84.169 0 0 1-7.177 2.29l.325-.723c2.123-4.724 4.128-9.187 7.248-12.783 1.672-1.927 4.273-3.616 6.736-4.137 1.072-.226 2.117-.231 3.049.064 1.397.442 2.257 1.324 2.627 2.697.583 2.16-.18 5.072-1.816 6.926m-36.832 5.667c-.528-.195-1.066-.387-1.608-.581-3.518-1.257-7.155-2.558-9.384-5.086-1.635-1.854-2.399-4.766-1.816-6.926.37-1.373 1.23-2.255 2.626-2.697.932-.295 1.978-.29 3.05-.064 2.463.52 5.064 2.21 6.735 4.137 3.12 3.596 5.126 8.059 7.25 12.783.107.242.215.483.324.724a84.24 84.24 0 0 1-7.177-2.29m44.513-14.239c-.926-3.426-3.3-5.904-6.69-6.977-5.947-1.883-12.535 1.732-16.14 5.887-2.625 3.025-4.537 6.454-6.215 9.943-.071-.004-.142-.01-.215-.01h-4.886c-1.677-3.485-3.588-6.91-6.21-9.933-3.604-4.155-10.193-7.77-16.14-5.887-3.39 1.073-5.764 3.55-6.689 6.977-1.13 4.185.14 9.298 3.158 12.722 3.271 3.709 7.853 5.347 11.895 6.792.524.187 1.043.372 1.554.56A87.872 87.872 0 0 0 393.744 42l1.143-5.492 2.113-1.03 2.113 1.03L400.256 42a87.872 87.872 0 0 0 11.73-3.437c.51-.188 1.03-.373 1.553-.56 4.042-1.445 8.624-3.083 11.895-6.792 3.018-3.424 4.287-8.537 3.159-12.722" mask="url(#b)"/>
        <path fill="#DE4B5E" d="M354 58h87V33h-87z" mask="url(#b)"/>
        <path fill="#CE3457" d="M359 155h77V58h-77z" mask="url(#b)"/>
        <path fill="#BD1D50" d="M359 71h77V58h-77z" mask="url(#b)"/>
        <path fill="#FCB316" d="M387 155h21V33h-21z" mask="url(#b)"/>
        <path fill="#CE3457" d="M407 155h10V33h-10z" mask="url(#b)"/>
        <path fill="#BD1D50" d="M407 155h10V58h-10z" mask="url(#b)"/>
        <path fill="#841943" d="M407 71h10V58h-10z" mask="url(#b)"/>
    </g>
</svg>
