<svg xmlns="http://www.w3.org/2000/svg" xmlns:xlink="http://www.w3.org/1999/xlink" width="73" height="326" viewBox="0 0 73 326">
    <defs>
        <path id="a" d="M.21.087h135.06v152.586H.21z"/>
        <path id="c" d="M.49.523h125.78v141.149H.49z"/>
    </defs>
    <g fill="none" fill-rule="evenodd">
        <g transform="rotate(-14 72.687 -22.998)">
            <mask id="b" fill="#fff">
                <use xlink:href="#a"/>
            </mask>
            <path fill="#734170" d="M135.271 76.38c0 42.135-30.235 76.293-67.531 76.293-37.296 0-67.53-34.158-67.53-76.293C.21 34.244 30.443.087 67.74.087S135.27 34.244 135.27 76.38" mask="url(#b)"/>
        </g>
        <path fill="#815384" d="M77.441 53.793c1.308 12.676-6.272 23.878-16.93 25.02-10.655 1.142-20.354-8.209-21.662-20.885-1.307-12.677 6.272-23.879 16.93-25.02 10.657-1.143 20.356 8.208 21.662 20.885"/>
        <g transform="rotate(-14 112.98 -65.147)">
            <mask id="d" fill="#fff">
                <use xlink:href="#c"/>
            </mask>
            <path fill="#693267" d="M94.95.523c5.905 11.369 9.295 24.615 9.295 38.762 0 42.27-30.238 76.538-67.537 76.538-13.327 0-25.751-4.377-36.218-11.928 11.739 22.604 33.426 37.777 58.243 37.777 37.3 0 67.538-34.267 67.538-76.538 0-27.168-12.492-51.028-31.32-64.611" mask="url(#d)"/>
        </g>
        <path fill="#FAD9BE" d="M102.909 320.28c-1.564-4.535-6.479-7.65-11.164-6.203-2.45.756-1.691 4.742.786 3.977 5.433-1.678 8.457 4.917 5.516 9.044-3.182 4.46-9.14 4.37-13.721 2.438-8.483-3.579-13.79-12.31-16.189-20.88-5.6-20.006 2.214-40.143 2.49-60.261.163-11.94-2.428-23.688-7.4-34.532-1.087-2.37-4.689-.568-3.602 1.806 6.043 13.18 7.88 27.224 6.416 41.577-1.302 12.753-4.494 25.434-3.934 38.33.44 10.119 2.952 20.584 9.301 28.685 5.908 7.538 17.478 14.455 26.615 8.345 3.946-2.64 6.518-7.592 4.886-12.326"/>
        <path fill="#FCB316" d="M64.939 208.759l-5.355 1.68-5.517 1.03s-3.998 7.467-1.143 9.152c2.27 1.338 6.015.97 9.24.166 3.224-.804 6.704-2.237 8.08-4.485 1.73-2.827-5.305-7.543-5.305-7.543"/>
        <path fill="#F89712" d="M93.254 149.137c7.081 28.402-7.596 56.517-32.782 62.796-25.186 6.28-51.344-11.654-58.426-40.055-7.08-28.401 7.596-56.516 32.782-62.796 25.186-6.28 51.345 11.654 58.426 40.055"/>
        <path fill="#FCB316" d="M37.736 146.337c.915 8.817-4.324 16.601-11.704 17.387-7.38.786-14.103-5.725-15.018-14.541-.915-8.816 4.324-16.602 11.704-17.387 7.38-.786 14.103 5.724 15.018 14.54"/>
        <path fill="#F47920" d="M61.59 111.685c5.852 6.593 10.33 14.859 12.682 24.291 7.028 28.188-7.57 56.097-32.602 62.338-8.944 2.23-18.01 1.39-26.29-1.893 11.636 13.108 28.713 19.596 45.37 15.443 25.032-6.241 39.629-34.15 32.601-62.336-4.516-18.116-16.867-31.936-31.762-37.843"/>
    </g>
</svg>
