<svg xmlns="http://www.w3.org/2000/svg" xmlns:xlink="http://www.w3.org/1999/xlink" width="118" height="286" viewBox="0 0 118 286">
    <defs>
        <path id="a" d="M0 .328h85.697v98.347H0z"/>
        <path id="c" d="M.09.2h24.377V115H.09z"/>
    </defs>
    <g fill="none" fill-rule="evenodd">
        <path fill="#FAD9BE" d="M21.23 200.362c1.842-1.764 1.668.485 1.15 1.875-.84 2.263-2.605 3.603-4.557 4.035.395-.99.896-1.944 1.432-2.854.562-.955 1.173-2.288 1.975-3.056m7.168 14.83c-2.378.738-5.07 1.618-7.552.914-2.716-.768-3.916-3.578-3.83-6.262.008-.253.032-.504.062-.753 2.302-.186 4.538-1.232 6.116-3.15 1.407-1.709 2.514-4.233 2.08-6.514-.36-1.888-1.965-3.327-3.897-2.617-2.469.906-4.353 4.985-5.4 7.184a17.785 17.785 0 0 0-.91 2.297c-1.934-.399-3.723-1.664-4.673-3.79-2.385-5.344.717-11.237 2.884-16.058 2.37-5.271 4.808-10.516 7.102-15.823 2.041-4.721 3.406-9.484 3.278-14.689-.27-10.945-5.389-20.986-7.467-31.584-2.46-12.546-1.563-25.59 2.365-37.723.527-1.626-1.986-2.322-2.51-.706-4.322 13.35-5.019 27.814-1.857 41.513 1.612 6.98 4.3 13.651 5.834 20.652.787 3.59 1.257 7.29.956 10.972-.317 3.872-1.625 7.463-3.178 10.98-2.96 6.713-6.241 13.313-8.98 20.122-2.047 5.087-3.12 11.673.937 16.11a8.785 8.785 0 0 0 4.74 2.67c-.131 1.2-.089 2.421.187 3.641.583 2.588 2.233 4.812 4.68 5.807 3.133 1.274 6.645.323 9.725-.635 1.598-.496.917-3.059-.692-2.559"/>
        <path fill="#3FD8D4" d="M20.513 96l-5.013.305L10.488 96s-5.088 5.708-2.974 7.82c1.682 1.681 5.013 2.18 7.986 2.18 2.974 0 6.304-.499 7.986-2.18C25.6 101.709 20.513 96 20.513 96"/>
        <g transform="translate(-28)">
            <mask id="b" fill="#fff">
                <use xlink:href="#a"/>
            </mask>
            <path fill="#00BBC1" d="M85.697 49.5c0 27.159-19.184 49.175-42.848 49.175-23.665 0-42.85-22.016-42.85-49.174S19.185.328 42.85.328c23.664 0 42.848 22.015 42.848 49.173" mask="url(#b)"/>
        </g>
        <path fill="#3FD8D4" d="M9.822 34.736c-1.153 8.228-7.604 14.12-14.41 13.162-6.805-.96-11.388-8.407-10.234-16.634 1.153-8.228 7.604-14.12 14.41-13.162 6.805.959 11.387 8.406 10.234 16.634"/>
        <path fill="#0099AF" d="M38.08 8c3.755 7.25 5.91 15.696 5.91 24.715 0 26.954-19.23 48.803-42.955 48.803-8.476 0-16.378-2.79-23.035-7.605C-14.534 88.325-.74 98 15.044 98 38.768 98 58 76.15 58 49.197 58 31.874 50.055 16.661 38.08 8"/>
        <path fill="#815384" d="M82.718 124l-4.718.274-4.718-.274s-4.787 5.137-2.798 7.038C72.067 132.551 75.2 133 78 133c2.799 0 5.933-.449 7.516-1.962 1.99-1.9-2.798-7.038-2.798-7.038"/>
        <path fill="#724973" d="M118 80.5c0 25.13-17.909 45.5-40 45.5-22.092 0-40-20.37-40-45.5S55.908 35 78 35c22.091 0 40 20.37 40 45.5"/>
        <path fill="#815384" d="M72.837 66.62C71.776 74.3 65.84 79.8 59.58 78.906c-6.262-.895-10.477-7.846-9.417-15.525C51.224 55.7 57.16 50.2 63.42 51.095c6.262.895 10.477 7.846 9.417 15.526"/>
        <path fill="#683969" d="M99.325 42c3.52 6.766 5.542 14.65 5.542 23.068 0 25.156-18.03 45.549-40.271 45.549-7.947 0-15.355-2.605-21.596-7.098C50 116.97 62.931 126 77.729 126 99.97 126 118 105.607 118 80.45c0-16.167-7.449-30.366-18.675-38.45"/>
        <path fill="#FAD9BE" d="M92.974 236.342c-.313-3.566-3.294-6.707-6.932-6.506-1.902.106-2.071 3.128-.148 3.021 4.217-.234 5.212 5.087 2.35 7.543-3.095 2.654-7.373 1.514-10.329-.712-5.47-4.122-7.726-11.4-7.916-18.036-.44-15.492 8.81-28.659 12.625-43.172 2.264-8.613 2.507-17.585.872-26.333-.357-1.911-3.278-1.256-2.92.658 1.987 10.632.787 21.129-2.848 31.255-3.23 8.996-7.81 17.599-9.724 27.036-1.502 7.403-1.571 15.432 1.55 22.442 2.903 6.523 10 13.618 17.682 10.844 3.32-1.198 6.063-4.32 5.738-8.04"/>
        <g transform="translate(36 171)">
            <mask id="d" fill="#fff">
                <use xlink:href="#c"/>
            </mask>
            <path fill="#FAD9BE" d="M4.46 97.394c1.545-.86 2.793 1.551 1.257 2.408-3.088 1.72-3.57 5.861-2.07 8.797 1.92 3.76 6.79 4.368 10.458 2.964 9.875-3.78 8.338-16.356 4.725-23.9-3.922-8.19-10.655-15.259-11.525-24.617-.917-9.87 3.658-18.997 7.486-27.813 2.25-5.184 4.342-10.537 4.839-16.2.513-5.831-.537-11.616-2.013-17.244-.444-1.69 2.246-2.258 2.688-.575 1.464 5.585 2.503 11.353 2.134 17.143-.37 5.783-2.288 11.285-4.546 16.59-4.555 10.7-11.057 22.54-6.258 34.276 4.102 10.033 12.812 18.12 12.832 29.575.016 8.544-6.302 17.457-15.892 16.056-4.232-.618-7.545-3.604-8.31-7.778-.698-3.805.697-7.733 4.195-9.682" mask="url(#d)"/>
        </g>
        <path fill="#EA5D70" d="M58.538 170l-3.538.213-3.538-.213s-3.59 3.996-2.1 5.474C50.55 176.651 52.902 177 55 177c2.1 0 4.45-.35 5.637-1.526 1.492-1.478-2.099-5.474-2.099-5.474"/>
        <path fill="#DE4B5E" d="M87 136.5c0 19.606-14.103 35.5-31.5 35.5S24 156.106 24 136.5 38.103 101 55.5 101 87 116.894 87 136.5"/>
        <path fill="#EA5D70" d="M50.872 125.715c-.83 5.76-5.475 9.885-10.375 9.213-4.9-.67-8.2-5.884-7.37-11.643.831-5.76 5.476-9.885 10.376-9.213 4.9.67 8.2 5.883 7.37 11.643"/>
        <path fill="#CE3457" d="M71.557 106c2.723 5.316 4.287 11.51 4.287 18.125 0 19.766-13.943 35.789-31.144 35.789-6.145 0-11.873-2.047-16.7-5.578C33.412 164.905 43.413 172 54.857 172 72.057 172 86 155.977 86 136.211c0-12.704-5.76-23.86-14.443-30.211"/>
    </g>
</svg>
