<svg xmlns="http://www.w3.org/2000/svg" xmlns:xlink="http://www.w3.org/1999/xlink" width="353" height="355" viewBox="0 0 353 355">
    <defs>
        <path id="a" d="M.936 3.283c.05.52.331.829.812 1.319C2.833 3.565 4.31 2.772 6.11 2.003c-.365-.415-.486-.753-.563-1.345-1.955.702-2.984 1.26-4.61 2.625"/>
        <path id="c" d="M.58.548c.525 1.16 1.148 1.807 2.32 2.709.458-.24.78-.565 1.047-.977C2.777 1.533 2.218 1.082 1.66.043 1.248.408.937.572.58.548"/>
        <path id="e" d="M3 .084C2.655 4.375 1.988 6.858.173 10.491c1.897.046 3.155.714 5.397 2.522C7.385 9.3 8.068 6.104 8.457 1.813 7.292.492 5.875.073 3.67.073c-.215 0-.438.004-.67.011"/>
        <path id="g" d="M.733 1.07c.299.515.53.766 1.198.998.861-.613 1.423-.927 2.39-1.366-.3-.23-.452-.444-.535-.645C2.694.591 1.943.801.732 1.069"/>
        <path id="i" d="M.026 7.435C4.957 9.74 7.72 11.437 11.97 14.591c.593-1.804 1.41-2.933 2.291-3.744C9.27 7.376 6.67 4.637 2.815.056.732 2.494-.116 4.049.025 7.436"/>
        <path id="k" d="M.822 2.14c.731.585 1.051 1.123 1.041 2.245 1.105-.548 1.7-1.17 2.712-2.367C4.55 1.14 4.27.723 3.493.1 2.615 1.118 1.917 1.787.822 2.14"/>
        <path id="m" d="M.632 11.607c2.037 1.99 3.591 2.58 4.742 2.88.601-5.065 2.055-7.977 4.683-12.158C8.62 2.165 7.4 1.639 6.166.055 3.433 4.162 2.197 7.132.632 11.607"/>
        <path id="o" d="M.377.573h17.372V52.59H.377z"/>
        <path id="q" d="M0 .847h64.72v29.317H0z"/>
        <path id="s" d="M.231.654h38.976V6.94H.23z"/>
        <path id="u" d="M0 355h352.56V.573H0z"/>
    </defs>
    <g fill="none" fill-rule="evenodd">
        <path fill="#F9BE49" d="M268.37 178.98c-1.027 2.71-.427 5.13 1.445 8.663 5.842-2.32 9.542-3.011 15.524-2.867-1.228-2.648-1.207-4.82-.365-9.093-6.088-.09-10.729 1.043-16.603 3.296"/>
        <path fill="#D4E037" d="M249.83 165.257c.518.475.872.996 1.227 1.779 1.114-1.384 1.928-2.255 3.012-3.06-.157-.92-.47-1.335-.99-1.836-.82.548-2.022 1.688-3.249 3.117"/>
        <path fill="#007DF7" d="M271.255 168.006c1.78 1.141 3.325 1.873 5.086 1.946.822-1.145 1.104-2.025 1.114-3.12-2.12-.264-3.276-.72-4.989-1.96-.009 1.465-.232 2.32-1.21 3.134"/>
        <path fill="#F9BE49" d="M155.312 79.07c1.078-1.79 2.885-3.133 7.763-4.456-.902-2.005-2.231-3.493-4.563-4.924-3.492 1.488-5.452 2.66-7.903 5.425 2.094.812 3.082 1.813 4.703 3.955"/>
        <path fill="#007DF7" d="M212.452 78.752c-.255-.992-.562-1.758-1.16-2.367-.664.133-1.05.35-1.411.734.662.793.921 1.335 1.12 2.338.48-.514.84-.742 1.45-.705"/>
        <path fill="#EF275D" d="M259.88 240.784c.711.235 1.103.55 1.408 1.401.674-.725.946-1.36 1.37-2.547-.261-.655-.589-.89-1.346-1.142-.374 1.015-.71 1.715-1.433 2.288"/>
        <path fill="#F9BE49" d="M216.48 275.425c.175-.18.372-.289.708-.294-.242-.793-.498-1.267-.914-1.94-.477.072-.717.222-.879.347.596.603.822 1.1 1.085 1.887"/>
        <path fill="#D4E037" d="M239.837 111.812c-1.15.366-1.715 1.134-2.599 2.423 2.87 1.828 5.374 4.632 7.973 8.148.759-1.002 1.469-1.436 2.773-1.9-2.527-3.887-4.28-5.838-8.147-8.671"/>
        <path fill="#007DF7" d="M43.48 142.28c-.386-1.848-.472-2.82.002-4.35-.743-.055-1.195-.203-1.51-.572-.626 1.617-.662 2.835-.426 4.833.668.218 1.285.218 1.935.09M106.563 288.687c-.45.687-.421 1.332-.34 2.387 2.283-.268 4.787.131 7.643.866-.026-.853.165-1.387.653-2.19-2.976-.956-4.724-1.232-7.956-1.063"/>
        <path fill="#F9BE49" d="M188.254 64.115c-1.666.312-2.69 1.354-3.877 3.38 2.943 2.236 4.42 3.89 6.178 6.953.944-1.43 2.034-2.086 4.423-2.966-1.82-3.098-3.803-5.093-6.724-7.367"/>
        <g transform="translate(68 101)">
            <mask id="b" fill="#fff">
                <use xlink:href="#a"/>
            </mask>
            <path d="M.936 3.283c.05.52.331.829.812 1.319C2.833 3.565 4.31 2.772 6.11 2.003c-.365-.415-.486-.753-.563-1.345-1.955.702-2.984 1.26-4.61 2.625" mask="url(#b)"/>
        </g>
        <path fill="#F9BE49" d="M68.313 240.53c4.284 1.477 6.642 2.701 10.23 5.548 1.42-1.74 2.325-3.472 2.448-5.564-2.219-2.142-5.492-4.134-10.117-6.376.097 3.3-.383 4.998-2.561 6.391"/>
        <path fill="#D4E037" d="M278.944 127.336c.428 2.829-.307 5.839-4.307 11.529 2.707 1.312 5.414 1.711 9.127 1.16 2.39-4.642 3.437-7.602 3.61-12.672-2.925.989-4.843.81-8.43-.017M247.429 268.023c1.827-2.502 2.917-3.679 5.304-4.774-.754-.973-1.074-1.692-.97-2.482-2.658 1.006-4.183 2.298-6.357 4.782.47 1.06 1.149 1.82 2.023 2.474"/>
        <path fill="#F9BE49" d="M275.27 220.382c-.78.129-1.39.315-1.896.735.055.522.194.835.465 1.142.654-.458 1.088-.62 1.872-.707-.362-.408-.511-.698-.442-1.17"/>
        <path fill="#007DF7" d="M234.993 251.23c.947-.707 1.4-1.283 1.885-2.536-1.42-.411-2.167-.92-2.84-1.707-.939.596-1.47 1.156-2.185 2.116 1.239.52 2.026 1.1 3.14 2.127"/>
        <path fill="#F9BE49" d="M13.333 185.495c.792 4.42 1.755 7.069 3.527 10.39 2.537-1.58 3.843-3.025 4.759-4.667-1.534-1.751-1.915-3.525-2.268-6.327-2.281 1.198-3.747 1.238-6.018.604"/>
        <path fill="#D4E037" d="M259.793 204.046c-.433-1-.596-1.542-.5-2.461-.43.053-.704.024-.925-.148-.17.987-.05 1.681.315 2.785.405.045.756-.026 1.11-.176"/>
        <path fill="#F9BE49" d="M239.871 100.535c4.257-1.028 6.813-1.26 11.212-.807.256-2.155.094-4.039-.891-5.808-2.919-.59-6.616-.506-11.547.075 1.79 2.636 2.28 4.271 1.226 6.54M256.074 258.573c.172-.672.326-1.046.716-1.63-.282-.192-.555-.309-.876-.302-.297.366-.56.888-.843 1.62.499-.055.763-.003 1.003.312"/>
        <path fill="#007DF7" d="M208.745 68.227c.694-1.397 1.11-2.586 1.027-3.886-.9-.516-1.563-.657-2.363-.58-.027 1.579-.27 2.463-1.042 3.818 1.068-.106 1.71-.009 2.378.648"/>
        <path fill="#EF275D" d="M83.34 134.715c3.274-2.562 4.774-4.333 5.58-8.736-5.397-4.344-8.304-7.305-12.616-12.553-1.256 2.157-2.585 3.385-3.91 4.186 5.133 5.867 7.54 10.124 10.947 17.103"/>
        <path fill="#007DF7" d="M193.46 292.197c-1.198 1.859-2.624 3.234-4.859 4.753 4.869 2.74 7.986 4.827 11.044 7.782 2.76-.972 3.88-2.166 5.155-4.051-2.127-2.267-6.281-5.41-11.34-8.484"/>
        <path fill="#D4E037" d="M135.989 102.359c3.88 2.221 5.74 3.593 7.697 6.85 1.271-1.24 2.248-1.819 3.396-1.798-1.874-3.658-3.97-5.64-7.88-8.362-1.44.848-2.418 1.948-3.213 3.31"/>
        <path fill="#F9BE49" d="M288.732 175.366c.043-.501.189-.804.691-1.131-.571-.33-1.023-.411-1.857-.507-.384.27-.485.519-.534 1.052.714.088 1.22.202 1.7.586"/>
        <path fill="#D4E037" d="M279.63 204.954c.367.496.745.688 1.42.704.424-.495.658-.907.695-1.407-.558-.414-.807-.846-1.163-1.624-.23.933-.401 1.502-.952 2.327"/>
        <path fill="#EF275D" d="M158.378 286.972c-1.911.338-3.673.137-5.834-1.369-2.033 6.14-2.556 10.297-2.954 16.456 3.345 1.71 5.562 1.86 7.152 1.804-1.055-6.529-.237-10.698 1.636-16.891"/>
        <path fill="#D4E037" d="M93.449 83.681c-.734-.268-1.065-.635-1.474-1.252-.655 1.097-1.183 2.269-1.249 2.857.513.335 1.022.495 1.75.619.066-.669.39-1.256.973-2.224"/>
        <path fill="#EF275D" d="M64.906 201.535c.132-.935.49-1.722 1.51-2.498-2.526-1.865-4.366-2.734-7.148-3.846-1.294 1.293-1.698 2.298-1.91 3.043 3.171.495 4.973 1.503 7.548 3.301"/>
        <g transform="translate(172 283)">
            <mask id="d" fill="#fff">
                <use xlink:href="#c"/>
            </mask>
            <path d="M.58.548c.525 1.16 1.148 1.807 2.32 2.709.458-.24.78-.565 1.047-.977C2.777 1.533 2.218 1.082 1.66.043 1.248.408.937.572.58.548" mask="url(#d)"/>
        </g>
        <path fill="#EF275D" d="M119.674 278.248c.167 1.115-.105 1.782-.674 2.716 2.039.1 4.094-.008 4.975-.318.09-.88-.064-1.632-.43-2.646-.994.364-2.066.344-3.87.248"/>
        <g transform="translate(49 141)">
            <mask id="f" fill="#fff">
                <use xlink:href="#e"/>
            </mask>
            <path d="M3 .084C2.655 4.375 1.988 6.858.173 10.491c1.897.046 3.155.714 5.397 2.522C7.385 9.3 8.068 6.104 8.457 1.813 7.292.492 5.875.073 3.67.073c-.215 0-.438.004-.67.011" mask="url(#f)"/>
        </g>
        <g>
            <path fill="#EF275D" d="M197.398 293.093c1.481-2.933 1.958-4.702 1.064-8.12-5.303-1.294-8.37-2.437-13.2-4.74-.176 1.965-.715 3.29-1.393 4.307 5.623 2.471 8.763 4.707 13.53 8.553"/>
            <path fill="#D4E037" d="M159.709 301.156c.482.26.838.614 1.057 1.326 1.52-1.009 2.358-1.845 3.518-3.143-.445-.966-.912-1.388-1.275-1.652-.9 1.634-1.809 2.42-3.3 3.47"/>
            <path fill="#F9BE49" d="M72.728 264.145c.45-.477.64-.79.661-1.497-.944-.55-1.467-.942-2.264-1.66-.144.366-.323.59-.51.747.94.793 1.415 1.401 2.113 2.41"/>
            <path fill="#007DF7" d="M226.412 107.71c.208 6.21 1.002 10.024 2.765 14.923 3.782-1.66 5.851-3.376 7.428-5.44-1.752-2.705-1.92-5.21-1.848-9.115-3.356 1.185-5.366.952-8.345-.368M152.523 311.556c-2.16 1.324-3.082 2.804-3.401 5.573 1.864 1.92 3.468 3.048 5.491 3.379 1.898-2.137 3.757-3.004 7.063-4.18-3.726-1.29-5.992-2.2-9.153-4.772"/>
            <path fill="#EF275D" d="M276.918 201.218c.52 1.02 1.32 1.427 2.65 2.053 1.246-2.968 3.455-5.746 6.307-8.724-1.047-.554-1.56-1.152-2.194-2.299-3.205 2.968-4.74 4.911-6.763 8.97"/>
            <path fill="#F9BE49" d="M257.569 127.474c-1.901 1.515-3.407 1.799-5.698 1.88 1.835 3.523 4.074 6.835 5.524 7.966 1.717-.822 2.958-1.913 4.472-3.649-1.661-1.258-2.684-3.074-4.298-6.197"/>
            <path fill="#007DF7" d="M183.118 100.728c-1.565-4.367-2.112-6.706-1.47-10.59-1.83.122-2.985-.084-3.878-.873-.977 4.149-.654 7.125.601 11.907 1.7.302 3.207.094 4.747-.444M142.324 87.073c2.354.969 3.507 1.606 4.849 3.304.627-.798 1.135-1.196 1.786-1.27-1.328-1.93-2.658-2.895-5.066-4.143-.75.584-1.22 1.28-1.569 2.109"/>
            <path fill="#D4E037" d="M212.37 100.582c-.123-2.105-1.243-3.53-3.536-5.307-3.191 3.29-5.443 4.864-9.457 6.567 1.603 1.387 2.238 2.831 2.95 5.916 4.07-1.77 6.814-3.916 10.043-7.176"/>
            <path fill="#EF275D" d="M38.77 194.627c-1.653 1.146-2.259 2.772-2.568 5.541 4.268.983 6.665 2.051 10.047 4.505.334-2.01 1.198-3.248 3.356-5.362-3.462-2.464-6.573-3.653-10.835-4.684"/>
            <path fill="#F9BE49" d="M268.879 169.029c2.82-.549 4.717-.225 7.309 2.034.91-3.68.649-6.31-.137-11.066-2.094-1.698-3.627-1.865-6.625-1.291.638 4.084.805 7.057-.547 10.323"/>
        </g>
        <g transform="translate(72 91)">
            <mask id="h" fill="#fff">
                <use xlink:href="#g"/>
            </mask>
            <path d="M.733 1.07c.299.515.53.766 1.198.998.861-.613 1.423-.927 2.39-1.366-.3-.23-.452-.444-.535-.645C2.694.591 1.943.801.732 1.069" mask="url(#h)"/>
        </g>
        <g transform="translate(159 68)">
            <mask id="j" fill="#fff">
                <use xlink:href="#i"/>
            </mask>
            <path d="M.026 7.435C4.957 9.74 7.72 11.437 11.97 14.591c.593-1.804 1.41-2.933 2.291-3.744C9.27 7.376 6.67 4.637 2.815.056.732 2.494-.116 4.049.025 7.436" mask="url(#j)"/>
        </g>
        <g>
            <path fill="#EF275D" d="M238.502 88.583c1.992-2.646 5.077-4.47 13.015-5.753-1.103-3.312-2.962-5.879-6.418-8.522-5.774 1.774-9.066 3.299-13.394 7.259 3.181 1.626 4.58 3.367 6.797 7.016"/>
            <path fill="#D4E037" d="M251.445 277.135c.049-.358-.085-.61-.317-1.012-.858.54-1.932.86-3.206 1.114.17.334.196.583.154.993 1.367-.187 2.112-.41 3.37-1.095M101.1 303.222c-.06 3.968.33 6.43 1.307 9.608 2.464-.942 3.839-1.972 4.908-3.243-1.033-1.777-1.064-3.38-.9-5.871-2.177.654-3.453.44-5.316-.494"/>
            <path fill="#EF275D" d="M64.63 249.579c.368.584.774.83 1.525.906.513-.517.813-.96.894-1.515-.587-.51-.83-1.014-1.161-1.91-.335 1.023-.572 1.644-1.257 2.519"/>
        </g>
        <g transform="translate(71 173)">
            <mask id="l" fill="#fff">
                <use xlink:href="#k"/>
            </mask>
            <path d="M.822 2.14c.731.585 1.051 1.123 1.041 2.245 1.105-.548 1.7-1.17 2.712-2.367C4.55 1.14 4.27.723 3.493.1 2.615 1.118 1.917 1.787.822 2.14" mask="url(#l)"/>
        </g>
        <g>
            <path fill="#007DF7" d="M143.777 51.479c.278-.027.528.024.82.266.366-.855.49-1.445.622-2.325-.459-.285-.775-.334-1.005-.344.073.949-.095 1.537-.437 2.403"/>
            <path fill="#D4E037" d="M240.652 218.893c1.191 2.067 1.534 4.626.158 10.263 2.5.195 4.72-.322 7.436-1.883.445-4.334.358-6.95-1.048-10.936-1.968 1.657-3.513 2.103-6.546 2.556M121.883 76.039c-1.625 1.89-4.026 3.115-10.051 3.7.672 2.539 1.946 4.557 4.42 6.704 4.422-1.057 6.967-2.046 10.407-4.813-2.312-1.374-3.283-2.746-4.776-5.591M114.546 104.526c-.756.436-1.23.622-2.095.784.071.425.208.777.495 1.059.589-.05 1.291-.275 2.2-.662-.489-.404-.673-.688-.6-1.18"/>
            <path fill="#007DF7" d="M237.477 284.83c-2.026-2.473-4.031-3.372-7.537-3.288-2.063 2.672-3.189 4.877-3.246 7.47 2.992 2.004 4.397 4.182 6.439 8.117.957-4.89 1.694-7.888 4.344-12.298"/>
        </g>
        <g transform="translate(256 273)">
            <mask id="n" fill="#fff">
                <use xlink:href="#m"/>
            </mask>
            <path d="M.632 11.607c2.037 1.99 3.591 2.58 4.742 2.88.601-5.065 2.055-7.977 4.683-12.158C8.62 2.165 7.4 1.639 6.166.055 3.433 4.162 2.197 7.132.632 11.607" mask="url(#n)"/>
        </g>
        <g>
            <path fill="#007DF7" d="M58.758 227.309c-3.67-.16-5.933-1.13-8.49-4.713-2.226 4.3-2.679 7.649-3.116 13.795 2.1 2.737 3.956 3.406 7.857 3.588.425-5.267 1.095-9.014 3.749-12.67"/>
            <path fill="#EF275D" d="M100.222 260.939c-2.17-1.803-4.587-2.005-8.427-1.375.298 6.15-.23 9.802-2.242 15.312 2.827-.31 4.82.388 8.484 2.51 1.999-5.622 2.415-10.287 2.185-16.447"/>
            <path fill="#D4E037" d="M221.42 98.945c.573.075.974-.143 1.616-.522-.878-1.373-1.402-3.094-1.82-5.144-.533.28-.929.323-1.588.26.314 2.195.682 3.394 1.792 5.406"/>
            <path fill="#007DF7" d="M134.043 280.437c3.19.618 5.34.014 8.026-2.335-.115-3.433-.667-5.894-2.3-7.96-3.64.382-6.151-.408-10.3-2.16 2.422 4.45 3.788 7.277 4.574 12.455M49.983 175.552c.354.496.505 1.14.291 2.608.642-.012 1.194-.198 1.847-.663.005-1.114-.08-1.777-.537-2.758-.458.472-.841.623-1.601.813"/>
            <path fill="#00184B" d="M83.077 72.609L68.398 47.731l-3.842 3.7zM240.558 271.881l22.626 59.228 7.62-6.68z"/>
            <g transform="translate(218.647)">
                <mask id="p" fill="#fff">
                    <use xlink:href="#o"/>
                </mask>
                <path fill="#00184B" d="M.377 52.59L17.749 3.219 9.633.572z" mask="url(#p)"/>
            </g>
            <path fill="#00184B" d="M274.031 247.262l55.172 50.07 4.451-11.074zM41.727 208.043l-25.922 1.29 1.327 4.621zM83.108 276.82l-12.842 27.848 7.787-3.45zM133.446 65.388c-.066-.677-13.973-40.988-13.973-40.988l-10.44-6.95 24.413 47.938z"/>
            <g transform="translate(0 99.191)">
                <mask id="r" fill="#fff">
                    <use xlink:href="#q"/>
                </mask>
                <path fill="#00184B" d="M15.935 14.908L64.72 30.164-.001.847z" mask="url(#r)"/>
            </g>
            <path fill="#00184B" d="M254.125 107.661l66.734-34.919-9.086-10.563zM174.178 340.174l-5.035-57.028L165.47 355z"/>
            <g transform="translate(313.353 196.642)">
                <mask id="t" fill="#fff">
                    <use xlink:href="#s"/>
                </mask>
                <path fill="#00184B" d="M.231 1.267L38.439 6.94l.768-6.286z" mask="url(#t)"/>
            </g>
            <path fill="#00184B" d="M279.99 143.33l30.282-3.282-1.869-5.325zM107.647 150.782c0 .049.35.014 1.055-.108.703-.124 1.515-.256 2.44-.402.047-1.411.11-2.798.18-4.163a81.586 81.586 0 0 0 0-8.468c-.07-1.409-.157-2.822-.253-4.233a66.364 66.364 0 0 1-.218-3.869c-.05-1.508-.122-2.944-.219-4.308-.099-1.605-.17-3.237-.217-4.892 0-.096.071-.193.217-.29.292-.196.703-.293 1.237-.293.438 0 .922.06 1.456.18a8.1 8.1 0 0 0 1.82.185c.533 0 .97.5 1.31 1.495.34 1 .63 2.325.874 3.98.244 1.46.39 3.09.437 4.892.047.68.085 1.4.11 2.152.022.757.036 1.521.036 2.3 0 .683.012 1.34.038 1.97.022.634.035 1.292.035 1.972v3.944c0 1.167-.026 2.36-.073 3.576l-.146 2.337c1.845-.39 4.088-.863 6.735-1.424 2.642-.558 5.178-1.06 7.607-1.498.047-1.36.11-2.699.18-4.015.075-1.313.112-2.652.112-4.014 0-1.264-.026-2.556-.073-3.869-.05-1.313-.1-2.605-.146-3.87-.05-.778-.099-1.68-.146-2.702l-.146-2.955c-.05-.95-.098-1.765-.145-2.445a51.749 51.749 0 0 1-.073-1.095c-.05-.099 0-.111.146-.038.145.073.218.085.218.038.292-.146.583-.22.875-.22.24 0 .519.05.836.145.316.098.618.317.908.658.099.68.184 1.375.257 2.082.072.704.109 1.421.109 2.15 0 1.22.06 2.471.18 3.761.122 1.291.231 2.544.328 3.762.098 2.042.17 4.051.219 6.023.049 1.968.097 3.976.146 6.021 2.28-.39 3.592-.461 3.93-.22.049.051.085.171.11.366.024.195.048.402.072.62.025.22.039.428.039.621v.218c-.632.245-1.3.452-2.003.623a21.05 21.05 0 0 1-2.148.4v5.55c0 1.02.036 2.128.11 3.321.072 1.192.145 2.325.218 3.394.073 1.07.146 1.96.218 2.664.073.707.084 1.06.035 1.06-1.454.39-2.45.51-2.983.363-.534-.146-.838-.473-.91-.986-.072-.51-.037-1.189.108-2.041.146-.853.169-1.79.075-2.813-.146-1.555-.291-3.088-.437-4.597a47.814 47.814 0 0 1-.219-4.601v-.95h-1.239c-2.183.099-4.416.464-6.698 1.096a92.903 92.903 0 0 0-6.478 2.045 578.048 578.048 0 0 0-.108 5.036c-.026 1.413-.012 2.363.035 2.848.047.829.06 1.655.038 2.482-.026.83-.038 1.655-.038 2.481 0 .878-.012 1.755-.035 2.628-.026.875-.012 1.753.035 2.63 0 .146.047.402.146.765.097.367.121.575.073.622-.243.245-.703.402-1.383.475a7.19 7.19 0 0 1-2.147-.112 6.742 6.742 0 0 1-2.039-.729c-.609-.34-.96-.804-1.055-1.387-.196-.973-.23-2.053-.11-3.249.12-1.19.157-2.274.11-3.247a42.355 42.355 0 0 1 .037-3.98 31.658 31.658 0 0 0-.037-3.978 3.596 3.596 0 0 1-.073-.729v-.877a38.647 38.647 0 0 1-3.095 1.314c-1.043.39-2.074.68-3.093.875 0-.049-.097-.096-.291-.144-.193-.05-.424-.112-.69-.183a4.487 4.487 0 0 0-.84-.146 8.625 8.625 0 0 0-.655-.037c-.146 0-.338-.073-.581-.22a2.844 2.844 0 0 1-.656-.547c-.195-.22-.316-.439-.363-.658-.049-.218 0-.4.146-.546.146-.147.569-.33 1.273-.549.703-.219 1.455-.438 2.256-.656a54.337 54.337 0 0 1 2.147-.548l.947-.22zM167.415 149.395c.338.1.654.207.946.329.291.122.534.268.729.437.192.172.291.404.291.694 0 .293-.123.658-.364 1.096-.292.389-.486.705-.582.949-.39.73-.79 1.655-1.202 2.772-.413 1.122-.838 2.022-1.276 2.703-.53.683-.957 1.313-1.272 1.898-.317.583-.813 1.143-1.494 1.68-.338.241-.763.387-1.273.436a4.46 4.46 0 0 1-1.418-.071c-1.164-.246-2.088-.916-2.768-2.01-.68-1.093-1.284-2.736-1.82-4.928a1.925 1.925 0 0 0-.18-.29 3.014 3.014 0 0 1-.257-.438 16.26 16.26 0 0 1-1.675 1.204 7.693 7.693 0 0 0-1.6 1.35l-2.183 2.117c-.826.83-1.87 1.486-3.13 1.972-.537.245-1.12.292-1.75.146a5.112 5.112 0 0 1-1.82-.84 6.87 6.87 0 0 1-1.563-1.57 6.011 6.011 0 0 1-.983-2.116c-.243-.827-.29-1.558-.145-2.19.145-1.655.558-3.019 1.237-4.09a14.25 14.25 0 0 1 2.002-2.627 18.24 18.24 0 0 1 2.439-2.118c.388-.292.8-.5 1.237-.62a8.69 8.69 0 0 1 1.457-.257c.531 0 1.078.065 1.637.185a35.09 35.09 0 0 0 1.71.329 3.2 3.2 0 0 1 1.238.583c.387.243.692.511.911.804.219.292.424.656.618 1.094v.439a3.45 3.45 0 0 1-.437.51l-.438.438c-.047-.047-.121-.073-.217-.073-.194 0-.388-.11-.583-.327a2.943 2.943 0 0 0-.51-.477 1.882 1.882 0 0 0-.947-.437c-.871-.146-1.625 0-2.254.437-.342.245-.62.538-.839.877-.218.341-.45.684-.69 1.023l-.365.437-.218.22c-.144.097-.243.17-.29.219l-.075.146c-.437.534-.763 1.204-.984 2.006-.217.804-.399 1.594-.545 2.372-.046.1-.024.319.075.658.29 0 .46-.023.509-.073l6.915-5.036c.145-.098.279-.22.402-.366.118-.146.254-.29.4-.436a2.55 2.55 0 0 0 .983-.658c.264-.293.52-.61.762-.95l.22-.218.217-.367c.292-.486.557-.959.802-1.422.243-.463.484-.936.727-1.423l.365-.293c.63-.438 1.431-.414 2.403.072.581.292.92.657 1.019 1.096.097.437.022 1.021-.217 1.752a14.549 14.549 0 0 0-.802 4.307 24.97 24.97 0 0 0 .29 4.598c.048.392.083.792.11 1.208.023.412.181.814.473 1.202.243-.096.364-.156.364-.18 0-.025.073-.112.219-.258.776-.777 1.54-1.774 2.292-2.992a37.489 37.489 0 0 0 1.93-3.503c.437-.926.847-1.971 1.237-3.14"/>
            <path fill="#00184B" d="M192.529 149.76c.728.39.848.95.364 1.68-.194.34-.425.609-.69.804-.27.193-.573.242-.912.146a3.202 3.202 0 0 0-1.528.071l-1.458.439c-.436.097-.86.207-1.274.329a7.354 7.354 0 0 1-1.272.256c-.727.097-1.42.28-2.077.546a48.6 48.6 0 0 1-1.999.767c-.777.342-1.482.413-2.112.22-.583-.195-1.069-.634-1.457-1.316-.193-.29-.268-.583-.217-.875l.145-.876 1.966-.292c.774-.049 1.53-.485 2.256-1.315a8.949 8.949 0 0 0 2.256-3.723c.243-.778.474-1.543.693-2.3.218-.754.447-1.52.692-2.297.241-.684.29-1.34.146-1.972-1.362-.292-2.622.047-3.787 1.022l-1.456 1.386c-.39.439-.69.95-.909 1.534-.218.583-.45 1.143-.694 1.677-.193.439-.363.89-.508 1.352-.146.461-.292.912-.438 1.349a4.257 4.257 0 0 0-.217.73 4.14 4.14 0 0 1-.22.732 15.962 15.962 0 0 0-.982 3.249 199.62 199.62 0 0 0-.616 3.393c-.1.682-.16 1.364-.184 2.045-.024.684-.06 1.362-.108 2.043-.052.343-.062.67-.038.985.024.318.06.67.11 1.061l.145 1.095c.193.778.352 1.545.474 2.299.12.757.23 1.545.326 2.371.049.392.083.782.111 1.168a3.23 3.23 0 0 1-.11 1.096v.437c0 .439-.17.66-.51.66l-.437.29c-.145.098-.34.195-.58.293l-1.24.365c-.486.193-.984.352-1.492.474-.51.121-1.008.17-1.49.146-.488-.025-.851-.181-1.092-.474-.438-.537-.717-1.254-.839-2.154a20.43 20.43 0 0 1-.18-2.737l-.146-.512-.074-.073a8.251 8.251 0 0 1-.217-.948l-.146-.876v-.438c-.05-.098-.073-.293-.073-.585-.099-.096-.099-.195 0-.292a293.344 293.344 0 0 0-.51-6.864 170.24 170.24 0 0 0-.729-6.786l.146-2.776c.047-.922.074-1.873.074-2.847.193-.34.485-.583.873-.73l1.31-.292c.438-.097.898-.048 1.383.147 1.602.583 2.402 1.85 2.402 3.795 0 .439.012.877.037 1.314.024.438.01.85-.037 1.242 0 .437-.024.876-.073 1.312-.05.439-.05.853 0 1.243.292-.536.52-1.096.69-1.68.171-.582.305-1.191.403-1.825.24-1.36.57-2.688.983-3.978.41-1.288.932-2.542 1.563-3.759.535-1.07 1.203-1.91 2.003-2.52a11.472 11.472 0 0 1 2.656-1.498 32.547 32.547 0 0 1 2.44-.618c.8-.17 1.612-.207 2.438-.11.535 0 1.092.123 1.673.364 1.36.538 2.04 1.607 2.04 3.213 0 .828-.096 1.557-.29 2.19a53.606 53.606 0 0 1-.983 3.323 21.315 21.315 0 0 1-1.494 3.393l2.039-.292a4.847 4.847 0 0 1 1.567-.035c.508.071 1.006.28 1.49.62"/>
            <path fill="#00184B" d="M217.135 149.76c.728.39.848.95.364 1.68-.194.34-.425.609-.69.804-.27.193-.573.242-.912.146a3.202 3.202 0 0 0-1.528.071l-1.458.439c-.436.097-.86.207-1.274.329a7.354 7.354 0 0 1-1.272.256c-.727.097-1.42.28-2.077.546a48.6 48.6 0 0 1-1.999.767c-.777.342-1.482.413-2.112.22-.583-.195-1.069-.634-1.458-1.316-.192-.29-.267-.583-.216-.875l.145-.876 1.966-.292c.774-.049 1.53-.485 2.256-1.315a8.949 8.949 0 0 0 2.256-3.723c.243-.778.474-1.543.693-2.3.218-.754.447-1.52.692-2.297.241-.684.29-1.34.146-1.972-1.362-.292-2.622.047-3.787 1.022l-1.456 1.386c-.39.439-.69.95-.909 1.534-.219.583-.45 1.143-.694 1.677-.193.439-.363.89-.508 1.352-.146.461-.292.912-.438 1.349a4.257 4.257 0 0 0-.217.73 4.14 4.14 0 0 1-.22.732 15.962 15.962 0 0 0-.982 3.249 199.62 199.62 0 0 0-.616 3.393c-.1.682-.16 1.364-.184 2.045-.024.684-.06 1.362-.108 2.043-.052.343-.062.67-.038.985.024.318.06.67.11 1.061l.145 1.095c.193.778.352 1.545.474 2.299.12.757.23 1.545.326 2.371.049.392.083.782.111 1.168a3.23 3.23 0 0 1-.11 1.096v.437c0 .439-.171.66-.51.66l-.437.29c-.145.098-.34.195-.581.293l-1.239.365c-.486.193-.984.352-1.492.474-.51.121-1.009.17-1.49.146-.489-.025-.851-.181-1.094-.474-.437-.537-.717-1.254-.837-2.154-.123-.9-.182-1.812-.182-2.737l-.146-.512-.074-.073a9.052 9.052 0 0 1-.217-.948l-.146-.876v-.438c-.048-.098-.073-.293-.073-.585-.097-.096-.097-.195 0-.292a284.203 284.203 0 0 0-.51-6.864 167.08 167.08 0 0 0-.729-6.786l.146-2.776c.049-.922.075-1.873.075-2.847.194-.34.486-.583.873-.73l1.31-.292c.437-.097.899-.048 1.383.147 1.603.583 2.403 1.85 2.403 3.795 0 .439.012.877.037 1.314.024.438.01.85-.037 1.242 0 .437-.024.876-.073 1.312-.05.439-.05.853 0 1.243.292-.536.52-1.096.69-1.68.17-.582.305-1.191.403-1.825.24-1.36.57-2.688.983-3.978.41-1.288.931-2.542 1.563-3.759.535-1.07 1.203-1.91 2.003-2.52a11.472 11.472 0 0 1 2.656-1.498 32.547 32.547 0 0 1 2.44-.618c.8-.17 1.612-.207 2.438-.11.535 0 1.092.123 1.673.364 1.36.538 2.04 1.607 2.04 3.213 0 .828-.096 1.557-.29 2.19a53.606 53.606 0 0 1-.983 3.323 21.315 21.315 0 0 1-1.494 3.393l2.039-.292a4.847 4.847 0 0 1 1.567-.035c.508.071 1.006.28 1.49.62"/>
            <path fill="#00184B" d="M217.499 188.744a17.522 17.522 0 0 0-.326 3.688c.022 1.193.034 2.42.034 3.687l.948 1.897c.532.974 1.26 1.411 2.183 1.315.63-.05 1.25-.16 1.857-.328.607-.171 1.152-.549 1.636-1.133a68.137 68.137 0 0 0 2.55-3.43 4.581 4.581 0 0 0 .582-1.606 9.644 9.644 0 0 1 .255-1.534c.12-.487.23-.997.326-1.533.098-.485.17-.974.22-1.46.046-.487.119-.974.218-1.46.243-.877.388-1.764.435-2.664.049-.901.122-1.84.22-2.81 0-.343.011-.67.035-.987.025-.315.061-.668.111-1.058l.217-3.432a44.038 44.038 0 0 0 .146-3.65c0-.538.012-1.034.037-1.496a6.619 6.619 0 0 0-.108-1.5 3.49 3.49 0 0 1-.146-.983c0-.316-.028-.644-.074-.985l-1.455 1.824a147.357 147.357 0 0 0-4.622 6.606 38.952 38.952 0 0 0-3.823 7.413c-.339.922-.62 1.848-.838 2.774a78.979 78.979 0 0 0-.618 2.845zm25.262-39.495c.484.584.92 1.169 1.31 1.752-.05.1-.171.195-.364.292-.146.634-.508 1.194-1.092 1.68 0 .048-.052.121-.145.219a30.07 30.07 0 0 0-3.169 2.702 70.901 70.901 0 0 0-2.948 3.065c.146 2.335.267 4.672.364 7.01a49.465 49.465 0 0 1-.218 7.079c-.096 1.07-.18 2.117-.256 3.14a45.15 45.15 0 0 0-.109 3.14v.583a.907.907 0 0 1-.144.513 4.058 4.058 0 0 0-.36 1.68c0 .582-.023 1.165-.072 1.748v1.097c0 .34-.023.706-.071 1.094a15.967 15.967 0 0 1-.253 1.862 15.213 15.213 0 0 1-.469 1.79 15.48 15.48 0 0 1-1.298 4.089 17.083 17.083 0 0 1-2.306 3.612 14.621 14.621 0 0 1-3.039 2.774 11.97 11.97 0 0 1-3.49 1.643c-1.941.485-3.711.388-5.313-.292a.66.66 0 0 1-.291-.072l-.436-.22c-1.796-.925-2.986-2.531-3.57-4.818l-.291-.805a6.654 6.654 0 0 1-.292-1.276c-.046-.412-.093-.839-.144-1.277-.437-1.852-.472-3.663-.109-5.438a22.93 22.93 0 0 1 1.711-5.148 15.47 15.47 0 0 1 1.347-3.066c.558-.976 1.128-1.949 1.71-2.92.048-.05.074-.1.074-.146l2.184-3.87a72.348 72.348 0 0 1 3.785-5.694c.292-.388.486-.68.583-.877.486-.68.946-1.313 1.383-1.897.437-.585.92-1.17 1.454-1.754l.292-.437v-.366c0-.388-.012-.755-.037-1.094-.024-.34-.034-.705-.034-1.095v-5.403c0-.292-.014-.595-.039-.912a17.254 17.254 0 0 1-.036-1.206l-.873 1.023a8.547 8.547 0 0 0-.727.84 8.643 8.643 0 0 1-.729.84 6.584 6.584 0 0 1-.945.912c-.34.268-.705.45-1.094.55l-1.6.8c-.583.292-1.237.364-1.966.22a10.4 10.4 0 0 0-.729-.257 7.847 7.847 0 0 1-.727-.254c-.826-.438-1.431-1.24-1.82-2.41a26.213 26.213 0 0 1-1.093-6.935c0-.536-.01-1.06-.035-1.57a33.064 33.064 0 0 1-.036-1.569 7.361 7.361 0 0 1 .145-1.46c.047-.632.363-1.096.946-1.387.824-.536 1.628-.705 2.404-.511.872.146 1.405.656 1.601 1.533.096.39.169.804.219 1.24.047.439.071.853.071 1.243a79.07 79.07 0 0 0 .22 3.393c.094 1.145.193 2.276.292 3.395.047.293.108.573.179.84.074.269.23.474.475.62.241.147.63.195 1.165.147.532-.047 1.016-.413 1.454-1.097a25.35 25.35 0 0 1 1.82-2.59c.68-.852 1.213-1.885 1.602-3.104.144-.534.312-1.021.503-1.46.193-.436.337-.924.434-1.458a8.708 8.708 0 0 1 .432-1.644c.19-.512.432-1.032.72-1.568.387-.049.76-.11 1.12-.183.36-.073.733-.085 1.117-.038.963.146 1.683.706 2.164 1.679l.36.877c-.29.39-.456.802-.504 1.24-.047.44-.071.9-.071 1.388a38.67 38.67 0 0 0 .105 4.453c.122 1.46.302 2.922.542 4.38 0 .146.07.292.217.438.24.05.432 0 .578-.146l.437-.438 5.825-4.453zM100.118 214.302c-.536.39-1.105.804-1.71 1.24-.608.439-1.202.876-1.785 1.314-1.261.975-2.219 1.9-2.875 2.776a41.514 41.514 0 0 1-2.365 2.845c-.195.197-.436.5-.727.915-.292.413-.597.84-.913 1.276-.314.439-.606.865-.871 1.277-.267.414-.45.743-.547.985a5.936 5.936 0 0 1-.51 1.06 7.196 7.196 0 0 0-.583 1.24 2.3 2.3 0 0 0-.108 1.205c.073.39.377.707.91.948.145.1.534.147 1.164.147.63 0 1.359-.11 2.185-.328.824-.219 1.71-.584 2.657-1.094.947-.513 1.808-1.255 2.583-2.228a51.737 51.737 0 0 0 2.55-3.468c.872-1.29 1.575-2.52 2.111-3.686.146-.339.387-.838.728-1.498.338-.656.557-1.155.655-1.495a8.969 8.969 0 0 0 .438-2.702c0-.876-.123-1.704-.366-2.482h-.072l-1.091.731c-.437.293-.923.632-1.458 1.022zm-15.215-15.406c.049 1.414.097 2.788.146 4.127.049 1.339.121 2.712.217 4.125.05.534.075 1.096.075 1.679v1.678c0 1.705-.037 3.42-.11 5.147a122.143 122.143 0 0 0-.11 5.146c0 .684.013 1.352.037 2.01.025.656.061 1.324.108 2.006v1.097c.536-1.267 1.239-2.569 2.112-3.907a22.056 22.056 0 0 1 2.84-3.54c.875-.877 1.906-1.74 3.094-2.594 1.19-.85 2.269-1.641 3.239-2.372.68-.486 1.395-.96 2.148-1.424a29.495 29.495 0 0 0 1.93-1.277l.51-.366-.146-.217c-.828-.682-1.616-1.011-2.365-.985a5.13 5.13 0 0 0-2.15.546c-.679.341-1.345.766-2.001 1.28-.656.51-1.31.863-1.966 1.056-.656.196-1.323.16-2.001-.108-.682-.27-1.383-.962-2.112-2.081a11.47 11.47 0 0 0-.729-1.022c-.338-.438-.534-.802-.583-1.094-.047-.536.061-1.121.33-1.755.265-.631.63-1.3 1.091-2.006.46-.707.995-1.436 1.602-2.191.606-.753 1.225-1.52 1.857-2.299a59.477 59.477 0 0 0 2.11-2.7 25.242 25.242 0 0 0 1.747-2.703c.533-1.022.778-1.826.728-2.408-.049-.585-.34-1.29-.873-2.118-.243-.34-.596-.547-1.057-.62a4.847 4.847 0 0 0-1.454 0 7.818 7.818 0 0 0-1.493.364c-.486.172-.848.329-1.093.475-.389.195-.885.597-1.49 1.204a28.532 28.532 0 0 0-1.349 1.424c-.387.391-.631.73-.727 1.023-.097.292-.34.632-.729 1.021l-.218.22c-.049.048-.12.17-.219.365-.193.341-.375.62-.545.839-.17.22-.304.524-.4.913-.098.293-.098.5 0 .62.096.122.072.258-.074.404.049.193.073.388.073.58v.438zm-6.625-9.343l.075-.439c.046-.292.118-.593.216-.91.1-.317.245-.621.438-.914.192-.292.437-.438.729-.438.583-.049 1.091-.061 1.528-.037.438.026.655.063.655.112 1.55-.538 2.425 1.117 2.62 4.96a28.495 28.495 0 0 1 2.585-2.554 11.397 11.397 0 0 1 3.311-2.043 8.495 8.495 0 0 1 3.823-.584c1.336.097 2.706.66 4.113 1.677 1.065.83 1.648 2.024 1.747 3.58.047.73.122 1.434.219 2.118.097.68-.026 1.458-.364 2.335-.245.682-.45 1.533-.618 2.555-.172 1.021-.45 1.874-.838 2.554a19.177 19.177 0 0 1-1.855 2.776 30.548 30.548 0 0 1-2.185 2.443c-.755.757-1.47 1.45-2.147 2.083a62.174 62.174 0 0 0-1.674 1.604c-.1.1-.075.086.07-.036a5.11 5.11 0 0 0 .367-.327 23.997 23.997 0 0 1 2.837-1.899 17.09 17.09 0 0 1 3.058-1.387c.972-.292 1.893-.363 2.768-.217a5.76 5.76 0 0 1 2.401.985 9.728 9.728 0 0 1 2.001 1.897 10.412 10.412 0 0 1 1.492 2.518 21.339 21.339 0 0 1 1.31 4.272c.292 1.486.316 2.932.073 4.343-.048.341-.12.695-.218 1.058-.097.366-.193.719-.292 1.058-.097.39-.206.72-.326.987-.12.268-.255.595-.4.985-.34.682-.726 1.497-1.163 2.445-.438.948-.9 1.74-1.383 2.374-.292.39-.573.668-.839.838a8.826 8.826 0 0 0-.982.768c-.39.39-.828.84-1.312 1.35-.484.512-.945.912-1.383 1.204a6.36 6.36 0 0 1-2.184 1.022 41.22 41.22 0 0 0-2.33.658c-.777.243-1.627.353-2.547.329-.923-.025-1.747-.232-2.476-.622-2.087-1.021-3.495-2.044-4.222-3.066l-.291 2.7c-.098.634-.462 1.183-1.092 1.644a6.043 6.043 0 0 1-2.037.986c-.729.195-1.421.254-2.076.181-.655-.071-1.032-.3-1.127-.692-.34-1.217-.51-2.604-.51-4.161 0-1.411.083-2.847.254-4.307a37 37 0 0 0 .256-4.234v-23.364c0-1.797-.014-3.527-.037-5.182a297.622 297.622 0 0 1-.038-4.234v-1.752zM114.75 206.418c-.537-.1-.8-.414-.8-.95l-.22-1.68c.244-1.752.947-3.26 2.111-4.524.245-.341.656-.562 1.24-.658l2.547-.292c.484-.049.921 0 1.31.146.387.146.753.317 1.091.512.486.34.608.705.365 1.094a2.81 2.81 0 0 0-.401.512 1.85 1.85 0 0 1-.472.51c-.778.437-1.434.926-1.965 1.458a28.54 28.54 0 0 0-1.603 1.754c-.245.341-.508.682-.8 1.022a4.374 4.374 0 0 1-1.02.875 1.955 1.955 0 0 1-1.383.221m9.683 9.928c.145-.34.338-.536.583-.585.24-.047.47 0 .69.146.217.147.387.378.509.695.121.315.109.645-.037.985-.243.631-.508 1.315-.8 2.044-.291.73-.63 1.46-1.02 2.191-.243.632-.508 1.144-.8 1.532l-.146.146c-.047.099-.097.183-.146.256-.046.073-.097.16-.145.254l-.727 1.315c-.195.246-.365.475-.51.695a4.63 4.63 0 0 1-.584.692c-.678.731-1.405 1.07-2.18 1.023-.438 0-.863.01-1.276.037a3.888 3.888 0 0 1-1.201-.111c-1.067-.147-1.94-.703-2.622-1.68-1.309-1.653-2.11-3.624-2.402-5.913a29.928 29.928 0 0 1-.255-5.292c.075-1.777.255-3.297.547-4.56.144-.488.388-1.001.727-1.536.244-.485.775-.776 1.603-.875.193 0 .375-.012.545-.038.17-.023.375-.009.62.038.29.047.605.085.945.108l.982.073c.316.026.596.1.839.22.24.123.41.304.51.547 0 .098.008.17.036.22a.51.51 0 0 1 .037.219v.292c-.1.535-.183.973-.257 1.314-.071.341-.108.68-.108 1.022-.099.682-.218 1.57-.362 2.664a23.584 23.584 0 0 0-.22 3.103c0 .73.011 1.447.036 2.154.024.707.06 1.4.109 2.081.047.486.075.985.075 1.495 0 .512.046.924.144 1.24.095.318.314.464.656.44.338-.025.846-.303 1.527-.841l.218-.364 1.893-2.628c.387-.828.754-1.679 1.092-2.554l.875-2.264"/>
            <path fill="#00184B" d="M129.53 203.935c.339-.632.57-1.253.69-1.86.12-.61.207-1.255.256-1.937.047-1.168-.365-2.043-1.237-2.628-.73-.388-1.19-.195-1.385.585a4.654 4.654 0 0 0-.219 1.46c.049.875.207 1.68.476 2.409.263.729.737 1.386 1.42 1.971zm8.953 7.299c-.728-.387-1.432-.643-2.11-.764-.68-.122-1.361-.305-2.04-.549-.68-.243-1.36-.46-2.037-.656a33.821 33.821 0 0 1-2.039-.657c-.244.243-.51.706-.801 1.385-.292.684-.584 1.439-.873 2.264-.292.83-.583 1.632-.873 2.41-.292.778-.535 1.363-.729 1.75a6.02 6.02 0 0 0-.51 1.243c-.146.487-.436.634-.873.439-.777-.39-.996-1.413-.656-3.068 0-.096.122-.498.364-1.203a251.264 251.264 0 0 0 1.493-4.491c.218-.68.352-1.07.399-1.168.099-.146.17-.292.22-.438.049-.145.12-.342.217-.583a1.387 1.387 0 0 1-.253-.366 1.392 1.392 0 0 0-.255-.364l-.729-.877c-.243-.292-.484-.609-.729-.948-1.598-2.386-1.89-4.94-.873-7.666.436-1.167 1.165-1.923 2.185-2.264a8.618 8.618 0 0 1 2.183-.436c.729-.05 1.458.12 2.185.51.775.34 1.357.864 1.747 1.57.387.704.583 1.544.583 2.517a8.92 8.92 0 0 1-.255 2.666c-.22.851-.498 1.69-.836 2.518l-.656 1.533c.047.244.146.4.29.474.145.073.291.158.437.257 2.04.876 4.149 1.459 6.334 1.75 1.164.147 2.328.488 3.495 1.024 1.114.486 1.974 1.178 2.583 2.08.606.9 1.056 1.983 1.347 3.249.095.292.11.584.036.877-.072.29-.157.609-.256.948-.29.973-.58 1.972-.871 2.993a75.596 75.596 0 0 1-.946 3.066c-.245.827-.39 1.633-.437 2.409a37.42 37.42 0 0 0-.073 2.408 1.89 1.89 0 0 0-.039.622c.025.17.039.377.039.62-.05.438 0 .852.145 1.242.146.39.387.68.73.875.384.196.785.304 1.198.329.413.026.814-.133 1.201-.474 1.505-1.266 2.815-2.847 3.932-4.747.389-.632.74-1.275 1.055-1.933a8.558 8.558 0 0 0 .693-2.155l.218-.584c.242.099.497.182.764.257.267.072.522.159.765.254.047.731.023 1.438-.073 2.118a7.117 7.117 0 0 1-.583 1.972c-.437.924-.909 1.813-1.421 2.664a10.492 10.492 0 0 1-1.855 2.299c-.972.974-2.015 1.705-3.13 2.19-1.116.488-2.327.657-3.64.51-.194-.046-.485-.072-.874-.072-.873 0-1.675-.22-2.402-.658a6.48 6.48 0 0 1-1.893-1.75 6.21 6.21 0 0 1-.91-1.532c-.218-.538-.4-1.072-.546-1.608a13.584 13.584 0 0 1-.617-3.247 48.882 48.882 0 0 1-.11-3.324 18.93 18.93 0 0 1 .547-3.942c.314-1.265.64-2.528.982-3.797l.436-1.971z"/>
            <path fill="#00184B" d="M178.738 191.67c.437 0 .775.168 1.02.5.243.334.364.714.364 1.142 0 .43-.121.81-.364 1.145-.245.332-.583.5-1.02.5h-6.843c-.388.095-.8.194-1.237.291-.437.096-.874.12-1.31.074a24.57 24.57 0 0 0-3.821 0 51.58 51.58 0 0 1-3.894.146 2.635 2.635 0 0 0-.875 0c-.437.097-.656.388-.656.875 0 .534-.012 1.084-.034 1.643-.026.56-.038 1.108-.038 1.64-.047.83-.098 1.67-.146 2.52a42.047 42.047 0 0 1-.217 2.519 11.96 11.96 0 0 0-.11 2.117c.023.731.035 1.46.035 2.19 0 .243.012.5.038.767.023.268.01.524-.038.766a56.168 56.168 0 0 0-.326 6.68c.024 2.217.11 4.467.255 6.754 0 .486.024.985.071 1.495.049.511.146 1.01.292 1.496.244.975.546 1.889.913 2.74.362.85.954 1.545 1.782 2.079l.437.439c.291-.047.555-.293.8-.731.193-.439.399-.877.618-1.314.218-.439.425-.898.62-1.387.63-1.8 1.273-3.588 1.929-5.363.656-1.779 1.272-3.59 1.855-5.44.099-.39.184-.743.255-1.06.075-.315.158-.67.255-1.058a.392.392 0 0 0 .292.035c.097-.023.194-.157.29-.4.536.048.947.219 1.238.511.29.292.557.61.802.95a45.608 45.608 0 0 0-.257 1.532 6.566 6.566 0 0 1-.399 1.458c-.243.637-.45 1.255-.618 1.864a40.574 40.574 0 0 1-.546 1.787l-.875 3.287c-.243.68-.46 1.377-.654 2.08a29.88 29.88 0 0 1-.656 2.08 7.769 7.769 0 0 1-1.163 2.19 5.633 5.633 0 0 1-1.82 1.535 5.878 5.878 0 0 1-.729.29c-3.302.537-5.874-.704-7.717-3.723a22.797 22.797 0 0 1-2.328-5 29.606 29.606 0 0 1-1.238-5.513 75.022 75.022 0 0 1-.512-5.692l-.291-5.698c0-.532.028-1.056.075-1.568a5.709 5.709 0 0 0-.075-1.567.497.497 0 0 0 .146-.368c.05-.436.074-.875.074-1.312v-1.387l.217-7.446-.581-.146c-.535.097-1.043.156-1.53.18-.483.027-.993.062-1.53.112-1.26.096-2.594.279-4.001.547-1.407.268-2.72.207-3.932-.183-.438-.146-.729-.412-.875-.795a1.967 1.967 0 0 1-.071-1.187c.099-.406.292-.728.583-.966.29-.237.654-.285 1.092-.143.534.143 1.067.18 1.601.11a36.833 36.833 0 0 0 1.602-.252c.875-.286 1.843-.5 2.91-.642.828-.096 1.64-.155 2.442-.181.8-.02 1.612-.058 2.436-.105l1.383-6.352.366-1.313c.146-.488.325-.829.545-1.022.217-.195.547-.245.984-.146.385.097.762.207 1.128.327.363.124.74.231 1.128.329.29.097.605.22.946.365.532.195.909.439 1.13.73.216.292.35.755.398 1.386a35.303 35.303 0 0 1-.146 3.212c0 .39-.013.768-.036 1.134-.024.365-.06.741-.11 1.13 3.058-.097 6.104-.158 9.139-.182 3.03-.024 6.075-.036 9.133-.036"/>
            <path fill="#00184B" d="M200.797 215.398c.29.29.484.609.58.948a.837.837 0 0 1-.216.877 14.9 14.9 0 0 0-1.638 2.7 22.345 22.345 0 0 1-1.565 2.773c-.05.146-.17.318-.366.512-.436.487-.823 1.009-1.163 1.571a12.463 12.463 0 0 0-.875 1.714 6.504 6.504 0 0 1-1.2 1.86c-.51.562-.983.963-1.418 1.206-.682.39-1.326.56-1.932.512a4.167 4.167 0 0 1-1.784-.585c-.727-.388-1.334-1.021-1.82-1.897a12.612 12.612 0 0 1-1.345-3.504 11.613 11.613 0 0 1-.184-3.796l.656-5.405c.097-.729.17-1.446.219-2.15.049-.707.097-1.401.146-2.084a1.833 1.833 0 0 0 0-.727 3.742 3.742 0 0 1-.073-.73c-.486-.196-.948-.269-1.385-.22a9.516 9.516 0 0 0-2.802 2.845 46.447 46.447 0 0 1-2.437 3.433c-.099.098-.244.328-.437.693a9.804 9.804 0 0 1-.654 1.058l-2.187 5.475a21.595 21.595 0 0 0-1.091 3.98 13.902 13.902 0 0 1-1.238 3.833c-.63.195-1.31.266-2.037.22-.826-.1-1.516-.402-2.075-.916-.557-.51-.934-1.227-1.128-2.15a34.367 34.367 0 0 1-.365-2.193 5.638 5.638 0 0 1 .146-2.19c.146-.388.17-.85.073-1.386a15.125 15.125 0 0 1-.146-2.957c.049-.995.049-1.98 0-2.957 0-.73.025-1.46.073-2.189.049-.73.073-1.462.073-2.192 0-1.849-.01-3.674-.035-5.475-.027-1.798-.013-3.623.035-5.475 0-.534.024-1.044.073-1.533.049-.485.073-.973.073-1.458l.364-9.71c0-.39.025-.79.071-1.205.05-.414.1-.816.146-1.206.1-.534.366-.802.802-.802.097 0 .158-.024.182-.073.023-.047.085-.097.182-.146.195-.193.4-.292.618-.292.219 0 .425.048.62.146.291.099.591.146.909.146.316 0 .63-.012.947-.037.316-.022.63-.01.946.037.316.049.618.172.91.365.242.146.412.414.51.803.194.633.315 1.169.362 1.607 0 1.07.012 2.127.038 3.175.023 1.045-.06 2.08-.255 3.102a5.637 5.637 0 0 0-.109 1.424c.024.463.06.938.11 1.425.048 1.02.058 2.033.036 3.028-.026.999-.037 1.986-.037 2.957 0 .194-.024.363-.074.51a1.69 1.69 0 0 0-.071.513c.097.875.097 1.75 0 2.628l-.292 2.627a31.974 31.974 0 0 0-.182 2.664 13.878 13.878 0 0 1-.328 2.665c-.195.83-.302 1.669-.326 2.518-.026.854.01 1.74.107 2.666.245-.195.401-.402.476-.622.07-.219.156-.45.253-.692 1.116-3.018 2.55-5.645 4.295-7.883 1.843-2.534 4.1-4.187 6.771-4.967.632-.242 1.223-.316 1.784-.217.557.097 1.08.463 1.565 1.094.146.194.302.392.472.585.17.193.375.364.62.51.387.292.69.646.909 1.058.219.416.375.89.474 1.425.24 1.265.291 2.433.145 3.503-.099.29-.123.583-.072.876.048.292.048.56 0 .803l-.51 4.892a1.626 1.626 0 0 0-.072.512l-.291 4.234a1.57 1.57 0 0 0-.075.51v.365l.075-.146c.24.34.484.412.728.22a7.36 7.36 0 0 0 1.71-1.934c.46-.755.885-1.523 1.272-2.3l2.695-4.527c.388-.292.753-.463 1.091-.512.193 0 .365-.038.51-.11a4.05 4.05 0 0 0 .438-.253"/>
            <path fill="#00184B" d="M208.95 216.784c.388-.485.41-.95.072-1.387-.388-.39-.702-.607-.947-.66a4.726 4.726 0 0 0-1.529-.034c-.484.073-.946.327-1.383.766l-1.164 1.17c-.34.339-.654.704-.946 1.094a11.987 11.987 0 0 0-1.019 1.68 6.132 6.132 0 0 0-.58 1.97c.289.147.518.194.69.147.17-.049.35-.124.546-.22a17.164 17.164 0 0 0 3.13-1.936 77.441 77.441 0 0 0 2.91-2.372l.22-.218zm9.245 8.759l-.074.22c.098.827.17 1.68.22 2.555.047.876.024 1.753-.075 2.63-.047.485-.18.839-.399 1.056-.217.22-.486.366-.8.439a2.875 2.875 0 0 1-1.02.038c-.363-.049-.692-.1-.984-.146-1.067-.146-1.843-.416-2.327-.804-.488-.39-.852-1.217-1.092-2.483a38.427 38.427 0 0 1-.475-2.957c-.121-.997-.23-2.006-.326-3.03a6.545 6.545 0 0 1-.111-1.57 12.56 12.56 0 0 0-.035-1.64l-.073-.073-.654.436c-.39.343-.802.658-1.24.95-.435.293-.898.56-1.382.804-.486.242-.96.523-1.42.84-.463.316-.933.594-1.42.838a3.483 3.483 0 0 1-.91.439 43.33 43.33 0 0 1-.982.29c-.825.246-1.578.197-2.256-.144-.68-.34-1.286-.853-1.82-1.535-.438-.437-.656-.997-.656-1.678v-.729c0-.245.048-.487.145-.73a17.41 17.41 0 0 1 1.238-3.579 10.542 10.542 0 0 1 2.04-2.921l1.746-1.605c.533-.534 1.116-.913 1.747-1.13a7.538 7.538 0 0 1 1.965-.401c.534-.05 1.057-.063 1.567-.038.51.024 1.029.16 1.563.402l.802.146.219-.146v-4.746c.095-.097.145-.17.145-.22.047.147.085.173.108.074.024-.098.038-.51.038-1.24v-.878c0-.292-.026-.585-.074-.877.097-.484.145-.948.145-1.387v-1.531a3.98 3.98 0 0 0 .183-1.022 3.336 3.336 0 0 0-.108-1.096l.583-7.518c.144-1.557.312-3.104.508-4.637.193-1.532.485-3.053.875-4.563.338-1.361 1.065-2.043 2.181-2.043.243 0 .51.036.802.108.29.074.581.16.873.257.729.195 1.091.78 1.091 1.75.049.1.061.185.039.257a.826.826 0 0 0-.039.255c-.047 1.267-.097 2.508-.145 3.724a97.758 97.758 0 0 1-.217 3.723c-.049.73-.049 1.46 0 2.19.047.73.073 1.459.073 2.19 0 .877.024 1.752.072 2.628l.146 2.629v.804c0 .242-.026.485-.074.73-.098.68-.132 1.325-.108 1.934.023.61.06 1.253.108 1.934-.193.391-.29.706-.29.948a4.192 4.192 0 0 0-.073 1.352c.048.463.097.912.146 1.35l.217 1.095c-.047.975-.085 1.961-.108 2.957-.024.999-.012 1.985.036 2.956.047 1.56.061 3.115.037 4.673a99.777 99.777 0 0 0 .035 4.67c0 .1-.01.174-.035.221a.304.304 0 0 0-.037.147l.072.217c0 .245.013.465.038.658.022.196.036.39.036.583zM247.895 215.834c.339.1.656.208.948.328.29.123.534.27.727.438.192.172.291.402.291.694 0 .293-.123.658-.362 1.095-.292.39-.486.707-.583.95-.39.73-.79 1.655-1.201 2.774-.413 1.119-.838 2.02-1.276 2.7-.532.683-.958 1.315-1.272 1.9-.317.584-.813 1.143-1.494 1.679-.34.243-.763.39-1.273.438-.51.047-.983.023-1.418-.075-1.166-.242-2.088-.911-2.768-2.006-.68-1.095-1.286-2.74-1.82-4.928a2.154 2.154 0 0 0-.18-.293 2.725 2.725 0 0 1-.258-.436 16.26 16.26 0 0 1-1.674 1.204 7.711 7.711 0 0 0-1.602 1.35l-2.181 2.118c-.828.827-1.872 1.486-3.132 1.972-.536.243-1.118.29-1.748.144a5.069 5.069 0 0 1-1.82-.84 6.862 6.862 0 0 1-1.564-1.568 6.023 6.023 0 0 1-.983-2.118c-.243-.827-.29-1.556-.146-2.19.146-1.654.56-3.017 1.237-4.087.583-.975 1.25-1.85 2.004-2.63a18.46 18.46 0 0 1 2.437-2.117c.39-.293.801-.498 1.239-.62.435-.12.92-.207 1.456-.256.53 0 1.079.063 1.636.183.559.122 1.128.232 1.711.327.437.1.849.293 1.237.585.389.245.693.51.913.802.217.293.423.658.616 1.096v.437a3.433 3.433 0 0 1-.437.514l-.436.436c-.048-.047-.121-.073-.218-.073-.193 0-.39-.108-.584-.327a2.86 2.86 0 0 0-.508-.475 1.849 1.849 0 0 0-.947-.438c-.872-.147-1.625 0-2.255.438a3.158 3.158 0 0 0-.838.875c-.22.342-.45.683-.69 1.022l-.367.438-.216.22a2.06 2.06 0 0 0-.292.219l-.073.146c-.437.536-.765 1.203-.984 2.008-.218.803-.4 1.594-.545 2.372-.048.098-.026.317.073.656.292 0 .462-.022.509-.073l6.917-5.036c.145-.097.277-.22.4-.365.12-.147.254-.293.4-.439.388-.146.714-.364.983-.656.266-.292.521-.609.764-.948l.219-.221.218-.364c.29-.486.557-.962.802-1.424.241-.462.484-.936.727-1.425l.364-.292c.63-.439 1.43-.41 2.404.075.581.29.92.656 1.018 1.094.096.439.023 1.022-.218 1.753a14.613 14.613 0 0 0-.8 4.308c-.052 1.459.047 2.99.29 4.598.048.392.083.792.109 1.204.024.414.182.815.474 1.206.24-.099.364-.16.364-.183 0-.024.071-.11.217-.255.776-.778 1.541-1.777 2.294-2.995a36.806 36.806 0 0 0 1.928-3.503 28.31 28.31 0 0 0 1.237-3.14"/>
            <path fill="#00184B" d="M248.77 255.184a17.5 17.5 0 0 0-.328 3.686c.022 1.192.036 2.422.036 3.686l.946 1.9c.536.973 1.261 1.411 2.186 1.312a9.614 9.614 0 0 0 1.855-.325c.606-.174 1.15-.55 1.639-1.133a70.306 70.306 0 0 0 2.547-3.434 4.56 4.56 0 0 0 .581-1.602c.047-.538.134-1.05.257-1.535.12-.49.227-.997.326-1.533.1-.487.17-.975.219-1.46.049-.486.12-.975.219-1.462.243-.875.388-1.763.437-2.664.047-.902.12-1.836.217-2.809 0-.343.014-.67.036-.987.025-.316.063-.668.11-1.058l.22-3.431a56.99 56.99 0 0 0 .108-1.826c.024-.583.038-1.192.038-1.824 0-.536.01-1.033.034-1.498.025-.461-.01-.96-.109-1.495a3.522 3.522 0 0 1-.146-.986c0-.315-.024-.646-.07-.985l-1.458 1.825a150.335 150.335 0 0 0-4.623 6.608 38.816 38.816 0 0 0-3.821 7.41c-.34.923-.62 1.848-.839 2.772a78.38 78.38 0 0 0-.617 2.848zm25.26-39.495a21.3 21.3 0 0 1 1.312 1.752c-.05.098-.172.195-.364.293-.146.631-.51 1.192-1.093 1.677 0 .05-.049.124-.146.22a30.85 30.85 0 0 0-3.167 2.7 72.95 72.95 0 0 0-2.948 3.066c.145 2.34.269 4.673.364 7.008a49.506 49.506 0 0 1-.219 7.083 150.1 150.1 0 0 0-.253 3.139 44.137 44.137 0 0 0-.11 3.14v.584c0 .193-.05.364-.145.51a4.069 4.069 0 0 0-.36 1.68 21.1 21.1 0 0 1-.072 1.752v1.094c0 .341-.023.705-.073 1.095a15.275 15.275 0 0 1-.72 3.65 15.58 15.58 0 0 1-1.296 4.09 17.23 17.23 0 0 1-2.308 3.613 14.625 14.625 0 0 1-3.04 2.772 11.97 11.97 0 0 1-3.489 1.644c-1.941.486-3.711.388-5.313-.29a.665.665 0 0 1-.292-.075l-.437-.218c-1.796-.925-2.985-2.532-3.566-4.82l-.291-.802a6.446 6.446 0 0 1-.292-1.277c-.047-.415-.097-.84-.146-1.278-.437-1.85-.473-3.663-.107-5.438a22.81 22.81 0 0 1 1.709-5.147 15.52 15.52 0 0 1 1.348-3.067c.556-.974 1.128-1.947 1.71-2.921.048-.047.072-.096.072-.147l2.185-3.866a68.646 68.646 0 0 1 1.819-2.886c.63-.95 1.287-1.884 1.964-2.81.292-.39.486-.682.583-.875.486-.68.948-1.316 1.383-1.9a23.1 23.1 0 0 1 1.458-1.751l.291-.437v-.365c0-.39-.013-.754-.038-1.095a16.584 16.584 0 0 1-.036-1.096v-5.402c0-.292-.012-.597-.037-.913a16.39 16.39 0 0 1-.034-1.205l-.875 1.022a8.823 8.823 0 0 0-.729.84 8.377 8.377 0 0 1-.727.84 6.608 6.608 0 0 1-.947.913c-.339.268-.703.45-1.092.546l-1.6.804c-.581.29-1.237.366-1.966.22a7.87 7.87 0 0 0-.727-.255 8.26 8.26 0 0 1-.729-.257c-.827-.437-1.431-1.241-1.82-2.409a25.99 25.99 0 0 1-1.092-6.936c0-.534-.012-1.056-.036-1.568a33.104 33.104 0 0 1-.038-1.571c0-.242.014-.486.038-.73a8.25 8.25 0 0 1 .108-.73c.05-.632.366-1.095.947-1.387.826-.535 1.626-.705 2.402-.51.874.146 1.407.656 1.603 1.531.096.392.168.804.217 1.243.049.438.075.852.075 1.24.046 1.121.12 2.252.217 3.395.097 1.144.192 2.275.291 3.396.047.29.11.572.182.838.071.267.231.474.474.62.241.146.63.197 1.163.146.534-.047 1.02-.412 1.457-1.095a24.775 24.775 0 0 1 1.82-2.592c.68-.85 1.212-1.885 1.6-3.101.143-.536.313-1.022.504-1.46a6.58 6.58 0 0 0 .434-1.462c.097-.583.24-1.131.432-1.641s.432-1.034.722-1.57c.383-.049.756-.11 1.119-.183.36-.073.73-.083 1.116-.034.961.146 1.683.704 2.164 1.677l.359.875c-.288.39-.455.804-.505 1.243-.047.437-.071.901-.071 1.387a38.664 38.664 0 0 0 .109 4.453c.118 1.46.298 2.918.54 4.38 0 .146.07.292.217.439.239.048.432 0 .577-.147l.438-.438 5.823-4.453zM118.069 249.214c-.651-.353-1.293-.53-1.927-.53-.732 0-1.4.186-2 .551-.6.367-1.073.874-1.42 1.518a4.495 4.495 0 0 0-.517 2.149c0 .79.174 1.507.517 2.15.347.646.82 1.151 1.42 1.518.6.366 1.268.55 2 .55.592 0 1.215-.153 1.864-.458a5.908 5.908 0 0 0 1.74-1.247l2.217 2.39a8.85 8.85 0 0 1-2.808 1.985c-1.085.49-2.157.737-3.22.737-1.438 0-2.736-.332-3.897-.997a7.286 7.286 0 0 1-2.733-2.721c-.663-1.15-.996-2.438-.996-3.864 0-1.414.34-2.687 1.015-3.825a7.286 7.286 0 0 1 2.787-2.68c1.182-.65 2.504-.974 3.969-.974 1.078 0 2.14.224 3.19.673 1.05.451 1.941 1.064 2.672 1.84l-2.195 2.659a5.435 5.435 0 0 0-1.678-1.424M127.95 254.773h4.019l-1.989-5.194-2.03 5.194zm6.132 5.483l-.994-2.575h-6.277l-1.016 2.575H121.9l6.235-14.563h3.895l6.091 14.563h-4.04zM136.61 245.693h12.45v3.138h-4.35v11.426h-3.791V248.83h-4.309zM150.594 245.693h3.792v5.941h5.862v-5.94h3.791v14.563h-3.791v-5.59h-5.862v5.59h-3.792zM166.858 245.693h11.456v3.033h-7.665v2.722h6.919v3.012l-6.919.021v2.743h7.871v3.033h-11.662zM184.633 253.193h2.756c.772 0 1.37-.194 1.79-.582.423-.388.633-.948.633-1.682 0-.707-.21-1.252-.632-1.63-.422-.382-1.019-.572-1.791-.572h-2.756v4.466zm4.93 7.065l-2.113-4.032h-2.817v4.032h-3.793v-14.566h6.526c1.921 0 3.409.448 4.465 1.342 1.057.893 1.586 2.15 1.586 3.77 0 1.094-.22 2.04-.662 2.836-.443.797-1.085 1.416-1.928 1.858l3.024 4.76h-4.288z"/>
            <mask id="v" fill="#fff">
                <use xlink:href="#u"/>
            </mask>
            <path fill="#00184B" d="M195.84 260.257h3.793v-14.564h-3.793zM212.373 245.693h3.522v14.564h-3.314l-6.59-8.705v8.705h-3.543v-14.564h3.337l6.608 8.767zM218.733 245.693h11.458v3.033h-7.665v2.722h6.919v3.012l-6.919.021v2.743h7.871v3.033h-11.664z" mask="url(#v)"/>
        </g>
    </g>
</svg>
