<svg xmlns="http://www.w3.org/2000/svg" width="414" height="498" viewBox="0 0 414 498">
    <path fill="#6C63FF" fill-rule="evenodd" d="M287.243 58.977c-35.271 24.679-81.02 23.079-121.111 10.24-40.09-12.838-76.918-35.689-115.979-51.933A376.897 376.897 0 0 0-51.747-9.26c-49.784-5.692-105.379 1.241-140.062 41.144-38.627 44.42-35.66 124.537 6.1 165.338 21.255 20.74 49.082 30.92 73.349 47.118 24.266 16.198 46.733 43.08 44.666 74.341-1.914 28.954-24.16 51.14-47.183 65.069-17.792 10.766-39.702 22.53-41.844 44.832-2.075 21.578 16.35 38.485 33.944 48.1 57.394 31.369 128.119 31.064 185.315-.762 20.408-11.42 39.138-26.553 60.529-35.406 56.166-23.262 118.06.152 177.537 8.716a355.213 355.213 0 0 0 150.998-10.987c29.452-8.686 59.018-21.974 79.708-46.729 14.925-17.852 24.22-40.443 32.945-62.752a2504.211 2504.211 0 0 0 26.837-71.873c5.147-14.477 10.219-29.25 11.553-44.74 2.41-28.085-7.748-55.842-21.582-79.538-32.846-56.261-88.166-95.828-148.077-105.878-59.91-10.05-123.292 9.562-169.758 52.535" opacity=".1"/>
</svg>
