<svg xmlns="http://www.w3.org/2000/svg" width="30" height="30" viewBox="0 0 30 30">
    <g fill="none" fill-rule="evenodd">
        <circle cx="15" cy="15" r="14" fill="#6C63FF"/>
        <g fill="#FFF">
            <path d="M19.884 14.662L12.868 9.86c-.608-.406-1.397.03-1.397.779v9.602c0 .749.82 1.185 1.397.78l7.016-4.801a.946.946 0 0 0 0-1.56z"/>
            <path fill-rule="nonzero" d="M15 0C6.726 0 0 6.726 0 15c0 8.274 6.726 15 15 15 8.274 0 15-6.726 15-15 0-8.274-6.726-15-15-15zm0 27.663C8.021 27.663 2.337 21.98 2.337 15S8.02 2.337 15 2.337 27.663 8.02 27.663 15 21.98 27.663 15 27.663z"/>
        </g>
    </g>
</svg>
