<svg xmlns="http://www.w3.org/2000/svg" width="34" height="34" viewBox="0 0 34 34">
    <g fill="#FFF" fill-rule="evenodd">
        <path d="M22.535 16.617l-7.952-5.442c-.688-.459-1.583.036-1.583.884V22.94c0 .848.93 1.343 1.583.884l7.952-5.442c.62-.424.62-1.342 0-1.766z"/>
        <path fill-rule="nonzero" d="M17 0C7.623 0 0 7.623 0 17c0 9.377 7.623 17 17 17 9.377 0 17-7.623 17-17 0-9.377-7.623-17-17-17zm0 31.352C9.09 31.352 2.648 24.909 2.648 17 2.648 9.09 9.091 2.648 17 2.648c7.91 0 14.352 6.443 14.352 14.352 0 7.91-6.443 14.352-14.352 14.352z"/>
    </g>
</svg>
